<?xml version="1.0" encoding="utf-8"?>
<!-- Generator: Adobe Illustrator 20.1.0, SVG Export Plug-In . SVG Version: 6.00 Build 0)  -->
<svg version="1.1" id="Layer_1" xmlns="http://www.w3.org/2000/svg" xmlns:xlink="http://www.w3.org/1999/xlink" x="0px" y="0px"
	 viewBox="0 0 1474 548.3" style="enable-background:new 0 0 1474 548.3;" xml:space="preserve">
<style type="text/css">
	.st0{fill:none;stroke:#007BFF;stroke-miterlimit:10;}
	.st1{fill:#007BFF;}
	.st2{fill:#082E51;}
	.st3{fill:#FFFFFF;}
</style>
<path d="M1296.6,3728.3c6.2,0.8,12.5,1.7,18.7,2.5c-0.1,0.6-0.1,1.1-0.2,1.7c-6.3-0.6-12.5-1.3-18.8-1.9
	C1296.5,3729.7,1296.6,3729,1296.6,3728.3z"/>
<path class="st0" d="M1186.3,90.3H301.7c-4.3,0-7.7-3.4-7.7-7.7V38c0-4.3,3.4-7.7,7.7-7.7h884.6c4.3,0,7.7,3.4,7.7,7.7v44.6
	C1194,86.9,1190.6,90.3,1186.3,90.3z"/>
<path class="st0" d="M1398.6,426.3H289.7c-4.3,0-7.7-3.4-7.7-7.7V374c0-4.3,3.4-7.7,7.7-7.7h1108.9c4.3,0,7.7,3.4,7.7,7.7v44.6
	C1406.3,422.9,1402.8,426.3,1398.6,426.3z"/>
<path class="st0" d="M1398.6,154H527.7c-4.3,0-7.7-3.4-7.7-7.7v-44.6c0-4.3,3.4-7.7,7.7-7.7h870.9c4.3,0,7.7,3.4,7.7,7.7v44.6
	C1406.3,150.5,1402.8,154,1398.6,154z"/>
<path class="st0" d="M1398.6,217.7H770.4c-4.3,0-7.7-3.4-7.7-7.7v-44.6c0-4.3,3.4-7.7,7.7-7.7h628.2c4.3,0,7.7,3.4,7.7,7.7V210
	C1406.3,214.2,1402.8,217.7,1398.6,217.7z"/>
<path class="st1" d="M462,90.3H301.7c-4.3,0-7.7-3.4-7.7-7.7V38c0-4.3,3.4-7.7,7.7-7.7H462V90.3z"/>
<path class="st1" d="M450,426.3H289.7c-4.3,0-7.7-3.4-7.7-7.7V374c0-4.3,3.4-7.7,7.7-7.7H450V426.3z"/>
<path class="st1" d="M685.7,154H527.6c-4.2,0-7.6-3.4-7.6-7.7v-44.6c0-4.3,3.4-7.7,7.6-7.7h158.1V154z"/>
<path class="st1" d="M928.3,217.7H770.2c-4.2,0-7.6-3.4-7.6-7.7v-44.6c0-4.3,3.4-7.7,7.6-7.7h158.1V217.7z"/>
<path class="st2" d="M1004,30.3h181.3c4.8,0,8.7,3.4,8.7,7.7v44.6c0,4.3-3.9,7.7-8.7,7.7H1004V30.3z"/>
<path class="st2" d="M1229.7,94h168.5c4.5,0,8.1,3.4,8.1,7.7v44.6c0,4.3-3.6,7.7-8.1,7.7h-168.5V94z"/>
<path class="st2" d="M1229.7,366.3h168.5c4.5,0,8.1,3.4,8.1,7.7v44.6c0,4.3-3.6,7.7-8.1,7.7h-168.5V366.3z"/>
<rect x="516" y="366.3" class="st1" width="156" height="60"/>
<rect x="737" y="366.3" class="st1" width="183.6" height="60"/>
<rect x="986" y="366.3" class="st2" width="179" height="60"/>
<g>
	<path class="st2" d="M113.6,64.1c-0.7,3.8-3.6,6.3-8.1,6.3c-6,0-9.3-4.4-9.3-10.1c0-5.8,3.4-10.1,9.3-10.1c4.6,0,7.3,2.5,8,6.1
		h-3.2c-0.6-1.9-2.1-3.2-4.7-3.2c-4.3,0-6.1,3.4-6.1,7.2c0,3.9,1.8,7.4,6.1,7.4c2.7,0,4.3-1.3,4.8-3.5H113.6z"/>
	<path class="st2" d="M121.7,42.2v27.7h-3.2V42.2H121.7z"/>
	<path class="st2" d="M128,45.7v-3.5h3.4v3.5H128z M131.3,69.9H128V50.7h3.2V69.9z"/>
	<path class="st2" d="M154.3,60.3h-14.6c0.1,4.6,2.2,7.3,6.1,7.3c2.7,0,4.3-1.1,4.9-3h3.3c-0.6,3.3-3.4,5.8-8.2,5.8
		c-6,0-9.3-4.4-9.3-10.3c0-5.9,3.4-9.9,9.3-9.9c5.7,0,8.5,4.2,8.6,9V60.3z M139.9,57.5H151c-0.2-2.4-2.1-4.5-5.3-4.5
		C142.2,53,140.3,55.1,139.9,57.5z"/>
	<path class="st2" d="M173.2,69.9V58.4c0-3.5-1.6-5.3-4.9-5.3c-3.4,0-5.7,3-5.7,6.4v10.4h-3.2V50.7h3.1v2.1h0.8
		c1.1-1.5,3.2-2.6,5.8-2.6c4.7,0,7.3,2.9,7.3,7.5v12.2H173.2z"/>
	<path class="st2" d="M191.7,50.7v2.8h-4.8v10.6c0,1.9,0.8,2.9,3.4,2.9h1.4v2.9h-1.5c-4.2,0-6.6-1.3-6.6-5.4v-11h-3.3v-2.8h3.3v-5.8
		h3.2v5.8H191.7z"/>
	<path class="st2" d="M211.5,50.6l1.2-7.4h2.7l-1.2,7.4h5.2l1.2-7.4h2.7l-1.2,7.4h3.8v2.6h-4.2l-1,6.7h3.9v2.6h-4.3l-1.2,7.4h-2.7
		l1.2-7.4h-5.1l-1.2,7.4h-2.7l1.2-7.4h-3.8v-2.6h4.2l1.1-6.7h-3.9v-2.6H211.5z M212.8,59.9h5.1l1.1-6.7h-5.2L212.8,59.9z"/>
	<path class="st2" d="M229.5,66.9h6.3V46.7H235l-5.6,3.8V47l5.6-3.8h4.2v23.7h5.8v3h-15.5V66.9z"/>
</g>
<g>
	<path class="st2" d="M113.6,127.4c-0.7,3.8-3.6,6.3-8.1,6.3c-6,0-9.3-4.4-9.3-10.1c0-5.8,3.4-10.1,9.3-10.1c4.6,0,7.3,2.5,8,6.1
		h-3.2c-0.6-1.9-2.1-3.2-4.7-3.2c-4.3,0-6.1,3.4-6.1,7.2c0,3.9,1.8,7.4,6.1,7.4c2.7,0,4.3-1.3,4.8-3.5H113.6z"/>
	<path class="st2" d="M121.7,105.5v27.7h-3.2v-27.7H121.7z"/>
	<path class="st2" d="M128,109v-3.5h3.4v3.5H128z M131.3,133.2H128V114h3.2V133.2z"/>
	<path class="st2" d="M154.3,123.6h-14.6c0.1,4.6,2.2,7.3,6.1,7.3c2.7,0,4.3-1.1,4.9-3h3.3c-0.6,3.3-3.4,5.8-8.2,5.8
		c-6,0-9.3-4.4-9.3-10.3c0-5.9,3.4-9.9,9.3-9.9c5.7,0,8.5,4.2,8.6,9V123.6z M139.9,120.9H151c-0.2-2.4-2.1-4.5-5.3-4.5
		C142.2,116.3,140.3,118.4,139.9,120.9z"/>
	<path class="st2" d="M173.2,133.2v-11.5c0-3.5-1.6-5.3-4.9-5.3c-3.4,0-5.7,3-5.7,6.4v10.4h-3.2V114h3.1v2.1h0.8
		c1.1-1.5,3.2-2.6,5.8-2.6c4.7,0,7.3,2.9,7.3,7.5v12.2H173.2z"/>
	<path class="st2" d="M191.7,114v2.8h-4.8v10.6c0,1.9,0.8,2.9,3.4,2.9h1.4v2.9h-1.5c-4.2,0-6.6-1.3-6.6-5.4v-11h-3.3V114h3.3v-5.8
		h3.2v5.8H191.7z"/>
	<path class="st2" d="M211.5,113.9l1.2-7.4h2.7l-1.2,7.4h5.2l1.2-7.4h2.7l-1.2,7.4h3.8v2.6h-4.2l-1,6.7h3.9v2.6h-4.3l-1.2,7.4h-2.7
		l1.2-7.4h-5.1l-1.2,7.4h-2.7l1.2-7.4h-3.8v-2.6h4.2l1.1-6.7h-3.9v-2.6H211.5z M212.8,123.2h5.1l1.1-6.7h-5.2L212.8,123.2z"/>
	<path class="st2" d="M229.2,113.9c0.3-5.3,4.2-7.9,8.9-7.9c5,0,8.7,2.8,8.7,8.1c0,3.6-2.7,7-5.9,9.7l-6.7,5.6v0.8h13.5v3h-18.3
		v-3.8l3.9-3.2c2.1-1.7,4.7-3.9,6.1-5.1c1.8-1.6,4.2-3.8,4.2-7c0-3.4-2.1-5.1-5.4-5.1c-3,0-5.1,1.6-5.5,4.9H229.2z"/>
</g>
<g>
	<path class="st2" d="M113.6,191.4c-0.7,3.8-3.6,6.3-8.1,6.3c-6,0-9.3-4.4-9.3-10.1c0-5.8,3.4-10.1,9.3-10.1c4.6,0,7.3,2.5,8,6.1
		h-3.2c-0.6-1.9-2.1-3.2-4.7-3.2c-4.3,0-6.1,3.4-6.1,7.2c0,3.9,1.8,7.4,6.1,7.4c2.7,0,4.3-1.3,4.8-3.5H113.6z"/>
	<path class="st2" d="M121.7,169.5v27.7h-3.2v-27.7H121.7z"/>
	<path class="st2" d="M128,173v-3.5h3.4v3.5H128z M131.3,197.2H128V178h3.2V197.2z"/>
	<path class="st2" d="M154.3,187.6h-14.6c0.1,4.6,2.2,7.3,6.1,7.3c2.7,0,4.3-1.1,4.9-3h3.3c-0.6,3.3-3.4,5.8-8.2,5.8
		c-6,0-9.3-4.4-9.3-10.3c0-5.9,3.4-9.9,9.3-9.9c5.7,0,8.5,4.2,8.6,9V187.6z M139.9,184.9H151c-0.2-2.4-2.1-4.5-5.3-4.5
		C142.2,180.3,140.3,182.4,139.9,184.9z"/>
	<path class="st2" d="M173.2,197.2v-11.5c0-3.5-1.6-5.3-4.9-5.3c-3.4,0-5.7,3-5.7,6.4v10.4h-3.2V178h3.1v2.1h0.8
		c1.1-1.5,3.2-2.6,5.8-2.6c4.7,0,7.3,2.9,7.3,7.5v12.2H173.2z"/>
	<path class="st2" d="M191.7,178v2.8h-4.8v10.6c0,1.9,0.8,2.9,3.4,2.9h1.4v2.9h-1.5c-4.2,0-6.6-1.3-6.6-5.4v-11h-3.3V178h3.3v-5.8
		h3.2v5.8H191.7z"/>
	<path class="st2" d="M211.5,177.9l1.2-7.4h2.7l-1.2,7.4h5.2l1.2-7.4h2.7l-1.2,7.4h3.8v2.6h-4.2l-1,6.7h3.9v2.6h-4.3l-1.2,7.4h-2.7
		l1.2-7.4h-5.1l-1.2,7.4h-2.7l1.2-7.4h-3.8v-2.6h4.2l1.1-6.7h-3.9v-2.6H211.5z M212.8,187.2h5.1l1.1-6.7h-5.2L212.8,187.2z"/>
	<path class="st2" d="M245.8,170.5v3.7l-6.7,5.7v0.8c4.6,0.1,7.9,3,7.9,8.1c0,5.5-4,8.8-9.4,8.8c-5.4,0-9-3.4-9.3-8h3.4
		c0.3,3.1,2.8,5,6,5c3.7,0,6.1-2.2,6.1-5.8c0-3.5-2.1-5.7-6-5.7c-1,0-1.7,0.1-2.3,0.2v-3.5l6.5-5.6v-0.8h-11.7v-2.9H245.8z"/>
</g>
<g>
	<path class="st2" d="M475.9,384.3c5,0,7.8,2.6,7.8,6.9c0,4.3-2.8,6.9-7.8,6.9h-6.8v9.2h-2.9v-23H475.9z M475.4,395.5
		c3.9,0,5.3-1.6,5.3-4.3c0-2.7-1.4-4.3-5.3-4.3h-6.3v8.6H475.4z"/>
	<path class="st2" d="M487.3,404.7h5.3v-17H492l-4.7,3.2v-3l4.7-3.2h3.5v20h4.9v2.5h-13.1V404.7z"/>
</g>
<g>
	<path class="st2" d="M697.3,384.3c5,0,7.8,2.6,7.8,6.9c0,4.3-2.8,6.9-7.8,6.9h-6.8v9.2h-2.9v-23H697.3z M696.8,395.5
		c3.9,0,5.3-1.6,5.3-4.3c0-2.7-1.4-4.3-5.3-4.3h-6.3v8.6H696.8z"/>
	<path class="st2" d="M708.5,390.9c0.3-4.5,3.5-6.7,7.5-6.7c4.2,0,7.3,2.3,7.3,6.9c0,3.1-2.3,5.9-5,8.1l-5.7,4.8v0.7H724v2.5h-15.5
		v-3.2l3.3-2.7c1.8-1.4,3.9-3.2,5.1-4.3c1.5-1.4,3.5-3.2,3.5-5.9c0-2.8-1.8-4.3-4.5-4.3c-2.5,0-4.3,1.3-4.6,4.1H708.5z"/>
</g>
<g>
	<path class="st2" d="M944.9,384.3c5,0,7.8,2.6,7.8,6.9c0,4.3-2.8,6.9-7.8,6.9H938v9.2h-2.9v-23H944.9z M944.4,395.5
		c3.9,0,5.3-1.6,5.3-4.3c0-2.7-1.4-4.3-5.3-4.3H938v8.6H944.4z"/>
	<path class="st2" d="M970,384.7v3.2l-5.6,4.8v0.7c3.9,0.1,6.7,2.5,6.7,6.9c0,4.7-3.3,7.4-7.9,7.4c-4.6,0-7.6-2.9-7.9-6.7h2.8
		c0.3,2.6,2.3,4.2,5,4.2c3.1,0,5.1-1.8,5.1-4.9c0-3-1.8-4.8-5.1-4.8c-0.8,0-1.4,0.1-2,0.2v-3l5.5-4.8v-0.7h-9.8v-2.4H970z"/>
</g>
<g>
	<path class="st2" d="M1189.1,384.3c5,0,7.8,2.6,7.8,6.9c0,4.3-2.8,6.9-7.8,6.9h-6.8v9.2h-2.9v-23H1189.1z M1188.6,395.5
		c3.9,0,5.3-1.6,5.3-4.3c0-2.7-1.4-4.3-5.3-4.3h-6.3v8.6H1188.6z"/>
	<path class="st2" d="M1216.8,399.5v2.5h-3.1v5.3h-2.8V402h-11.1v-3.2l9.9-14h4v14.7H1216.8z M1211,399.5v-11.5h-0.7l-7.5,10.8v0.7
		H1211z"/>
</g>
<g>
	<path class="st2" d="M27.7,395.6l2.2,0.3c3.4,0.6,5.5,2.3,5.5,5.8c0,3.2-2.7,6-7.9,6c-5.5,0-8.1-2.4-8.5-6.1h3.3
		c0.3,2.2,2.2,3.2,5.1,3.2c2.9,0,4.8-1,4.8-3.1c0-1.7-1.1-2.6-3.5-3l-4.3-0.7c-2.7-0.5-4.6-1.9-4.6-4.8c0-3.2,2.4-5.7,7.6-5.7
		c4.5,0,7.2,2.1,7.6,5.5h-3.2c-0.3-1.8-2.1-2.7-4.5-2.7c-2.5,0-4.2,0.9-4.2,2.6c0,1.5,1,2.1,2.9,2.4L27.7,395.6z"/>
	<path class="st2" d="M52.3,405.2h-0.8c-1.2,1.5-3.2,2.5-6,2.5c-4.4,0-6.9-3-6.9-6.3c0-3.1,2-6.4,7.4-6.4h6.3v-0.8
		c0-2.3-1.3-4-4.7-4c-2.9,0-4.3,1.1-4.5,2.8h-3.2c0.3-3.5,3.3-5.6,7.6-5.6c4.8,0,7.9,2.3,7.9,6.6v13.1h-3.1V405.2z M52.2,399.5v-1.8
		h-5.8c-3.2,0-4.6,1.4-4.6,3.7c0,2.2,1.6,3.5,4.5,3.5C49.5,404.9,52.2,402.5,52.2,399.5z"/>
	<path class="st2" d="M64.6,379.5v27.7h-3.2v-27.7H64.6z"/>
	<path class="st2" d="M87.5,397.6H72.9c0.1,4.6,2.2,7.3,6.1,7.3c2.7,0,4.3-1.1,4.9-3h3.3c-0.6,3.3-3.4,5.8-8.2,5.8
		c-6,0-9.3-4.4-9.3-10.3c0-5.9,3.4-9.9,9.3-9.9c5.7,0,8.5,4.2,8.6,9V397.6z M73.1,394.9h11.1c-0.2-2.4-2.1-4.5-5.3-4.5
		C75.4,390.3,73.5,392.4,73.1,394.9z"/>
	<path class="st2" d="M99.7,395.6l2.2,0.3c3.4,0.6,5.5,2.3,5.5,5.8c0,3.2-2.7,6-7.9,6c-5.5,0-8.1-2.4-8.5-6.1h3.3
		c0.3,2.2,2.2,3.2,5.1,3.2c2.9,0,4.8-1,4.8-3.1c0-1.7-1.1-2.6-3.5-3l-4.3-0.7c-2.7-0.5-4.6-1.9-4.6-4.8c0-3.2,2.4-5.7,7.6-5.7
		c4.5,0,7.2,2.1,7.6,5.5h-3.2c-0.3-1.8-2.1-2.7-4.5-2.7c-2.5,0-4.2,0.9-4.2,2.6c0,1.5,1,2.1,2.9,2.4L99.7,395.6z"/>
	<path class="st2" d="M138.7,394.8v12.4h-3.2v-12.1c0-3.2-1.2-4.7-3.7-4.7c-3,0-4.7,2.3-4.7,5.6v11.3h-3.2v-12
		c0-3.2-1.3-4.8-3.7-4.8c-3.2,0-4.7,2.7-4.7,6.2v10.6h-3.2V388h3.1v1.9h0.8c1-1.5,2.4-2.4,4.9-2.4c2.3,0,4,0.8,5.1,2.6h0.8
		c1.2-1.7,3-2.6,5.4-2.6C136.8,387.5,138.7,390.4,138.7,394.8z"/>
	<path class="st2" d="M156.9,405.2H156c-1.2,1.5-3.2,2.5-6,2.5c-4.4,0-6.9-3-6.9-6.3c0-3.1,2-6.4,7.4-6.4h6.3v-0.8
		c0-2.3-1.3-4-4.7-4c-2.9,0-4.3,1.1-4.5,2.8h-3.2c0.3-3.5,3.3-5.6,7.6-5.6c4.8,0,7.9,2.3,7.9,6.6v13.1h-3.1V405.2z M156.7,399.5
		v-1.8H151c-3.2,0-4.6,1.4-4.6,3.7c0,2.2,1.6,3.5,4.5,3.5C154,404.9,156.7,402.5,156.7,399.5z"/>
	<path class="st2" d="M179.7,407.2v-11.5c0-3.5-1.6-5.3-4.9-5.3c-3.4,0-5.7,3-5.7,6.4v10.4h-3.2V388h3.1v2.1h0.8
		c1.1-1.5,3.2-2.6,5.8-2.6c4.7,0,7.3,2.9,7.3,7.5v12.2H179.7z"/>
	<path class="st2" d="M203.4,387.9l1.2-7.4h2.7l-1.2,7.4h5.2l1.2-7.4h2.7l-1.2,7.4h3.8v2.6h-4.2l-1,6.7h3.9v2.6h-4.3l-1.2,7.4h-2.7
		l1.2-7.4h-5.1l-1.2,7.4h-2.7l1.2-7.4h-3.8v-2.6h4.2l1.1-6.7h-3.9v-2.6H203.4z M204.6,397.2h5.1l1.1-6.7h-5.2L204.6,397.2z"/>
	<path class="st2" d="M221.3,404.3h6.3V384h-0.8l-5.6,3.8v-3.5l5.6-3.8h4.2v23.7h5.8v3h-15.5V404.3z"/>
</g>
<g>
	<path class="st2" d="M312.9,478.5c5.7,0,8.8,2.9,8.8,7.8c0,4.9-3.1,7.8-8.8,7.8h-7.7v10.4h-3.3v-26.1H312.9z M312.3,491.2
		c4.5,0,6.1-1.9,6.1-4.9s-1.6-4.9-6.1-4.9h-7.2v9.8H312.3z"/>
	<path class="st2" d="M325.7,501.8h6.1v-19.3h-0.7l-5.4,3.6v-3.4l5.3-3.6h4v22.7h5.6v2.8h-14.9V501.8z"/>
	<path class="st2" d="M353.9,495.8v-2.7h10v2.7H353.9z"/>
	<path class="st2" d="M394.4,499.1c-0.7,3.6-3.5,6-7.7,6c-5.7,0-8.9-4.2-8.9-9.7c0-5.5,3.2-9.7,8.9-9.7c4.4,0,7,2.4,7.6,5.8h-3.1
		c-0.6-1.9-2-3.1-4.5-3.1c-4.2,0-5.8,3.2-5.8,6.9c0,3.7,1.7,7,5.8,7c2.6,0,4.2-1.3,4.6-3.3H394.4z"/>
	<path class="st2" d="M416,495.4c0,5.4-3.3,9.7-9.1,9.7c-5.8,0-9.1-4.2-9.1-9.7s3.3-9.7,9.1-9.7C412.6,485.7,416,490,416,495.4z
		 M412.9,495.4c0-3.6-1.9-7-5.9-7c-4.1,0-5.9,3.4-5.9,7s1.9,7,5.9,7C411,502.4,412.9,499,412.9,495.4z"/>
	<path class="st2" d="M437.8,495.4c0,5.4-3.3,9.7-9.1,9.7c-5.8,0-9.1-4.2-9.1-9.7s3.3-9.7,9.1-9.7
		C434.5,485.7,437.8,490,437.8,495.4z M434.7,495.4c0-3.6-1.9-7-5.9-7c-4.1,0-5.9,3.4-5.9,7s1.9,7,5.9,7
		C432.8,502.4,434.7,499,434.7,495.4z"/>
	<path class="st2" d="M456,504.6l-5.3-10H450l-4.2,4.7v5.3h-3.1v-26.5h3.1v17.4l8.7-9.2h3.7l-5.3,5.7l6.5,12.7H456z"/>
	<path class="st2" d="M462.8,481.4v-3.4h3.3v3.4H462.8z M466,504.6h-3.1v-18.4h3.1V504.6z"/>
	<path class="st2" d="M485.4,504.6v-11c0-3.4-1.6-5.1-4.7-5.1c-3.3,0-5.5,2.9-5.5,6.1v10h-3.1v-18.4h3v2h0.8c1-1.4,3.1-2.4,5.5-2.4
		c4.5,0,7,2.8,7,7.2v11.7H485.4z"/>
	<path class="st2" d="M510.6,486.2v17.5c0,5.1-3.2,8.5-8.6,8.5c-4.7,0-7.8-2-8.3-5.6h3.1c0.5,2.2,2.4,3,5.2,3c3.8,0,5.5-2.3,5.5-6
		v-1.5h-0.8c-1,1.3-2.7,2.4-5.5,2.4c-5.1,0-8.2-4-8.2-9.4c0-5.4,3.1-9.4,8.2-9.4c2.9,0,4.6,1.2,5.6,2.4h0.8v-2H510.6z M507.6,495.1
		c0-3.5-1.9-6.7-5.8-6.7c-3.6,0-5.7,2.7-5.7,6.7c0,4,2,6.7,5.7,6.7C505.7,501.8,507.6,498.7,507.6,495.1z"/>
	<path class="st2" d="M529.7,486.2v2h0.8c1-1.3,2.8-2.4,5.7-2.4c5.1,0,8.1,4.2,8.1,9.7c0,5.5-3,9.7-8.1,9.7c-2.9,0-4.6-1.1-5.6-2.4
		h-0.8v9.3h-3.1v-25.7H529.7z M529.8,495.4c0,3.6,1.7,7,5.8,7c3.7,0,5.7-2.9,5.7-7s-2-7-5.7-7C531.5,488.4,529.8,491.8,529.8,495.4z
		"/>
	<path class="st2" d="M549.2,481.4v-3.4h3.3v3.4H549.2z M552.4,504.6h-3.1v-18.4h3.1V504.6z"/>
	<path class="st2" d="M557.2,504.6v-3.5l11.2-11.4v-0.8h-10.6v-2.7h14.6v3.5l-11.2,11.4v0.8h11.3v2.7H557.2z"/>
	<path class="st2" d="M576,504.6v-3.5l11.2-11.4v-0.8h-10.6v-2.7h14.6v3.5L580,501.1v0.8h11.3v2.7H576z"/>
	<path class="st2" d="M607.8,502.7H607c-1.1,1.4-3.1,2.4-5.7,2.4c-4.2,0-6.6-2.8-6.6-6c0-3,1.9-6.1,7-6.1h6v-0.7
		c0-2.2-1.3-3.8-4.5-3.8c-2.7,0-4.1,1.1-4.3,2.7h-3.1c0.3-3.4,3.2-5.4,7.3-5.4c4.6,0,7.6,2.2,7.6,6.4v12.5h-2.9V502.7z M607.7,497.2
		v-1.7h-5.5c-3,0-4.4,1.3-4.4,3.5c0,2.1,1.5,3.4,4.3,3.4C605.1,502.4,607.7,500.1,607.7,497.2z"/>
	<path class="st2" d="M630.8,488.9v15.7h-3.1v-15.7h-3.2v-2.7h3.2v-2.1c0-4.2,2.3-6,6.3-6h1.8v2.7h-1.8c-2.4,0-3.2,1.5-3.2,3.4v2h5
		v2.7H630.8z"/>
	<path class="st2" d="M656.4,495.4c0,5.4-3.3,9.7-9.1,9.7c-5.8,0-9.1-4.2-9.1-9.7s3.3-9.7,9.1-9.7
		C653.1,485.7,656.4,490,656.4,495.4z M653.3,495.4c0-3.6-1.9-7-5.9-7c-4.1,0-5.9,3.4-5.9,7s1.9,7,5.9,7
		C651.4,502.4,653.3,499,653.3,495.4z"/>
	<path class="st2" d="M671.8,489.1h-1.5c-3.6,0-5.9,2.2-5.9,6.3v9.2h-3.1v-18.4h3v2.2h0.8c0.9-1.1,2.7-2.2,5.3-2.2h1.4V489.1z"/>
	<path class="st2" d="M701.6,499.1c-0.7,3.6-3.5,6-7.7,6c-5.7,0-8.9-4.2-8.9-9.7c0-5.5,3.2-9.7,8.9-9.7c4.4,0,7,2.4,7.6,5.8h-3.1
		c-0.6-1.9-2-3.1-4.5-3.1c-4.2,0-5.8,3.2-5.8,6.9c0,3.7,1.7,7,5.8,7c2.6,0,4.2-1.3,4.6-3.3H701.6z"/>
	<path class="st2" d="M709.3,478.1v26.5h-3.1v-26.5H709.3z"/>
	<path class="st2" d="M715.3,481.4v-3.4h3.3v3.4H715.3z M718.5,504.6h-3.1v-18.4h3.1V504.6z"/>
	<path class="st2" d="M740.5,495.4h-14c0.1,4.4,2.1,7,5.9,7c2.6,0,4.1-1.1,4.7-2.8h3.1c-0.6,3.1-3.2,5.5-7.8,5.5
		c-5.7,0-8.9-4.2-8.9-9.9c0-5.7,3.3-9.5,8.9-9.5c5.5,0,8.1,4.1,8.2,8.6V495.4z M726.7,492.8h10.6c-0.2-2.3-2-4.3-5.1-4.3
		C728.9,488.4,727.1,490.4,726.7,492.8z"/>
	<path class="st2" d="M758.6,504.6v-11c0-3.4-1.6-5.1-4.7-5.1c-3.3,0-5.5,2.9-5.5,6.1v10h-3.1v-18.4h3v2h0.8c1-1.4,3.1-2.4,5.5-2.4
		c4.5,0,7,2.8,7,7.2v11.7H758.6z"/>
	<path class="st2" d="M776.3,486.2v2.7h-4.6V499c0,1.9,0.8,2.8,3.3,2.8h1.4v2.8h-1.4c-4,0-6.3-1.2-6.3-5.1v-10.5h-3.2v-2.7h3.2v-5.5
		h3.1v5.5H776.3z"/>
	<path class="st2" d="M795.2,486.1l1.1-7.1h2.6l-1.1,7.1h5l1.1-7.1h2.6l-1.1,7.1h3.6v2.5H805l-1,6.4h3.7v2.5h-4.1l-1.1,7.1h-2.6
		l1.1-7.1H796l-1.1,7.1h-2.6l1.1-7.1h-3.7V495h4.1l1-6.4h-3.7v-2.5H795.2z M796.4,495h4.9l1-6.4h-5L796.4,495z"/>
	<path class="st2" d="M822.6,501.8h6.1v-19.3h-0.7l-5.4,3.6v-3.4l5.3-3.6h4v22.7h5.6v2.8h-14.9V501.8z"/>
	<path class="st2" d="M841.6,504.6v-4.2h3.8v4.9l-2,3.5h-2l2-3.5v-0.7H841.6z"/>
	<path class="st2" d="M872.7,478.5c5.7,0,8.8,2.9,8.8,7.8c0,4.9-3.1,7.8-8.8,7.8H865v10.4h-3.3v-26.1H872.7z M872.2,491.2
		c4.5,0,6.1-1.9,6.1-4.9s-1.6-4.9-6.1-4.9H865v9.8H872.2z"/>
	<path class="st2" d="M885.4,486.1c0.3-5.1,4-7.6,8.5-7.6c4.8,0,8.3,2.7,8.3,7.8c0,3.5-2.6,6.7-5.7,9.2l-6.4,5.4v0.8H903v2.8h-17.6
		V501l3.8-3.1c2-1.6,4.5-3.7,5.8-4.9c1.8-1.6,4-3.7,4-6.7c0-3.2-2-4.9-5.1-4.9c-2.9,0-4.9,1.5-5.2,4.7H885.4z"/>
	<path class="st2" d="M916.6,495.8v-2.7h10v2.7H916.6z"/>
	<path class="st2" d="M945.8,488.9v15.7h-3.1v-15.7h-3.2v-2.7h3.2v-2.1c0-4.2,2.3-6,6.3-6h1.8v2.7H949c-2.4,0-3.2,1.5-3.2,3.4v2h5
		v2.7H945.8z"/>
	<path class="st2" d="M971.4,495.4c0,5.4-3.3,9.7-9.1,9.7c-5.8,0-9.1-4.2-9.1-9.7s3.3-9.7,9.1-9.7
		C968.1,485.7,971.4,490,971.4,495.4z M968.3,495.4c0-3.6-1.9-7-5.9-7c-4.1,0-5.9,3.4-5.9,7s1.9,7,5.9,7
		C966.4,502.4,968.3,499,968.3,495.4z"/>
	<path class="st2" d="M986.8,489.1h-1.5c-3.6,0-5.9,2.2-5.9,6.3v9.2h-3.1v-18.4h3v2.2h0.8c0.9-1.1,2.7-2.2,5.3-2.2h1.4V489.1z"/>
	<path class="st2" d="M1016.5,499.1c-0.7,3.6-3.5,6-7.7,6c-5.7,0-8.9-4.2-8.9-9.7c0-5.5,3.2-9.7,8.9-9.7c4.4,0,7,2.4,7.6,5.8h-3.1
		c-0.6-1.9-2-3.1-4.5-3.1c-4.2,0-5.8,3.2-5.8,6.9c0,3.7,1.7,7,5.8,7c2.6,0,4.2-1.3,4.6-3.3H1016.5z"/>
	<path class="st2" d="M1024.3,478.1v26.5h-3.1v-26.5H1024.3z"/>
	<path class="st2" d="M1030.2,481.4v-3.4h3.3v3.4H1030.2z M1033.4,504.6h-3.1v-18.4h3.1V504.6z"/>
	<path class="st2" d="M1055.5,495.4h-14c0.1,4.4,2.1,7,5.9,7c2.6,0,4.1-1.1,4.7-2.8h3.1c-0.6,3.1-3.2,5.5-7.8,5.5
		c-5.7,0-8.9-4.2-8.9-9.9c0-5.7,3.3-9.5,8.9-9.5c5.5,0,8.1,4.1,8.2,8.6V495.4z M1041.6,492.8h10.6c-0.2-2.3-2-4.3-5.1-4.3
		C1043.9,488.4,1042,490.4,1041.6,492.8z"/>
	<path class="st2" d="M1073.5,504.6v-11c0-3.4-1.6-5.1-4.7-5.1c-3.3,0-5.5,2.9-5.5,6.1v10h-3.1v-18.4h3v2h0.8c1-1.4,3.1-2.4,5.5-2.4
		c4.5,0,7,2.8,7,7.2v11.7H1073.5z"/>
	<path class="st2" d="M1091.2,486.2v2.7h-4.6V499c0,1.9,0.8,2.8,3.3,2.8h1.4v2.8h-1.4c-4,0-6.3-1.2-6.3-5.1v-10.5h-3.2v-2.7h3.2
		v-5.5h3.1v5.5H1091.2z"/>
	<path class="st2" d="M1110.2,486.1l1.1-7.1h2.6l-1.1,7.1h5l1.1-7.1h2.6l-1.1,7.1h3.6v2.5h-4.1l-1,6.4h3.7v2.5h-4.1l-1.1,7.1h-2.6
		l1.1-7.1h-4.9l-1.1,7.1h-2.6l1.1-7.1h-3.7V495h4.1l1-6.4h-3.7v-2.5H1110.2z M1111.4,495h4.9l1-6.4h-5L1111.4,495z"/>
	<path class="st2" d="M1137.3,486.1c0.3-5.1,4-7.6,8.5-7.6c4.8,0,8.3,2.7,8.3,7.8c0,3.5-2.6,6.7-5.7,9.2l-6.4,5.4v0.8h12.9v2.8
		h-17.6V501l3.8-3.1c2-1.6,4.5-3.7,5.8-4.9c1.8-1.6,4-3.7,4-6.7c0-3.2-2-4.9-5.1-4.9c-2.9,0-4.9,1.5-5.2,4.7H1137.3z"/>
	<path class="st2" d="M1159.4,504.6v-4.2h3.8v4.9l-2,3.5h-2l2-3.5v-0.7H1159.4z"/>
	<path class="st2" d="M1190.9,502.7h-0.8c-1.1,1.4-3.1,2.4-5.7,2.4c-4.2,0-6.6-2.8-6.6-6c0-3,1.9-6.1,7-6.1h6v-0.7
		c0-2.2-1.3-3.8-4.5-3.8c-2.7,0-4.1,1.1-4.3,2.7h-3.1c0.3-3.4,3.2-5.4,7.3-5.4c4.6,0,7.6,2.2,7.6,6.4v12.5h-2.9V502.7z
		 M1190.8,497.2v-1.7h-5.5c-3,0-4.4,1.3-4.4,3.5c0,2.1,1.5,3.4,4.3,3.4C1188.2,502.4,1190.8,500.1,1190.8,497.2z"/>
	<path class="st2" d="M1212.8,504.6v-11c0-3.4-1.6-5.1-4.7-5.1c-3.3,0-5.5,2.9-5.5,6.1v10h-3.1v-18.4h3v2h0.8c1-1.4,3.1-2.4,5.5-2.4
		c4.5,0,7,2.8,7,7.2v11.7H1212.8z"/>
	<path class="st2" d="M1238,478.1v26.5h-3v-2h-0.8c-1,1.3-2.8,2.4-5.7,2.4c-5.1,0-8.1-4.2-8.1-9.7c0-5.5,3-9.7,8.1-9.7
		c2.9,0,4.6,1.1,5.6,2.4h0.8v-10.1H1238z M1234.9,495.4c0-3.6-1.7-7-5.8-7c-3.7,0-5.7,2.9-5.7,7s2,7,5.7,7
		C1233.3,502.4,1234.9,499,1234.9,495.4z"/>
	<path class="st2" d="M1261,493.4l2.1,0.3c3.2,0.5,5.3,2.2,5.3,5.5c0,3-2.6,5.8-7.6,5.8c-5.2,0-7.8-2.3-8.2-5.8h3.1
		c0.3,2.1,2.1,3.1,4.9,3.1c2.8,0,4.6-1,4.6-3c0-1.6-1-2.5-3.4-2.9l-4.1-0.7c-2.6-0.5-4.4-1.9-4.4-4.6c0-3.1,2.3-5.4,7.3-5.4
		c4.3,0,6.9,2,7.3,5.3h-3.1c-0.3-1.8-2-2.6-4.3-2.6c-2.4,0-4,0.9-4,2.4c0,1.4,0.9,2,2.8,2.3L1261,493.4z"/>
	<path class="st2" d="M1289.9,495.4c0,5.4-3.3,9.7-9.1,9.7c-5.8,0-9.1-4.2-9.1-9.7s3.3-9.7,9.1-9.7
		C1286.6,485.7,1289.9,490,1289.9,495.4z M1286.8,495.4c0-3.6-1.9-7-5.9-7c-4.1,0-5.9,3.4-5.9,7s1.9,7,5.9,7
		C1284.9,502.4,1286.8,499,1286.8,495.4z"/>
	<path class="st2" d="M1321.9,495.4c0,5.4-3.3,9.7-9.1,9.7c-5.8,0-9.1-4.2-9.1-9.7s3.3-9.7,9.1-9.7
		C1318.5,485.7,1321.9,490,1321.9,495.4z M1318.7,495.4c0-3.6-1.9-7-5.9-7c-4.1,0-5.9,3.4-5.9,7s1.9,7,5.9,7
		C1316.9,502.4,1318.7,499,1318.7,495.4z"/>
	<path class="st2" d="M1340,504.6v-11c0-3.4-1.6-5.1-4.7-5.1c-3.3,0-5.5,2.9-5.5,6.1v10h-3.1v-18.4h3v2h0.8c1-1.4,3.1-2.4,5.5-2.4
		c4.5,0,7,2.8,7,7.2v11.7H1340z"/>
	<path class="st2" d="M1358.7,504.6v-4.2h3.8v4.2H1358.7z"/>
	<path class="st2" d="M1368.1,504.6v-4.2h3.8v4.2H1368.1z"/>
	<path class="st2" d="M1377.6,504.6v-4.2h3.8v4.2H1377.6z"/>
</g>
<g>
	<path class="st2" d="M621.4,57l3.2,9.5h0.8l2.2-15.8h3.1L628,69.9h-5l-3.4-9.7h-0.8l-3.4,9.7h-5l-2.7-19.2h3.1l2.3,15.8h0.8
		l3.3-9.5H621.4z"/>
	<path class="st2" d="M647.8,67.9H647c-1.2,1.5-3.2,2.5-6,2.5c-4.4,0-6.9-3-6.9-6.3c0-3.1,2-6.4,7.4-6.4h6.3V57c0-2.3-1.3-4-4.7-4
		c-2.9,0-4.3,1.1-4.5,2.8h-3.2c0.3-3.5,3.3-5.6,7.6-5.6c4.8,0,7.9,2.3,7.9,6.6v13.1h-3.1V67.9z M647.7,62.1v-1.8h-5.8
		c-3.2,0-4.6,1.4-4.6,3.7c0,2.2,1.6,3.5,4.5,3.5C645,67.6,647.7,65.2,647.7,62.1z"/>
	<path class="st2" d="M656.8,45.7v-3.5h3.4v3.5H656.8z M660.1,69.9h-3.2V50.7h3.2V69.9z"/>
	<path class="st2" d="M675.8,50.7v2.8H671v10.6c0,1.9,0.8,2.9,3.4,2.9h1.4v2.9h-1.5c-4.2,0-6.6-1.3-6.6-5.4v-11h-3.3v-2.8h3.3v-5.8
		h3.2v5.8H675.8z"/>
	<path class="st2" d="M681.1,45.7v-3.5h3.4v3.5H681.1z M684.5,69.9h-3.2V50.7h3.2V69.9z"/>
	<path class="st2" d="M704.7,69.9V58.4c0-3.5-1.6-5.3-4.9-5.3c-3.4,0-5.7,3-5.7,6.4v10.4h-3.2V50.7h3.1v2.1h0.8
		c1.1-1.5,3.2-2.6,5.8-2.6c4.7,0,7.3,2.9,7.3,7.5v12.2H704.7z"/>
	<path class="st2" d="M731.1,50.7V69c0,5.4-3.4,8.9-9,8.9c-4.9,0-8.1-2.1-8.7-5.9h3.2c0.6,2.3,2.6,3.1,5.5,3.1c4,0,5.8-2.4,5.8-6.3
		v-1.5H727c-1,1.3-2.9,2.6-5.8,2.6c-5.3,0-8.5-4.2-8.5-9.8c0-5.6,3.2-9.8,8.5-9.8c3,0,4.8,1.2,5.9,2.6h0.8v-2.1H731.1z M727.9,60
		c0-3.7-1.9-7-6.1-7c-3.8,0-5.9,2.8-5.9,7c0,4.2,2.1,7,5.9,7C726,67,727.9,63.7,727.9,60z"/>
	<path class="st2" d="M752.4,53.5v16.4h-3.2V53.5h-3.3v-2.8h3.3v-2.2c0-4.4,2.4-6.3,6.6-6.3h1.9V45h-1.8c-2.6,0-3.4,1.6-3.4,3.6v2.1
		h5.2v2.8H752.4z"/>
	<path class="st2" d="M779.2,60.3c0,5.7-3.5,10.1-9.5,10.1c-6,0-9.5-4.4-9.5-10.1c0-5.7,3.4-10.1,9.5-10.1
		C775.7,50.2,779.2,54.6,779.2,60.3z M775.9,60.3c0-3.8-2-7.3-6.2-7.3c-4.3,0-6.2,3.5-6.2,7.3c0,3.8,1.9,7.3,6.2,7.3
		C774,67.6,775.9,64.1,775.9,60.3z"/>
	<path class="st2" d="M795.2,53.7h-1.6c-3.8,0-6.1,2.3-6.1,6.6v9.6h-3.2V50.7h3.1V53h0.8c1-1.2,2.8-2.3,5.6-2.3h1.5V53.7z"/>
	<path class="st2" d="M813.2,50.7v2.1h0.8c1.1-1.3,2.9-2.6,6-2.6c5.3,0,8.4,4.4,8.4,10.1c0,5.8-3.1,10.1-8.4,10.1
		c-3.1,0-4.8-1.2-5.9-2.6h-0.8v9.7h-3.2V50.7H813.2z M813.3,60.3c0,3.8,1.8,7.3,6,7.3c3.9,0,5.9-3,5.9-7.3s-2.1-7.3-5.9-7.3
		C815,53,813.3,56.5,813.3,60.3z"/>
	<path class="st2" d="M833.5,45.7v-3.5h3.4v3.5H833.5z M836.9,69.9h-3.2V50.7h3.2V69.9z"/>
	<path class="st2" d="M841.9,69.9v-3.7l11.7-11.9v-0.8h-11.1v-2.8h15.2v3.6l-11.7,11.9v0.8h11.8v2.8H841.9z"/>
	<path class="st2" d="M861.6,69.9v-3.7l11.7-11.9v-0.8h-11.1v-2.8h15.2v3.6l-11.7,11.9v0.8h11.8v2.8H861.6z"/>
	<path class="st2" d="M894.8,67.9h-0.8c-1.2,1.5-3.2,2.5-6,2.5c-4.4,0-6.9-3-6.9-6.3c0-3.1,2-6.4,7.4-6.4h6.3V57c0-2.3-1.3-4-4.7-4
		c-2.9,0-4.3,1.1-4.5,2.8h-3.2c0.3-3.5,3.3-5.6,7.6-5.6c4.8,0,7.9,2.3,7.9,6.6v13.1h-3.1V67.9z M894.7,62.1v-1.8h-5.8
		c-3.2,0-4.6,1.4-4.6,3.7c0,2.2,1.6,3.5,4.5,3.5C891.9,67.6,894.7,65.2,894.7,62.1z"/>
	<path class="st2" d="M913.1,60.8v-2.9h10.4v2.9H913.1z"/>
	<path class="st2" d="M928.7,65.9l14.8-6.4v-0.8l-14.8-6.4v-2.9l19.2,8.4v2.6l-19.2,8.4V65.9z"/>
</g>
<g>
	<path class="st2" d="M786.4,120.3l3.2,9.5h0.8l2.2-15.8h3.1l-2.8,19.2h-5l-3.4-9.7h-0.8l-3.4,9.7h-5l-2.7-19.2h3.1l2.3,15.8h0.8
		l3.3-9.5H786.4z"/>
	<path class="st2" d="M812.8,131.2H812c-1.2,1.5-3.2,2.5-6,2.5c-4.4,0-6.9-3-6.9-6.3c0-3.1,2-6.4,7.4-6.4h6.3v-0.8
		c0-2.3-1.3-4-4.7-4c-2.9,0-4.3,1.1-4.5,2.8h-3.2c0.3-3.5,3.3-5.6,7.6-5.6c4.8,0,7.9,2.3,7.9,6.6v13.1h-3.1V131.2z M812.7,125.5
		v-1.8h-5.8c-3.2,0-4.6,1.4-4.6,3.7c0,2.2,1.6,3.5,4.5,3.5C810,130.9,812.7,128.5,812.7,125.5z"/>
	<path class="st2" d="M821.8,109v-3.5h3.4v3.5H821.8z M825.1,133.2h-3.2V114h3.2V133.2z"/>
	<path class="st2" d="M840.8,114v2.8H836v10.6c0,1.9,0.8,2.9,3.4,2.9h1.4v2.9h-1.5c-4.2,0-6.6-1.3-6.6-5.4v-11h-3.3V114h3.3v-5.8
		h3.2v5.8H840.8z"/>
	<path class="st2" d="M846.1,109v-3.5h3.4v3.5H846.1z M849.5,133.2h-3.2V114h3.2V133.2z"/>
	<path class="st2" d="M869.7,133.2v-11.5c0-3.5-1.6-5.3-4.9-5.3c-3.4,0-5.7,3-5.7,6.4v10.4h-3.2V114h3.1v2.1h0.8
		c1.1-1.5,3.2-2.6,5.8-2.6c4.7,0,7.3,2.9,7.3,7.5v12.2H869.7z"/>
	<path class="st2" d="M896.1,114v18.3c0,5.4-3.4,8.9-9,8.9c-4.9,0-8.1-2.1-8.7-5.9h3.2c0.6,2.3,2.6,3.1,5.5,3.1c4,0,5.8-2.4,5.8-6.3
		v-1.5H892c-1,1.3-2.9,2.6-5.8,2.6c-5.3,0-8.5-4.2-8.5-9.8c0-5.6,3.2-9.8,8.5-9.8c3,0,4.8,1.2,5.9,2.6h0.8V114H896.1z M892.9,123.4
		c0-3.7-1.9-7-6.1-7c-3.8,0-5.9,2.8-5.9,7c0,4.2,2.1,7,5.9,7C891,130.3,892.9,127,892.9,123.4z"/>
	<path class="st2" d="M917.4,116.8v16.4h-3.2v-16.4h-3.3V114h3.3v-2.2c0-4.4,2.4-6.3,6.6-6.3h1.9v2.8h-1.8c-2.6,0-3.4,1.6-3.4,3.6
		v2.1h5.2v2.8H917.4z"/>
	<path class="st2" d="M944.2,123.6c0,5.7-3.5,10.1-9.5,10.1c-6,0-9.5-4.4-9.5-10.1c0-5.7,3.4-10.1,9.5-10.1
		C940.7,113.5,944.2,117.9,944.2,123.6z M940.9,123.6c0-3.8-2-7.3-6.2-7.3c-4.3,0-6.2,3.5-6.2,7.3c0,3.8,1.9,7.3,6.2,7.3
		C939,130.9,940.9,127.4,940.9,123.6z"/>
	<path class="st2" d="M960.2,117.1h-1.6c-3.8,0-6.1,2.3-6.1,6.6v9.6h-3.2V114h3.1v2.3h0.8c1-1.2,2.8-2.3,5.6-2.3h1.5V117.1z"/>
	<path class="st2" d="M978.2,114v2.1h0.8c1.1-1.3,2.9-2.6,6-2.6c5.3,0,8.4,4.4,8.4,10.1c0,5.8-3.1,10.1-8.4,10.1
		c-3.1,0-4.8-1.2-5.9-2.6h-0.8v9.7h-3.2V114H978.2z M978.3,123.6c0,3.8,1.8,7.3,6,7.3c3.9,0,5.9-3,5.9-7.3s-2.1-7.3-5.9-7.3
		C980,116.3,978.3,119.9,978.3,123.6z"/>
	<path class="st2" d="M998.5,109v-3.5h3.4v3.5H998.5z M1001.9,133.2h-3.2V114h3.2V133.2z"/>
	<path class="st2" d="M1006.9,133.2v-3.7l11.7-11.9v-0.8h-11.1V114h15.2v3.6l-11.7,11.9v0.8h11.8v2.8H1006.9z"/>
	<path class="st2" d="M1026.6,133.2v-3.7l11.7-11.9v-0.8h-11.1V114h15.2v3.6l-11.7,11.9v0.8h11.8v2.8H1026.6z"/>
	<path class="st2" d="M1059.8,131.2h-0.8c-1.2,1.5-3.2,2.5-6,2.5c-4.4,0-6.9-3-6.9-6.3c0-3.1,2-6.4,7.4-6.4h6.3v-0.8
		c0-2.3-1.3-4-4.7-4c-2.9,0-4.3,1.1-4.5,2.8h-3.2c0.3-3.5,3.3-5.6,7.6-5.6c4.8,0,7.9,2.3,7.9,6.6v13.1h-3.1V131.2z M1059.7,125.5
		v-1.8h-5.8c-3.2,0-4.6,1.4-4.6,3.7c0,2.2,1.6,3.5,4.5,3.5C1056.9,130.9,1059.7,128.5,1059.7,125.5z"/>
	<path class="st2" d="M1078.1,124.1v-2.9h10.4v2.9H1078.1z"/>
	<path class="st2" d="M1093.7,129.3l14.8-6.4V122l-14.8-6.4v-2.9l19.2,8.4v2.6l-19.2,8.4V129.3z"/>
</g>
<g>
	<path class="st2" d="M1013.4,184.3l3.2,9.5h0.8l2.2-15.8h3.1l-2.8,19.2h-5l-3.4-9.7h-0.8l-3.4,9.7h-5l-2.7-19.2h3.1l2.3,15.8h0.8
		l3.3-9.5H1013.4z"/>
	<path class="st2" d="M1039.8,195.2h-0.8c-1.2,1.5-3.2,2.5-6,2.5c-4.4,0-6.9-3-6.9-6.3c0-3.1,2-6.4,7.4-6.4h6.3v-0.8
		c0-2.3-1.3-4-4.7-4c-2.9,0-4.3,1.1-4.5,2.8h-3.2c0.3-3.5,3.3-5.6,7.6-5.6c4.8,0,7.9,2.3,7.9,6.6v13.1h-3.1V195.2z M1039.7,189.5
		v-1.8h-5.8c-3.2,0-4.6,1.4-4.6,3.7c0,2.2,1.6,3.5,4.5,3.5C1037,194.9,1039.7,192.5,1039.7,189.5z"/>
	<path class="st2" d="M1048.8,173v-3.5h3.4v3.5H1048.8z M1052.1,197.2h-3.2V178h3.2V197.2z"/>
	<path class="st2" d="M1067.8,178v2.8h-4.8v10.6c0,1.9,0.8,2.9,3.4,2.9h1.4v2.9h-1.5c-4.2,0-6.6-1.3-6.6-5.4v-11h-3.3V178h3.3v-5.8
		h3.2v5.8H1067.8z"/>
	<path class="st2" d="M1073.1,173v-3.5h3.4v3.5H1073.1z M1076.5,197.2h-3.2V178h3.2V197.2z"/>
	<path class="st2" d="M1096.7,197.2v-11.5c0-3.5-1.6-5.3-4.9-5.3c-3.4,0-5.7,3-5.7,6.4v10.4h-3.2V178h3.1v2.1h0.8
		c1.1-1.5,3.2-2.6,5.8-2.6c4.7,0,7.3,2.9,7.3,7.5v12.2H1096.7z"/>
	<path class="st2" d="M1123.1,178v18.3c0,5.4-3.4,8.9-9,8.9c-4.9,0-8.1-2.1-8.7-5.9h3.2c0.6,2.3,2.6,3.1,5.5,3.1
		c4,0,5.8-2.4,5.8-6.3v-1.5h-0.8c-1,1.3-2.9,2.6-5.8,2.6c-5.3,0-8.5-4.2-8.5-9.8c0-5.6,3.2-9.8,8.5-9.8c3,0,4.8,1.2,5.9,2.6h0.8V178
		H1123.1z M1119.9,187.4c0-3.7-1.9-7-6.1-7c-3.8,0-5.9,2.8-5.9,7c0,4.2,2.1,7,5.9,7C1118,194.3,1119.9,191,1119.9,187.4z"/>
	<path class="st2" d="M1144.4,180.8v16.4h-3.2v-16.4h-3.3V178h3.3v-2.2c0-4.4,2.4-6.3,6.6-6.3h1.9v2.8h-1.8c-2.6,0-3.4,1.6-3.4,3.6
		v2.1h5.2v2.8H1144.4z"/>
	<path class="st2" d="M1171.2,187.6c0,5.7-3.5,10.1-9.5,10.1c-6,0-9.5-4.4-9.5-10.1c0-5.7,3.4-10.1,9.5-10.1
		C1167.7,177.5,1171.2,181.9,1171.2,187.6z M1167.9,187.6c0-3.8-2-7.3-6.2-7.3c-4.3,0-6.2,3.5-6.2,7.3c0,3.8,1.9,7.3,6.2,7.3
		C1166,194.9,1167.9,191.4,1167.9,187.6z"/>
	<path class="st2" d="M1187.2,181.1h-1.6c-3.8,0-6.1,2.3-6.1,6.6v9.6h-3.2V178h3.1v2.3h0.8c1-1.2,2.8-2.3,5.6-2.3h1.5V181.1z"/>
	<path class="st2" d="M1205.2,178v2.1h0.8c1.1-1.3,2.9-2.6,6-2.6c5.3,0,8.4,4.4,8.4,10.1c0,5.8-3.1,10.1-8.4,10.1
		c-3.1,0-4.8-1.2-5.9-2.6h-0.8v9.7h-3.2V178H1205.2z M1205.3,187.6c0,3.8,1.8,7.3,6,7.3c3.9,0,5.9-3,5.9-7.3s-2.1-7.3-5.9-7.3
		C1207,180.3,1205.3,183.8,1205.3,187.6z"/>
	<path class="st2" d="M1225.5,173v-3.5h3.4v3.5H1225.5z M1228.9,197.2h-3.2V178h3.2V197.2z"/>
	<path class="st2" d="M1233.9,197.2v-3.7l11.7-11.9v-0.8h-11.1V178h15.2v3.6l-11.7,11.9v0.8h11.8v2.8H1233.9z"/>
	<path class="st2" d="M1253.6,197.2v-3.7l11.7-11.9v-0.8h-11.1V178h15.2v3.6l-11.7,11.9v0.8h11.8v2.8H1253.6z"/>
	<path class="st2" d="M1286.8,195.2h-0.8c-1.2,1.5-3.2,2.5-6,2.5c-4.4,0-6.9-3-6.9-6.3c0-3.1,2-6.4,7.4-6.4h6.3v-0.8
		c0-2.3-1.3-4-4.7-4c-2.9,0-4.3,1.1-4.5,2.8h-3.2c0.3-3.5,3.3-5.6,7.6-5.6c4.8,0,7.9,2.3,7.9,6.6v13.1h-3.1V195.2z M1286.7,189.5
		v-1.8h-5.8c-3.2,0-4.6,1.4-4.6,3.7c0,2.2,1.6,3.5,4.5,3.5C1283.9,194.9,1286.7,192.5,1286.7,189.5z"/>
	<path class="st2" d="M1305.1,188.1v-2.9h10.4v2.9H1305.1z"/>
	<path class="st2" d="M1320.7,193.3l14.8-6.4V186l-14.8-6.4v-2.9l19.2,8.4v2.6l-19.2,8.4V193.3z"/>
</g>
<g>
	<path class="st2" d="M1422.2,197.2v-4.4h4v4.4H1422.2z"/>
	<path class="st2" d="M1432,197.2v-4.4h4v4.4H1432z"/>
	<path class="st2" d="M1441.9,197.2v-4.4h4v4.4H1441.9z"/>
</g>
<g>
	<path class="st2" d="M1427.2,407.2v-4.4h4v4.4H1427.2z"/>
	<path class="st2" d="M1437,407.2v-4.4h4v4.4H1437z"/>
	<path class="st2" d="M1446.9,407.2v-4.4h4v4.4H1446.9z"/>
</g>
<g>
	<path class="st2" d="M669,254v-4.4h4v4.4H669z"/>
	<path class="st2" d="M678.9,254v-4.4h4v4.4H678.9z"/>
	<path class="st2" d="M688.7,254v-4.4h4v4.4H688.7z"/>
	<path class="st2" d="M709.2,254v-4.4h4v4.4H709.2z"/>
	<path class="st2" d="M719,254v-4.4h4v4.4H719z"/>
	<path class="st2" d="M728.9,254v-4.4h4v4.4H728.9z"/>
	<path class="st2" d="M749.3,254v-4.4h4v4.4H749.3z"/>
	<path class="st2" d="M759.1,254v-4.4h4v4.4H759.1z"/>
	<path class="st2" d="M769,254v-4.4h4v4.4H769z"/>
	<path class="st2" d="M669,293v-4.4h4v4.4H669z"/>
	<path class="st2" d="M678.9,293v-4.4h4v4.4H678.9z"/>
	<path class="st2" d="M688.7,293v-4.4h4v4.4H688.7z"/>
	<path class="st2" d="M709.2,293v-4.4h4v4.4H709.2z"/>
	<path class="st2" d="M719,293v-4.4h4v4.4H719z"/>
	<path class="st2" d="M728.9,293v-4.4h4v4.4H728.9z"/>
	<path class="st2" d="M749.3,293v-4.4h4v4.4H749.3z"/>
	<path class="st2" d="M759.1,293v-4.4h4v4.4H759.1z"/>
	<path class="st2" d="M769,293v-4.4h4v4.4H769z"/>
	<path class="st2" d="M669,332v-4.4h4v4.4H669z"/>
	<path class="st2" d="M678.9,332v-4.4h4v4.4H678.9z"/>
	<path class="st2" d="M688.7,332v-4.4h4v4.4H688.7z"/>
	<path class="st2" d="M709.2,332v-4.4h4v4.4H709.2z"/>
	<path class="st2" d="M719,332v-4.4h4v4.4H719z"/>
	<path class="st2" d="M728.9,332v-4.4h4v4.4H728.9z"/>
	<path class="st2" d="M749.3,332v-4.4h4v4.4H749.3z"/>
	<path class="st2" d="M759.1,332v-4.4h4v4.4H759.1z"/>
	<path class="st2" d="M769,332v-4.4h4v4.4H769z"/>
</g>
<g>
	<path class="st3" d="M325.3,60.3c0,5.7-3.5,10.1-9.5,10.1c-6,0-9.5-4.4-9.5-10.1c0-5.7,3.4-10.1,9.5-10.1
		C321.9,50.2,325.3,54.6,325.3,60.3z M322.1,60.3c0-3.8-2-7.3-6.2-7.3c-4.3,0-6.2,3.5-6.2,7.3c0,3.8,1.9,7.3,6.2,7.3
		C320.1,67.6,322.1,64.1,322.1,60.3z"/>
	<path class="st3" d="M341.4,53.7h-1.6c-3.8,0-6.1,2.3-6.1,6.6v9.6h-3.2V50.7h3.1V53h0.8c1-1.2,2.8-2.3,5.6-2.3h1.4V53.7z"/>
	<path class="st3" d="M362.8,42.2v27.7h-3.1v-2.1h-0.8c-1.1,1.3-2.9,2.6-6,2.6c-5.3,0-8.4-4.4-8.4-10.1c0-5.8,3.1-10.1,8.4-10.1
		c3.1,0,4.8,1.2,5.9,2.6h0.8V42.2H362.8z M359.6,60.3c0-3.8-1.8-7.3-6-7.3c-3.9,0-5.9,3-5.9,7.3s2.1,7.3,5.9,7.3
		C357.9,67.6,359.6,64.1,359.6,60.3z"/>
	<path class="st3" d="M385.8,60.3h-14.6c0.1,4.6,2.2,7.3,6.1,7.3c2.7,0,4.3-1.1,4.9-3h3.3c-0.6,3.3-3.4,5.8-8.2,5.8
		c-6,0-9.3-4.4-9.3-10.3c0-5.9,3.4-9.9,9.3-9.9c5.7,0,8.5,4.2,8.6,9V60.3z M371.3,57.5h11.1c-0.2-2.4-2.1-4.5-5.3-4.5
		C373.6,53,371.7,55.1,371.3,57.5z"/>
	<path class="st3" d="M401.8,53.7h-1.6c-3.8,0-6.1,2.3-6.1,6.6v9.6h-3.2V50.7h3.1V53h0.8c1-1.2,2.8-2.3,5.6-2.3h1.4V53.7z"/>
	<path class="st3" d="M415.4,60.8v-2.9h10.4v2.9H415.4z"/>
	<path class="st3" d="M431,65.9l14.8-6.4v-0.8L431,52.2v-2.9l19.2,8.4v2.6L431,68.8V65.9z"/>
</g>
<g>
	<path class="st3" d="M549.2,124.6c0,5.7-3.5,10.1-9.5,10.1c-6,0-9.5-4.4-9.5-10.1c0-5.7,3.4-10.1,9.5-10.1
		C545.7,114.5,549.2,118.9,549.2,124.6z M545.9,124.6c0-3.8-2-7.3-6.2-7.3c-4.3,0-6.2,3.5-6.2,7.3c0,3.8,1.9,7.3,6.2,7.3
		C543.9,131.9,545.9,128.4,545.9,124.6z"/>
	<path class="st3" d="M565.2,118.1h-1.6c-3.8,0-6.1,2.3-6.1,6.6v9.6h-3.2V115h3.1v2.3h0.8c1-1.2,2.8-2.3,5.6-2.3h1.4V118.1z"/>
	<path class="st3" d="M586.7,106.5v27.7h-3.1v-2.1h-0.8c-1.1,1.3-2.9,2.6-6,2.6c-5.3,0-8.4-4.4-8.4-10.1c0-5.8,3.1-10.1,8.4-10.1
		c3.1,0,4.8,1.2,5.9,2.6h0.8v-10.6H586.7z M583.5,124.6c0-3.8-1.8-7.3-6-7.3c-3.9,0-5.9,3-5.9,7.3s2.1,7.3,5.9,7.3
		C581.7,131.9,583.5,128.4,583.5,124.6z"/>
	<path class="st3" d="M609.6,124.6h-14.6c0.1,4.6,2.2,7.3,6.1,7.3c2.7,0,4.3-1.1,4.9-3h3.3c-0.6,3.3-3.4,5.8-8.2,5.8
		c-6,0-9.3-4.4-9.3-10.3c0-5.9,3.4-9.9,9.3-9.9c5.7,0,8.5,4.2,8.6,9V124.6z M595.1,121.9h11.1c-0.2-2.4-2.1-4.5-5.3-4.5
		C597.5,117.3,595.6,119.4,595.1,121.9z"/>
	<path class="st3" d="M625.6,118.1H624c-3.8,0-6.1,2.3-6.1,6.6v9.6h-3.2V115h3.1v2.3h0.8c1-1.2,2.8-2.3,5.6-2.3h1.4V118.1z"/>
	<path class="st3" d="M639.2,125.1v-2.9h10.4v2.9H639.2z"/>
	<path class="st3" d="M654.8,130.3l14.8-6.4V123l-14.8-6.4v-2.9l19.2,8.4v2.6l-19.2,8.4V130.3z"/>
</g>
<g>
	<path class="st3" d="M793.2,187.6c0,5.7-3.5,10.1-9.5,10.1c-6,0-9.5-4.4-9.5-10.1c0-5.7,3.4-10.1,9.5-10.1
		C789.7,177.5,793.2,181.9,793.2,187.6z M789.9,187.6c0-3.8-2-7.3-6.2-7.3c-4.3,0-6.2,3.5-6.2,7.3c0,3.8,1.9,7.3,6.2,7.3
		C787.9,194.9,789.9,191.4,789.9,187.6z"/>
	<path class="st3" d="M809.2,181.1h-1.6c-3.8,0-6.1,2.3-6.1,6.6v9.6h-3.2V178h3.1v2.3h0.8c1-1.2,2.8-2.3,5.6-2.3h1.4V181.1z"/>
	<path class="st3" d="M830.7,169.5v27.7h-3.1v-2.1h-0.8c-1.1,1.3-2.9,2.6-6,2.6c-5.3,0-8.4-4.4-8.4-10.1c0-5.8,3.1-10.1,8.4-10.1
		c3.1,0,4.8,1.2,5.9,2.6h0.8v-10.6H830.7z M827.5,187.6c0-3.8-1.8-7.3-6-7.3c-3.9,0-5.9,3-5.9,7.3s2.1,7.3,5.9,7.3
		C825.7,194.9,827.5,191.4,827.5,187.6z"/>
	<path class="st3" d="M853.6,187.6h-14.6c0.1,4.6,2.2,7.3,6.1,7.3c2.7,0,4.3-1.1,4.9-3h3.3c-0.6,3.3-3.4,5.8-8.2,5.8
		c-6,0-9.3-4.4-9.3-10.3c0-5.9,3.4-9.9,9.3-9.9c5.7,0,8.5,4.2,8.6,9V187.6z M839.1,184.9h11.1c-0.2-2.4-2.1-4.5-5.3-4.5
		C841.5,180.3,839.5,182.4,839.1,184.9z"/>
	<path class="st3" d="M869.6,181.1H868c-3.8,0-6.1,2.3-6.1,6.6v9.6h-3.2V178h3.1v2.3h0.8c1-1.2,2.8-2.3,5.6-2.3h1.4V181.1z"/>
	<path class="st3" d="M883.2,188.1v-2.9h10.4v2.9H883.2z"/>
	<path class="st3" d="M898.8,193.3l14.8-6.4V186l-14.8-6.4v-2.9l19.2,8.4v2.6l-19.2,8.4V193.3z"/>
</g>
<g>
	<path class="st3" d="M322.7,397.6c0,5.7-3.5,10.1-9.5,10.1c-6,0-9.5-4.4-9.5-10.1c0-5.7,3.4-10.1,9.5-10.1
		C319.3,387.5,322.7,391.9,322.7,397.6z M319.5,397.6c0-3.8-2-7.3-6.2-7.3c-4.3,0-6.2,3.5-6.2,7.3c0,3.8,1.9,7.3,6.2,7.3
		C317.5,404.9,319.5,401.4,319.5,397.6z"/>
	<path class="st3" d="M338.8,391.1h-1.6c-3.8,0-6.1,2.3-6.1,6.6v9.6h-3.2V388h3.1v2.3h0.8c1-1.2,2.8-2.3,5.6-2.3h1.4V391.1z"/>
	<path class="st3" d="M360.2,379.5v27.7h-3.1v-2.1h-0.8c-1.1,1.3-2.9,2.6-6,2.6c-5.3,0-8.4-4.4-8.4-10.1c0-5.8,3.1-10.1,8.4-10.1
		c3.1,0,4.8,1.2,5.9,2.6h0.8v-10.6H360.2z M357,397.6c0-3.8-1.8-7.3-6-7.3c-3.9,0-5.9,3-5.9,7.3s2.1,7.3,5.9,7.3
		C355.3,404.9,357,401.4,357,397.6z"/>
	<path class="st3" d="M383.2,397.6h-14.6c0.1,4.6,2.2,7.3,6.1,7.3c2.7,0,4.3-1.1,4.9-3h3.3c-0.6,3.3-3.4,5.8-8.2,5.8
		c-6,0-9.3-4.4-9.3-10.3c0-5.9,3.4-9.9,9.3-9.9c5.7,0,8.5,4.2,8.6,9V397.6z M368.7,394.9h11.1c-0.2-2.4-2.1-4.5-5.3-4.5
		C371,390.3,369.1,392.4,368.7,394.9z"/>
	<path class="st3" d="M399.2,391.1h-1.6c-3.8,0-6.1,2.3-6.1,6.6v9.6h-3.2V388h3.1v2.3h0.8c1-1.2,2.8-2.3,5.6-2.3h1.4V391.1z"/>
	<path class="st3" d="M413.2,404.3h6.3V384h-0.8l-5.6,3.8v-3.5l5.6-3.8h4.2v23.7h5.8v3h-15.5V404.3z"/>
</g>
<g>
	<path class="st3" d="M551.8,397.6c0,5.7-3.5,10.1-9.5,10.1c-6,0-9.5-4.4-9.5-10.1c0-5.7,3.4-10.1,9.5-10.1
		C548.3,387.5,551.8,391.9,551.8,397.6z M548.5,397.6c0-3.8-2-7.3-6.2-7.3c-4.3,0-6.2,3.5-6.2,7.3c0,3.8,1.9,7.3,6.2,7.3
		C546.5,404.9,548.5,401.4,548.5,397.6z"/>
	<path class="st3" d="M567.8,391.1h-1.6c-3.8,0-6.1,2.3-6.1,6.6v9.6h-3.2V388h3.1v2.3h0.8c1-1.2,2.8-2.3,5.6-2.3h1.4V391.1z"/>
	<path class="st3" d="M589.3,379.5v27.7h-3.1v-2.1h-0.8c-1.1,1.3-2.9,2.6-6,2.6c-5.3,0-8.4-4.4-8.4-10.1c0-5.8,3.1-10.1,8.4-10.1
		c3.1,0,4.8,1.2,5.9,2.6h0.8v-10.6H589.3z M586,397.6c0-3.8-1.8-7.3-6-7.3c-3.9,0-5.9,3-5.9,7.3s2.1,7.3,5.9,7.3
		C584.3,404.9,586,401.4,586,397.6z"/>
	<path class="st3" d="M612.2,397.6h-14.6c0.1,4.6,2.2,7.3,6.1,7.3c2.7,0,4.3-1.1,4.9-3h3.3c-0.6,3.3-3.4,5.8-8.2,5.8
		c-6,0-9.3-4.4-9.3-10.3c0-5.9,3.4-9.9,9.3-9.9c5.7,0,8.5,4.2,8.6,9V397.6z M597.7,394.9h11.1c-0.2-2.4-2.1-4.5-5.3-4.5
		C600,390.3,598.1,392.4,597.7,394.9z"/>
	<path class="st3" d="M628.2,391.1h-1.6c-3.8,0-6.1,2.3-6.1,6.6v9.6h-3.2V388h3.1v2.3h0.8c1-1.2,2.8-2.3,5.6-2.3h1.4V391.1z"/>
	<path class="st3" d="M641.9,387.9c0.3-5.3,4.2-7.9,8.9-7.9c5,0,8.7,2.8,8.7,8.1c0,3.6-2.7,7-5.9,9.7l-6.7,5.6v0.8h13.5v3H642v-3.8
		l3.9-3.2c2.1-1.7,4.7-3.9,6.1-5.1c1.8-1.6,4.2-3.8,4.2-7c0-3.4-2.1-5.1-5.4-5.1c-3,0-5.1,1.6-5.5,4.9H641.9z"/>
</g>
<g>
	<path class="st3" d="M784.3,397.6c0,5.7-3.5,10.1-9.5,10.1c-6,0-9.5-4.4-9.5-10.1c0-5.7,3.4-10.1,9.5-10.1
		C780.8,387.5,784.3,391.9,784.3,397.6z M781.1,397.6c0-3.8-2-7.3-6.2-7.3c-4.3,0-6.2,3.5-6.2,7.3c0,3.8,1.9,7.3,6.2,7.3
		C779.1,404.9,781.1,401.4,781.1,397.6z"/>
	<path class="st3" d="M800.4,391.1h-1.6c-3.8,0-6.1,2.3-6.1,6.6v9.6h-3.2V388h3.1v2.3h0.8c1-1.2,2.8-2.3,5.6-2.3h1.4V391.1z"/>
	<path class="st3" d="M821.8,379.5v27.7h-3.1v-2.1h-0.8c-1.1,1.3-2.9,2.6-6,2.6c-5.3,0-8.4-4.4-8.4-10.1c0-5.8,3.1-10.1,8.4-10.1
		c3.1,0,4.8,1.2,5.9,2.6h0.8v-10.6H821.8z M818.6,397.6c0-3.8-1.8-7.3-6-7.3c-3.9,0-5.9,3-5.9,7.3s2.1,7.3,5.9,7.3
		C816.8,404.9,818.6,401.4,818.6,397.6z"/>
	<path class="st3" d="M844.7,397.6h-14.6c0.1,4.6,2.2,7.3,6.1,7.3c2.7,0,4.3-1.1,4.9-3h3.3c-0.6,3.3-3.4,5.8-8.2,5.8
		c-6,0-9.3-4.4-9.3-10.3c0-5.9,3.4-9.9,9.3-9.9c5.7,0,8.5,4.2,8.6,9V397.6z M830.3,394.9h11.1c-0.2-2.4-2.1-4.5-5.3-4.5
		C832.6,390.3,830.7,392.4,830.3,394.9z"/>
	<path class="st3" d="M860.8,391.1h-1.6c-3.8,0-6.1,2.3-6.1,6.6v9.6h-3.2V388h3.1v2.3h0.8c1-1.2,2.8-2.3,5.6-2.3h1.4V391.1z"/>
	<path class="st3" d="M891.1,380.5v3.7l-6.7,5.7v0.8c4.6,0.1,7.9,3,7.9,8.1c0,5.5-4,8.8-9.4,8.8c-5.4,0-9-3.4-9.3-8h3.4
		c0.3,3.1,2.8,5,6,5c3.7,0,6.1-2.2,6.1-5.8c0-3.5-2.1-5.7-6-5.7c-1,0-1.7,0.1-2.3,0.2v-3.5l6.5-5.6v-0.8h-11.7v-2.9H891.1z"/>
</g>
<g>
	<path class="st3" d="M1011.9,388v2.1h0.8c1.1-1.3,2.9-2.6,6-2.6c5.3,0,8.4,4.4,8.4,10.1c0,5.8-3.1,10.1-8.4,10.1
		c-3.1,0-4.8-1.2-5.9-2.6h-0.8v9.7h-3.2V388H1011.9z M1011.9,397.6c0,3.8,1.8,7.3,6,7.3c3.9,0,5.9-3,5.9-7.3s-2.1-7.3-5.9-7.3
		C1013.7,390.3,1011.9,393.9,1011.9,397.6z"/>
	<path class="st3" d="M1044.4,405.2h-0.8c-1.2,1.5-3.2,2.5-6,2.5c-4.4,0-6.9-3-6.9-6.3c0-3.1,2-6.4,7.4-6.4h6.3v-0.8
		c0-2.3-1.3-4-4.7-4c-2.9,0-4.3,1.1-4.5,2.8h-3.2c0.3-3.5,3.3-5.6,7.6-5.6c4.8,0,7.9,2.3,7.9,6.6v13.1h-3.1V405.2z M1044.3,399.5
		v-1.8h-5.8c-3.2,0-4.6,1.4-4.6,3.7c0,2.2,1.6,3.5,4.5,3.5C1041.6,404.9,1044.3,402.5,1044.3,399.5z"/>
	<path class="st3" d="M1055.4,414.9l4-9.4l-8.2-17.4h3.5l5.9,12.7h1l5.3-12.7h3.4l-11.5,26.9H1055.4z"/>
	<path class="st3" d="M1100.5,394.8v12.4h-3.2v-12.1c0-3.2-1.2-4.7-3.7-4.7c-3,0-4.7,2.3-4.7,5.6v11.3h-3.2v-12
		c0-3.2-1.3-4.8-3.7-4.8c-3.2,0-4.7,2.7-4.7,6.2v10.6h-3.2V388h3.1v1.9h0.8c1-1.5,2.4-2.4,4.9-2.4c2.3,0,4,0.8,5.1,2.6h0.8
		c1.2-1.7,3-2.6,5.4-2.6C1098.6,387.5,1100.5,390.4,1100.5,394.8z"/>
	<path class="st3" d="M1106.2,407.2v-4.4h4v4.4H1106.2z"/>
	<path class="st3" d="M1126,404.3h6.3V384h-0.8l-5.6,3.8v-3.5l5.6-3.8h4.2v23.7h5.8v3H1126V404.3z"/>
</g>
<g>
	<path class="st3" d="M1254.1,388v2.1h0.8c1.1-1.3,2.9-2.6,6-2.6c5.3,0,8.4,4.4,8.4,10.1c0,5.8-3.1,10.1-8.4,10.1
		c-3.1,0-4.8-1.2-5.9-2.6h-0.8v9.7h-3.2V388H1254.1z M1254.1,397.6c0,3.8,1.8,7.3,6,7.3c3.9,0,5.9-3,5.9-7.3s-2.1-7.3-5.9-7.3
		C1255.9,390.3,1254.1,393.9,1254.1,397.6z"/>
	<path class="st3" d="M1286.6,405.2h-0.8c-1.2,1.5-3.2,2.5-6,2.5c-4.4,0-6.9-3-6.9-6.3c0-3.1,2-6.4,7.4-6.4h6.3v-0.8
		c0-2.3-1.3-4-4.7-4c-2.9,0-4.3,1.1-4.5,2.8h-3.2c0.3-3.5,3.3-5.6,7.6-5.6c4.8,0,7.9,2.3,7.9,6.6v13.1h-3.1V405.2z M1286.5,399.5
		v-1.8h-5.8c-3.2,0-4.6,1.4-4.6,3.7c0,2.2,1.6,3.5,4.5,3.5C1283.8,404.9,1286.5,402.5,1286.5,399.5z"/>
	<path class="st3" d="M1297.5,414.9l4-9.4l-8.2-17.4h3.5l5.9,12.7h1l5.3-12.7h3.4l-11.5,26.9H1297.5z"/>
	<path class="st3" d="M1342.7,394.8v12.4h-3.2v-12.1c0-3.2-1.2-4.7-3.7-4.7c-3,0-4.7,2.3-4.7,5.6v11.3h-3.2v-12
		c0-3.2-1.3-4.8-3.7-4.8c-3.2,0-4.7,2.7-4.7,6.2v10.6h-3.2V388h3.1v1.9h0.8c1-1.5,2.4-2.4,4.9-2.4c2.3,0,4,0.8,5.1,2.6h0.8
		c1.2-1.7,3-2.6,5.4-2.6C1340.8,387.5,1342.7,390.4,1342.7,394.8z"/>
	<path class="st3" d="M1348.4,407.2v-4.4h4v4.4H1348.4z"/>
	<path class="st3" d="M1368,387.9c0.3-5.3,4.2-7.9,8.9-7.9c5,0,8.7,2.8,8.7,8.1c0,3.6-2.7,7-5.9,9.7l-6.7,5.6v0.8h13.5v3H1368v-3.8
		l3.9-3.2c2.1-1.7,4.7-3.9,6.1-5.1c1.8-1.6,4.2-3.8,4.2-7c0-3.4-2.1-5.1-5.4-5.1c-3,0-5.1,1.6-5.5,4.9H1368z"/>
</g>
<g>
	<path class="st3" d="M1026.7,50.7v2.1h0.8c1.1-1.3,2.9-2.6,6-2.6c5.3,0,8.4,4.4,8.4,10.1c0,5.8-3.1,10.1-8.4,10.1
		c-3.1,0-4.8-1.2-5.9-2.6h-0.8v9.7h-3.2V50.7H1026.7z M1026.8,60.3c0,3.8,1.8,7.3,6,7.3c3.9,0,5.9-3,5.9-7.3s-2.1-7.3-5.9-7.3
		C1028.5,53,1026.8,56.5,1026.8,60.3z"/>
	<path class="st3" d="M1059.3,67.9h-0.8c-1.2,1.5-3.2,2.5-6,2.5c-4.4,0-6.9-3-6.9-6.3c0-3.1,2-6.4,7.4-6.4h6.3V57c0-2.3-1.3-4-4.7-4
		c-2.9,0-4.3,1.1-4.5,2.8h-3.2c0.3-3.5,3.3-5.6,7.6-5.6c4.8,0,7.9,2.3,7.9,6.6v13.1h-3.1V67.9z M1059.2,62.1v-1.8h-5.8
		c-3.2,0-4.6,1.4-4.6,3.7c0,2.2,1.6,3.5,4.5,3.5C1056.5,67.6,1059.2,65.2,1059.2,62.1z"/>
	<path class="st3" d="M1070.2,77.5l4-9.4l-8.2-17.4h3.5l5.9,12.7h1l5.3-12.7h3.4l-11.5,26.9H1070.2z"/>
	<path class="st3" d="M1115.3,57.5v12.4h-3.2V57.8c0-3.2-1.2-4.7-3.7-4.7c-3,0-4.7,2.3-4.7,5.6v11.3h-3.2v-12c0-3.2-1.3-4.8-3.7-4.8
		c-3.2,0-4.7,2.7-4.7,6.2v10.6h-3.2V50.7h3.1v1.9h0.8c1-1.5,2.4-2.4,4.9-2.4c2.3,0,4,0.8,5.1,2.6h0.8c1.2-1.7,3-2.6,5.4-2.6
		C1113.4,50.2,1115.3,53,1115.3,57.5z"/>
	<path class="st3" d="M1137.9,60.3h-14.6c0.1,4.6,2.2,7.3,6.1,7.3c2.7,0,4.3-1.1,4.9-3h3.3c-0.6,3.3-3.4,5.8-8.2,5.8
		c-6,0-9.3-4.4-9.3-10.3c0-5.9,3.4-9.9,9.3-9.9c5.7,0,8.5,4.2,8.6,9V60.3z M1123.5,57.5h11.1c-0.2-2.4-2.1-4.5-5.3-4.5
		C1125.8,53,1123.9,55.1,1123.5,57.5z"/>
	<path class="st3" d="M1156.8,69.9V58.4c0-3.5-1.6-5.3-4.9-5.3c-3.4,0-5.7,3-5.7,6.4v10.4h-3.2V50.7h3.1v2.1h0.8
		c1.1-1.5,3.2-2.6,5.8-2.6c4.7,0,7.3,2.9,7.3,7.5v12.2H1156.8z"/>
	<path class="st3" d="M1175.3,50.7v2.8h-4.8v10.6c0,1.9,0.8,2.9,3.4,2.9h1.4v2.9h-1.5c-4.2,0-6.6-1.3-6.6-5.4v-11h-3.3v-2.8h3.3
		v-5.8h3.2v5.8H1175.3z"/>
</g>
<g>
	<path class="st3" d="M1245.7,114v2.1h0.8c1.1-1.3,2.9-2.6,6-2.6c5.3,0,8.4,4.4,8.4,10.1c0,5.8-3.1,10.1-8.4,10.1
		c-3.1,0-4.8-1.2-5.9-2.6h-0.8v9.7h-3.2V114H1245.7z M1245.8,123.6c0,3.8,1.8,7.3,6,7.3c3.9,0,5.9-3,5.9-7.3s-2.1-7.3-5.9-7.3
		C1247.5,116.3,1245.8,119.8,1245.8,123.6z"/>
	<path class="st3" d="M1278.3,131.2h-0.8c-1.2,1.5-3.2,2.5-6,2.5c-4.4,0-6.9-3-6.9-6.3c0-3.1,2-6.4,7.4-6.4h6.3v-0.8
		c0-2.3-1.3-4-4.7-4c-2.9,0-4.3,1.1-4.5,2.8h-3.2c0.3-3.5,3.3-5.6,7.6-5.6c4.8,0,7.9,2.3,7.9,6.6v13.1h-3.1V131.2z M1278.2,125.5
		v-1.8h-5.8c-3.2,0-4.6,1.4-4.6,3.7c0,2.2,1.6,3.5,4.5,3.5C1275.4,130.9,1278.2,128.5,1278.2,125.5z"/>
	<path class="st3" d="M1289.2,140.9l4-9.4l-8.2-17.4h3.5l5.9,12.7h1l5.3-12.7h3.4l-11.5,26.9H1289.2z"/>
	<path class="st3" d="M1334.3,120.8v12.4h-3.2v-12.1c0-3.2-1.2-4.7-3.7-4.7c-3,0-4.7,2.3-4.7,5.6v11.3h-3.2v-12
		c0-3.2-1.3-4.8-3.7-4.8c-3.2,0-4.7,2.7-4.7,6.2v10.6h-3.2V114h3.1v1.9h0.8c1-1.5,2.4-2.4,4.9-2.4c2.3,0,4,0.8,5.1,2.6h0.8
		c1.2-1.7,3-2.6,5.4-2.6C1332.4,113.5,1334.3,116.4,1334.3,120.8z"/>
	<path class="st3" d="M1356.9,123.6h-14.6c0.1,4.6,2.2,7.3,6.1,7.3c2.7,0,4.3-1.1,4.9-3h3.3c-0.6,3.3-3.4,5.8-8.2,5.8
		c-6,0-9.3-4.4-9.3-10.3c0-5.9,3.4-9.9,9.3-9.9c5.7,0,8.5,4.2,8.6,9V123.6z M1342.5,120.9h11.1c-0.2-2.4-2.1-4.5-5.3-4.5
		C1344.8,116.3,1342.9,118.4,1342.5,120.9z"/>
	<path class="st3" d="M1375.8,133.2v-11.5c0-3.5-1.6-5.3-4.9-5.3c-3.4,0-5.7,3-5.7,6.4v10.4h-3.2V114h3.1v2.1h0.8
		c1.1-1.5,3.2-2.6,5.8-2.6c4.7,0,7.3,2.9,7.3,7.5v12.2H1375.8z"/>
	<path class="st3" d="M1394.3,114v2.8h-4.8v10.6c0,1.9,0.8,2.9,3.4,2.9h1.4v2.9h-1.5c-4.2,0-6.6-1.3-6.6-5.4v-11h-3.3V114h3.3v-5.8
		h3.2v5.8H1394.3z"/>
</g>
</svg>
