<?xml version="1.0" encoding="utf-8"?>
<!-- Generator: Adobe Illustrator 20.1.0, SVG Export Plug-In . SVG Version: 6.00 Build 0)  -->
<svg version="1.1" id="Layer_1" xmlns="http://www.w3.org/2000/svg" xmlns:xlink="http://www.w3.org/1999/xlink" x="0px" y="0px"
	 viewBox="0 0 1474 953.7" style="enable-background:new 0 0 1474 953.7;" xml:space="preserve">
<style type="text/css">
	.st0{fill:none;stroke:#007BFF;stroke-miterlimit:10;}
	.st1{fill:#007BFF;}
	.st2{fill:#082E51;}
	.st3{fill:#FFFFFF;}
</style>
<path d="M1296.6,4419.1c6.2,0.8,12.5,1.7,18.7,2.5c-0.1,0.6-0.1,1.1-0.2,1.7c-6.3-0.6-12.5-1.3-18.8-1.9
	C1296.5,4420.5,1296.6,4419.8,1296.6,4419.1z"/>
<path class="st0" d="M1397.4,93.8H288.6c-4.3,0-7.7-3.4-7.7-7.7V41.5c0-4.3,3.4-7.7,7.7-7.7h1108.9c4.3,0,7.7,3.4,7.7,7.7v44.6
	C1405.1,90.3,1401.7,93.8,1397.4,93.8z"/>
<path class="st0" d="M1397.4,228.8H288.6c-4.3,0-7.7-3.4-7.7-7.7v-44.6c0-4.3,3.4-7.7,7.7-7.7h1108.9c4.3,0,7.7,3.4,7.7,7.7v44.6
	C1405.1,225.3,1401.7,228.8,1397.4,228.8z"/>
<path class="st1" d="M449,93.8H288.7c-4.3,0-7.7-3.4-7.7-7.7V41.5c0-4.3,3.4-7.7,7.7-7.7H449V93.8z"/>
<path class="st1" d="M449,228.8H288.7c-4.3,0-7.7-3.4-7.7-7.7v-44.6c0-4.3,3.4-7.7,7.7-7.7H449V228.8z"/>
<path class="st2" d="M1228.5,33.8H1397c4.5,0,8.1,3.4,8.1,7.7v44.6c0,4.3-3.6,7.7-8.1,7.7h-168.5V33.8z"/>
<path class="st2" d="M1228.5,168.8H1397c4.5,0,8.1,3.4,8.1,7.7v44.6c0,4.3-3.6,7.7-8.1,7.7h-168.5V168.8z"/>
<rect x="843.1" y="33.8" class="st1" width="183.6" height="60"/>
<rect x="650.5" y="33.8" class="st2" width="192.5" height="60"/>
<rect x="840.5" y="168.8" class="st1" width="183.6" height="60"/>
<rect x="647.9" y="168.8" class="st2" width="192.5" height="60"/>
<g>
	<path class="st2" d="M47.8,197.6l2.1,0.3c3.2,0.5,5.2,2.2,5.2,5.5c0,3-2.6,5.7-7.5,5.7c-5.1,0-7.7-2.3-8.1-5.7h3.1
		c0.3,2.1,2.1,3.1,4.8,3.1c2.7,0,4.5-1,4.5-3c0-1.6-1-2.4-3.3-2.8l-4.1-0.7c-2.6-0.5-4.4-1.8-4.4-4.6c0-3,2.3-5.4,7.2-5.4
		c4.3,0,6.8,2,7.2,5.2h-3.1c-0.3-1.7-2-2.5-4.2-2.5c-2.3,0-3.9,0.9-3.9,2.4c0,1.4,0.9,1.9,2.7,2.2L47.8,197.6z"/>
	<path class="st2" d="M71.1,206.7h-0.8c-1.1,1.4-3.1,2.4-5.7,2.4c-4.2,0-6.5-2.8-6.5-5.9c0-2.9,1.9-6,6.9-6H71v-0.7
		c0-2.2-1.3-3.8-4.4-3.8c-2.7,0-4.1,1-4.2,2.6h-3.1c0.3-3.3,3.1-5.3,7.2-5.3c4.6,0,7.5,2.2,7.5,6.3v12.3h-2.9V206.7z M71,201.3v-1.7
		h-5.4c-3,0-4.4,1.3-4.4,3.5c0,2.1,1.5,3.3,4.2,3.3C68.5,206.4,71,204.2,71,201.3z"/>
	<path class="st2" d="M82.7,182.5v26.2h-3.1v-26.2H82.7z"/>
	<path class="st2" d="M104.3,199.5H90.5c0.1,4.3,2.1,6.9,5.8,6.9c2.6,0,4.1-1.1,4.6-2.8h3.1c-0.6,3.1-3.2,5.5-7.7,5.5
		c-5.7,0-8.8-4.1-8.8-9.7c0-5.6,3.2-9.4,8.7-9.4c5.4,0,8,4,8.1,8.5V199.5z M90.7,197h10.5c-0.2-2.3-1.9-4.3-5-4.3
		C92.9,192.7,91.1,194.7,90.7,197z"/>
	<path class="st2" d="M115.8,197.6l2.1,0.3c3.2,0.5,5.2,2.2,5.2,5.5c0,3-2.6,5.7-7.5,5.7c-5.1,0-7.7-2.3-8.1-5.7h3.1
		c0.3,2.1,2.1,3.1,4.8,3.1s4.5-1,4.5-3c0-1.6-1-2.4-3.3-2.8l-4.1-0.7c-2.6-0.5-4.4-1.8-4.4-4.6c0-3,2.3-5.4,7.2-5.4
		c4.3,0,6.8,2,7.2,5.2h-3.1c-0.3-1.7-2-2.5-4.2-2.5c-2.3,0-3.9,0.9-3.9,2.4c0,1.4,0.9,1.9,2.7,2.2L115.8,197.6z"/>
	<path class="st2" d="M152.6,196.9v11.7h-3.1v-11.4c0-3-1.2-4.5-3.5-4.5c-2.8,0-4.4,2.2-4.4,5.3v10.6h-3.1v-11.3
		c0-3-1.2-4.5-3.5-4.5c-3,0-4.5,2.6-4.5,5.8v10h-3.1v-18.1h3v1.8h0.8c0.9-1.4,2.3-2.2,4.6-2.2c2.2,0,3.8,0.8,4.8,2.4h0.8
		c1.1-1.6,2.8-2.4,5.1-2.4C150.8,190,152.6,192.7,152.6,196.9z"/>
	<path class="st2" d="M169.8,206.7H169c-1.1,1.4-3.1,2.4-5.7,2.4c-4.2,0-6.5-2.8-6.5-5.9c0-2.9,1.9-6,6.9-6h5.9v-0.7
		c0-2.2-1.3-3.8-4.4-3.8c-2.7,0-4.1,1-4.2,2.6h-3.1c0.3-3.3,3.1-5.3,7.2-5.3c4.6,0,7.5,2.2,7.5,6.3v12.3h-2.9V206.7z M169.6,201.3
		v-1.7h-5.4c-3,0-4.4,1.3-4.4,3.5c0,2.1,1.5,3.3,4.2,3.3C167.1,206.4,169.6,204.2,169.6,201.3z"/>
	<path class="st2" d="M191.3,208.6v-10.9c0-3.3-1.5-5-4.6-5c-3.2,0-5.4,2.8-5.4,6v9.8h-3.1v-18.1h3v1.9h0.8c1-1.4,3-2.4,5.5-2.4
		c4.5,0,6.9,2.7,6.9,7.1v11.5H191.3z"/>
	<path class="st2" d="M213.6,190.4l1.1-7h2.6l-1.1,7h4.9l1.1-7h2.6l-1.1,7h3.6v2.4h-4l-1,6.3h3.6v2.4h-4l-1.1,7h-2.6l1.1-7h-4.9
		l-1.1,7h-2.6l1.1-7h-3.6v-2.4h4l1-6.3h-3.7v-2.4H213.6z M214.8,199.2h4.9l1-6.3h-4.9L214.8,199.2z"/>
	<path class="st2" d="M230.6,205.8h6v-19.1h-0.7l-5.3,3.6V187l5.3-3.6h3.9v22.4h5.5v2.8h-14.7V205.8z"/>
</g>
<g>
	<path class="st2" d="M320,122.2c-0.7,3.6-3.4,5.9-7.6,5.9c-5.7,0-8.8-4.2-8.8-9.5c0-5.5,3.2-9.5,8.8-9.5c4.3,0,6.9,2.4,7.5,5.7
		h-3.1c-0.6-1.8-2-3.1-4.5-3.1c-4.1,0-5.8,3.2-5.8,6.8c0,3.6,1.7,6.9,5.8,6.9c2.6,0,4.1-1.3,4.6-3.3H320z"/>
	<path class="st2" d="M327.6,101.5v26.2h-3.1v-26.2H327.6z"/>
	<path class="st2" d="M333.5,104.9v-3.3h3.2v3.3H333.5z M336.7,127.7h-3.1v-18.1h3.1V127.7z"/>
	<path class="st2" d="M358.4,118.6h-13.8c0.1,4.3,2.1,6.9,5.8,6.9c2.6,0,4.1-1.1,4.6-2.8h3.1c-0.6,3.1-3.2,5.5-7.7,5.5
		c-5.7,0-8.8-4.1-8.8-9.7c0-5.6,3.2-9.4,8.7-9.4c5.4,0,8,4,8.1,8.5V118.6z M344.8,116h10.5c-0.2-2.3-1.9-4.3-5-4.3
		C347,111.8,345.2,113.7,344.8,116z"/>
	<path class="st2" d="M376.2,127.7v-10.9c0-3.3-1.5-5-4.6-5c-3.2,0-5.4,2.8-5.4,6v9.8h-3.1v-18.1h3v1.9h0.8c1-1.4,3-2.4,5.5-2.4
		c4.5,0,6.9,2.7,6.9,7.1v11.5H376.2z"/>
	<path class="st2" d="M393.7,109.6v2.7h-4.6v10c0,1.8,0.8,2.8,3.2,2.8h1.3v2.7h-1.4c-3.9,0-6.2-1.2-6.2-5.1v-10.4h-3.1v-2.7h3.1
		v-5.5h3.1v5.5H393.7z"/>
	<path class="st2" d="M412.3,109.5l1.1-7h2.6l-1.1,7h4.9l1.1-7h2.6l-1.1,7h3.6v2.4h-4l-1,6.3h3.6v2.4h-4l-1.1,7h-2.6l1.1-7h-4.9
		l-1.1,7h-2.6l1.1-7h-3.6v-2.4h4l1-6.3h-3.7v-2.4H412.3z M413.5,118.3h4.9l1-6.3h-4.9L413.5,118.3z"/>
	<path class="st2" d="M429.3,124.9h6v-19.1h-0.7l-5.3,3.6v-3.3l5.3-3.6h3.9v22.4h5.5v2.8h-14.7V124.9z"/>
</g>
<g>
	<path class="st2" d="M342.9,64.6c0,5.4-3.3,9.5-8.9,9.5c-5.7,0-8.9-4.2-8.9-9.5s3.2-9.5,8.9-9.5C339.6,55.1,342.9,59.3,342.9,64.6z
		 M339.8,64.6c0-3.6-1.9-6.9-5.9-6.9c-4,0-5.9,3.3-5.9,6.9c0,3.6,1.8,6.9,5.9,6.9C338,71.5,339.8,68.2,339.8,64.6z"/>
	<path class="st2" d="M358,58.4h-1.5c-3.6,0-5.8,2.2-5.8,6.2v9.1h-3.1V55.6h3v2.2h0.8c0.9-1.1,2.6-2.2,5.3-2.2h1.4V58.4z"/>
	<path class="st2" d="M378.3,47.5v26.2h-3v-1.9h-0.8c-1,1.3-2.8,2.4-5.7,2.4c-5,0-8-4.2-8-9.5c0-5.5,3-9.5,8-9.5
		c2.9,0,4.5,1.1,5.5,2.4h0.8v-10H378.3z M375.2,64.6c0-3.6-1.7-6.9-5.7-6.9c-3.6,0-5.6,2.8-5.6,6.9c0,4,1.9,6.9,5.6,6.9
		C373.6,71.5,375.2,68.2,375.2,64.6z"/>
	<path class="st2" d="M399.9,64.6h-13.8c0.1,4.3,2.1,6.9,5.8,6.9c2.6,0,4.1-1.1,4.6-2.8h3.1c-0.6,3.1-3.2,5.5-7.7,5.5
		c-5.7,0-8.8-4.1-8.8-9.7c0-5.6,3.2-9.4,8.7-9.4c5.4,0,8,4,8.1,8.5V64.6z M386.3,62h10.5c-0.2-2.3-1.9-4.3-5-4.3
		C388.5,57.8,386.7,59.7,386.3,62z"/>
	<path class="st2" d="M415,58.4h-1.5c-3.6,0-5.8,2.2-5.8,6.2v9.1h-3.1V55.6h3v2.2h0.8c0.9-1.1,2.6-2.2,5.3-2.2h1.4V58.4z"/>
	<path class="st2" d="M427.8,65.1v-2.7h9.8v2.7H427.8z"/>
	<path class="st2" d="M442.6,70l13.9-6v-0.8L442.6,57v-2.7l18.1,8v2.5l-18.1,8V70z"/>
</g>
<g>
	<path class="st2" d="M912.9,64.6c0,5.4-3.3,9.5-8.9,9.5c-5.7,0-8.9-4.2-8.9-9.5s3.2-9.5,8.9-9.5C909.6,55.1,912.9,59.3,912.9,64.6z
		 M909.8,64.6c0-3.6-1.9-6.9-5.9-6.9c-4,0-5.9,3.3-5.9,6.9c0,3.6,1.8,6.9,5.9,6.9C908,71.5,909.8,68.2,909.8,64.6z"/>
	<path class="st2" d="M928,58.4h-1.5c-3.6,0-5.8,2.2-5.8,6.2v9.1h-3.1V55.6h3v2.2h0.8c0.9-1.1,2.6-2.2,5.3-2.2h1.4V58.4z"/>
	<path class="st2" d="M948.3,47.5v26.2h-3v-1.9h-0.8c-1,1.3-2.8,2.4-5.7,2.4c-5,0-8-4.2-8-9.5c0-5.5,3-9.5,8-9.5
		c2.9,0,4.5,1.1,5.5,2.4h0.8v-10H948.3z M945.2,64.6c0-3.6-1.7-6.9-5.7-6.9c-3.6,0-5.6,2.8-5.6,6.9c0,4,1.9,6.9,5.6,6.9
		C943.6,71.5,945.2,68.2,945.2,64.6z"/>
	<path class="st2" d="M969.9,64.6h-13.8c0.1,4.3,2.1,6.9,5.8,6.9c2.6,0,4.1-1.1,4.6-2.8h3.1c-0.6,3.1-3.2,5.5-7.7,5.5
		c-5.7,0-8.8-4.1-8.8-9.7c0-5.6,3.2-9.4,8.7-9.4c5.4,0,8,4,8.1,8.5V64.6z M956.3,62h10.5c-0.2-2.3-1.9-4.3-5-4.3
		C958.5,57.8,956.7,59.7,956.3,62z"/>
	<path class="st2" d="M985,58.4h-1.5c-3.6,0-5.8,2.2-5.8,6.2v9.1h-3.1V55.6h3v2.2h0.8c0.9-1.1,2.6-2.2,5.3-2.2h1.4V58.4z"/>
	<path class="st2" d="M997.8,65.1v-2.7h9.8v2.7H997.8z"/>
	<path class="st2" d="M1012.6,70l13.9-6v-0.8l-13.9-6.1v-2.7l18.1,8v2.5l-18.1,8V70z"/>
</g>
<g>
	<path class="st2" d="M895.5,122.2c-0.7,3.6-3.4,5.9-7.6,5.9c-5.7,0-8.8-4.2-8.8-9.5c0-5.5,3.2-9.5,8.8-9.5c4.3,0,6.9,2.4,7.5,5.7
		h-3.1c-0.6-1.8-2-3.1-4.5-3.1c-4.1,0-5.8,3.2-5.8,6.8c0,3.6,1.7,6.9,5.8,6.9c2.6,0,4.1-1.3,4.6-3.3H895.5z"/>
	<path class="st2" d="M903.2,101.5v26.2h-3.1v-26.2H903.2z"/>
	<path class="st2" d="M909.1,104.9v-3.3h3.2v3.3H909.1z M912.2,127.7h-3.1v-18.1h3.1V127.7z"/>
	<path class="st2" d="M933.9,118.6h-13.8c0.1,4.3,2.1,6.9,5.8,6.9c2.6,0,4.1-1.1,4.6-2.8h3.1c-0.6,3.1-3.2,5.5-7.7,5.5
		c-5.7,0-8.8-4.1-8.8-9.7c0-5.6,3.2-9.4,8.7-9.4c5.4,0,8,4,8.1,8.5V118.6z M920.3,116h10.5c-0.2-2.3-1.9-4.3-5-4.3
		C922.5,111.8,920.7,113.7,920.3,116z"/>
	<path class="st2" d="M951.8,127.7v-10.9c0-3.3-1.5-5-4.6-5c-3.2,0-5.4,2.8-5.4,6v9.8h-3.1v-18.1h3v1.9h0.8c1-1.4,3-2.4,5.5-2.4
		c4.5,0,6.9,2.7,6.9,7.1v11.5H951.8z"/>
	<path class="st2" d="M969.2,109.6v2.7h-4.6v10c0,1.8,0.8,2.8,3.2,2.8h1.3v2.7h-1.4c-3.9,0-6.2-1.2-6.2-5.1v-10.4h-3.1v-2.7h3.1
		v-5.5h3.1v5.5H969.2z"/>
	<path class="st2" d="M987.9,109.5l1.1-7h2.6l-1.1,7h4.9l1.1-7h2.6l-1.1,7h3.6v2.4h-4l-1,6.3h3.6v2.4h-4l-1.1,7h-2.6l1.1-7h-4.9
		l-1.1,7H985l1.1-7h-3.6v-2.4h4l1-6.3h-3.7v-2.4H987.9z M989.1,118.3h4.9l1-6.3h-4.9L989.1,118.3z"/>
	<path class="st2" d="M1004.6,109.5c0.3-5,3.9-7.5,8.4-7.5c4.7,0,8.2,2.6,8.2,7.7c0,3.4-2.6,6.6-5.6,9.1l-6.3,5.3v0.8h12.7v2.8
		h-17.3v-3.6l3.7-3c2-1.6,4.4-3.6,5.7-4.9c1.7-1.5,3.9-3.6,3.9-6.6c0-3.2-2-4.9-5.1-4.9c-2.8,0-4.8,1.5-5.1,4.6H1004.6z"/>
</g>
<g>
	<path class="st1" d="M1071.1,47.5v26.2h-3v-1.9h-0.8c-1,1.3-2.8,2.4-5.7,2.4c-5,0-8-4.2-8-9.5c0-5.5,3-9.5,8-9.5
		c2.9,0,4.5,1.1,5.5,2.4h0.8v-10H1071.1z M1068.1,64.6c0-3.6-1.7-6.9-5.7-6.9c-3.6,0-5.6,2.8-5.6,6.9c0,4,1.9,6.9,5.6,6.9
		C1066.5,71.5,1068.1,68.2,1068.1,64.6z"/>
	<path class="st1" d="M1092.8,64.6h-13.8c0.1,4.3,2.1,6.9,5.8,6.9c2.6,0,4.1-1.1,4.6-2.8h3.1c-0.6,3.1-3.2,5.5-7.7,5.5
		c-5.7,0-8.8-4.1-8.8-9.7c0-5.6,3.2-9.4,8.7-9.4c5.4,0,8,4,8.1,8.5V64.6z M1079.1,62h10.5c-0.2-2.3-1.9-4.3-5-4.3
		C1081.3,57.8,1079.5,59.7,1079.1,62z"/>
	<path class="st1" d="M1100.6,47.5v26.2h-3.1V47.5H1100.6z"/>
	<path class="st1" d="M1106.5,50.9v-3.3h3.2v3.3H1106.5z M1109.6,73.7h-3.1V55.6h3.1V73.7z"/>
	<path class="st1" d="M1113.5,55.6h3.2l5.1,15.3h1.5l4.9-15.3h3.2l-6.1,18.1h-5.7L1113.5,55.6z"/>
	<path class="st1" d="M1150.5,64.6h-13.8c0.1,4.3,2.1,6.9,5.8,6.9c2.6,0,4.1-1.1,4.6-2.8h3.1c-0.6,3.1-3.2,5.5-7.7,5.5
		c-5.7,0-8.8-4.1-8.8-9.7c0-5.6,3.2-9.4,8.7-9.4c5.4,0,8,4,8.1,8.5V64.6z M1136.8,62h10.5c-0.2-2.3-1.9-4.3-5-4.3
		C1139,57.8,1137.2,59.7,1136.8,62z"/>
	<path class="st1" d="M1165.6,58.4h-1.5c-3.6,0-5.8,2.2-5.8,6.2v9.1h-3.1V55.6h3v2.2h0.8c0.9-1.1,2.6-2.2,5.3-2.2h1.4V58.4z"/>
	<path class="st1" d="M1172.7,80.9l3.7-8.9l-7.7-16.4h3.3l5.5,12h0.9l5-12h3.2l-10.9,25.3H1172.7z"/>
	<path class="st1" d="M1199,65.1v-2.7h9.8v2.7H1199z"/>
	<path class="st1" d="M1213.8,70l13.9-6v-0.8l-13.9-6.1v-2.7l18.1,8v2.5l-18.1,8V70z"/>
</g>
<g>
	<path class="st2" d="M1419.2,73.7v-4.2h3.7v4.2H1419.2z"/>
	<path class="st2" d="M1428.5,73.7v-4.2h3.7v4.2H1428.5z"/>
	<path class="st2" d="M1437.8,73.7v-4.2h3.7v4.2H1437.8z"/>
</g>
<g>
	<path class="st2" d="M1419.2,127.7v-4.2h3.7v4.2H1419.2z"/>
	<path class="st2" d="M1428.5,127.7v-4.2h3.7v4.2H1428.5z"/>
	<path class="st2" d="M1437.8,127.7v-4.2h3.7v4.2H1437.8z"/>
</g>
<g>
	<path class="st2" d="M1419.1,208.6v-4.2h3.7v4.2H1419.1z"/>
	<path class="st2" d="M1428.4,208.6v-4.2h3.7v4.2H1428.4z"/>
	<path class="st2" d="M1437.7,208.6v-4.2h3.7v4.2H1437.7z"/>
</g>
<g>
	<path class="st1" d="M501.1,47.5v26.2h-3v-1.9h-0.8c-1,1.3-2.8,2.4-5.7,2.4c-5,0-8-4.2-8-9.5c0-5.5,3-9.5,8-9.5
		c2.9,0,4.5,1.1,5.5,2.4h0.8v-10H501.1z M498.1,64.6c0-3.6-1.7-6.9-5.7-6.9c-3.6,0-5.6,2.8-5.6,6.9c0,4,1.9,6.9,5.6,6.9
		C496.5,71.5,498.1,68.2,498.1,64.6z"/>
	<path class="st1" d="M522.8,64.6h-13.8c0.1,4.3,2.1,6.9,5.8,6.9c2.6,0,4.1-1.1,4.6-2.8h3.1c-0.6,3.1-3.2,5.5-7.7,5.5
		c-5.7,0-8.8-4.1-8.8-9.7c0-5.6,3.2-9.4,8.7-9.4c5.4,0,8,4,8.1,8.5V64.6z M509.1,62h10.5c-0.2-2.3-1.9-4.3-5-4.3
		C511.3,57.8,509.5,59.7,509.1,62z"/>
	<path class="st1" d="M530.6,47.5v26.2h-3.1V47.5H530.6z"/>
	<path class="st1" d="M536.5,50.9v-3.3h3.2v3.3H536.5z M539.6,73.7h-3.1V55.6h3.1V73.7z"/>
	<path class="st1" d="M543.5,55.6h3.2l5.1,15.3h1.5l4.9-15.3h3.2l-6.1,18.1h-5.7L543.5,55.6z"/>
	<path class="st1" d="M580.5,64.6h-13.8c0.1,4.3,2.1,6.9,5.8,6.9c2.6,0,4.1-1.1,4.6-2.8h3.1c-0.6,3.1-3.2,5.5-7.7,5.5
		c-5.7,0-8.8-4.1-8.8-9.7c0-5.6,3.2-9.4,8.7-9.4c5.4,0,8,4,8.1,8.5V64.6z M566.8,62h10.5c-0.2-2.3-1.9-4.3-5-4.3
		C569,57.8,567.2,59.7,566.8,62z"/>
	<path class="st1" d="M595.6,58.4h-1.5c-3.6,0-5.8,2.2-5.8,6.2v9.1h-3.1V55.6h3v2.2h0.8c0.9-1.1,2.6-2.2,5.3-2.2h1.4V58.4z"/>
	<path class="st1" d="M602.7,80.9l3.7-8.9l-7.7-16.4h3.3l5.5,12h0.9l5-12h3.2l-10.9,25.3H602.7z"/>
	<path class="st1" d="M629,65.1v-2.7h9.8v2.7H629z"/>
	<path class="st1" d="M643.8,70l13.9-6v-0.8L643.8,57v-2.7l18.1,8v2.5l-18.1,8V70z"/>
</g>
<g>
	<path class="st3" d="M675.4,55.6v1.9h0.8c1-1.3,2.8-2.4,5.7-2.4c5,0,8,4.2,8,9.5c0,5.5-3,9.5-8,9.5c-2.9,0-4.6-1.1-5.5-2.4h-0.8
		v9.1h-3.1V55.6H675.4z M675.5,64.6c0,3.6,1.7,6.9,5.7,6.9c3.6,0,5.6-2.8,5.6-6.9c0-4-1.9-6.9-5.6-6.9
		C677.1,57.8,675.5,61.1,675.5,64.6z"/>
	<path class="st3" d="M706.1,71.8h-0.8c-1.1,1.4-3.1,2.4-5.7,2.4c-4.2,0-6.5-2.8-6.5-5.9c0-2.9,1.9-6,6.9-6h5.9v-0.7
		c0-2.2-1.3-3.8-4.4-3.8c-2.7,0-4.1,1-4.2,2.6h-3.1c0.3-3.3,3.1-5.3,7.2-5.3c4.6,0,7.5,2.2,7.5,6.3v12.3h-2.9V71.8z M706,66.4v-1.7
		h-5.4c-3,0-4.4,1.3-4.4,3.5c0,2.1,1.5,3.3,4.2,3.3C703.5,71.5,706,69.2,706,66.4z"/>
	<path class="st3" d="M716.4,80.9l3.7-8.9l-7.7-16.4h3.3l5.5,12h0.9l5-12h3.2l-10.9,25.3H716.4z"/>
	<path class="st3" d="M759,62v11.7H756V62.3c0-3-1.2-4.5-3.5-4.5c-2.8,0-4.4,2.2-4.4,5.3v10.6H745V62.4c0-3-1.2-4.5-3.5-4.5
		c-3,0-4.5,2.6-4.5,5.8v10H734V55.6h3v1.8h0.8c0.9-1.4,2.3-2.2,4.6-2.2c2.2,0,3.8,0.8,4.8,2.4h0.8c1.1-1.6,2.8-2.4,5.1-2.4
		C757.2,55.1,759,57.8,759,62z"/>
	<path class="st3" d="M780.4,64.6h-13.8c0.1,4.3,2.1,6.9,5.8,6.9c2.6,0,4.1-1.1,4.6-2.8h3.1c-0.6,3.1-3.2,5.5-7.7,5.5
		c-5.7,0-8.8-4.1-8.8-9.7c0-5.6,3.2-9.4,8.7-9.4c5.4,0,8,4,8.1,8.5V64.6z M766.7,62h10.5c-0.2-2.3-1.9-4.3-5-4.3
		C768.9,57.8,767.1,59.7,766.7,62z"/>
	<path class="st3" d="M798.2,73.7V62.8c0-3.3-1.5-5-4.6-5c-3.2,0-5.4,2.8-5.4,6v9.8h-3.1V55.6h3v1.9h0.8c1-1.4,3-2.4,5.5-2.4
		c4.5,0,6.9,2.7,6.9,7.1v11.5H798.2z"/>
	<path class="st3" d="M815.6,55.6v2.7h-4.6v10c0,1.8,0.8,2.8,3.2,2.8h1.3v2.7h-1.4c-3.9,0-6.2-1.2-6.2-5.1V58.2h-3.1v-2.7h3.1v-5.5
		h3.1v5.5H815.6z"/>
	<path class="st3" d="M829.5,65.1v-2.7h9.8v2.7H829.5z"/>
	<path class="st3" d="M844.2,70l13.9-6v-0.8L844.2,57v-2.7l18.1,8v2.5l-18.1,8V70z"/>
</g>
<g>
	<path class="st3" d="M1248.7,55.6v1.9h0.8c1-1.3,2.8-2.4,5.7-2.4c5,0,8,4.2,8,9.5c0,5.5-3,9.5-8,9.5c-2.9,0-4.6-1.1-5.5-2.4h-0.8
		v9.1h-3.1V55.6H1248.7z M1248.8,64.6c0,3.6,1.7,6.9,5.7,6.9c3.6,0,5.6-2.8,5.6-6.9c0-4-1.9-6.9-5.6-6.9
		C1250.4,57.8,1248.8,61.1,1248.8,64.6z"/>
	<path class="st3" d="M1279.4,71.8h-0.8c-1.1,1.4-3.1,2.4-5.7,2.4c-4.2,0-6.5-2.8-6.5-5.9c0-2.9,1.9-6,6.9-6h5.9v-0.7
		c0-2.2-1.3-3.8-4.4-3.8c-2.7,0-4.1,1-4.2,2.6h-3.1c0.3-3.3,3.1-5.3,7.2-5.3c4.6,0,7.5,2.2,7.5,6.3v12.3h-2.9V71.8z M1279.3,66.4
		v-1.7h-5.4c-3,0-4.4,1.3-4.4,3.5c0,2.1,1.5,3.3,4.2,3.3C1276.8,71.5,1279.3,69.2,1279.3,66.4z"/>
	<path class="st3" d="M1289.7,80.9l3.7-8.9l-7.7-16.4h3.3l5.5,12h0.9l5-12h3.2l-10.9,25.3H1289.7z"/>
	<path class="st3" d="M1332.3,62v11.7h-3.1V62.3c0-3-1.2-4.5-3.5-4.5c-2.8,0-4.4,2.2-4.4,5.3v10.6h-3.1V62.4c0-3-1.2-4.5-3.5-4.5
		c-3,0-4.5,2.6-4.5,5.8v10h-3.1V55.6h3v1.8h0.8c0.9-1.4,2.3-2.2,4.6-2.2c2.2,0,3.8,0.8,4.8,2.4h0.8c1.1-1.6,2.8-2.4,5.1-2.4
		C1330.5,55.1,1332.3,57.8,1332.3,62z"/>
	<path class="st3" d="M1353.6,64.6h-13.8c0.1,4.3,2.1,6.9,5.8,6.9c2.6,0,4.1-1.1,4.6-2.8h3.1c-0.6,3.1-3.2,5.5-7.7,5.5
		c-5.7,0-8.8-4.1-8.8-9.7c0-5.6,3.2-9.4,8.7-9.4c5.4,0,8,4,8.1,8.5V64.6z M1340,62h10.5c-0.2-2.3-1.9-4.3-5-4.3
		C1342.2,57.8,1340.4,59.7,1340,62z"/>
	<path class="st3" d="M1371.5,73.7V62.8c0-3.3-1.5-5-4.6-5c-3.2,0-5.4,2.8-5.4,6v9.8h-3.1V55.6h3v1.9h0.8c1-1.4,3-2.4,5.5-2.4
		c4.5,0,6.9,2.7,6.9,7.1v11.5H1371.5z"/>
	<path class="st3" d="M1388.9,55.6v2.7h-4.6v10c0,1.8,0.8,2.8,3.2,2.8h1.3v2.7h-1.4c-3.9,0-6.2-1.2-6.2-5.1V58.2h-3.1v-2.7h3.1v-5.5
		h3.1v5.5H1388.9z"/>
</g>
<g>
	<path class="st2" d="M342.8,199.6c0,5.4-3.3,9.5-8.9,9.5c-5.7,0-8.9-4.2-8.9-9.5s3.2-9.5,8.9-9.5
		C339.5,190,342.8,194.2,342.8,199.6z M339.8,199.6c0-3.6-1.9-6.9-5.9-6.9c-4,0-5.9,3.3-5.9,6.9s1.8,6.9,5.9,6.9
		C337.9,206.4,339.8,203.1,339.8,199.6z"/>
	<path class="st2" d="M358,193.4h-1.5c-3.6,0-5.8,2.2-5.8,6.2v9.1h-3.1v-18.1h3v2.2h0.8c0.9-1.1,2.6-2.2,5.3-2.2h1.4V193.4z"/>
	<path class="st2" d="M378.2,182.5v26.2h-3v-1.9h-0.8c-1,1.3-2.8,2.4-5.7,2.4c-5,0-8-4.2-8-9.5c0-5.5,3-9.5,8-9.5
		c2.9,0,4.5,1.1,5.5,2.4h0.8v-10H378.2z M375.2,199.6c0-3.6-1.7-6.9-5.7-6.9c-3.6,0-5.6,2.8-5.6,6.9c0,4,1.9,6.9,5.6,6.9
		C373.5,206.4,375.2,203.1,375.2,199.6z"/>
	<path class="st2" d="M399.8,199.5H386c0.1,4.3,2.1,6.9,5.8,6.9c2.6,0,4.1-1.1,4.6-2.8h3.1c-0.6,3.1-3.2,5.5-7.7,5.5
		c-5.7,0-8.8-4.1-8.8-9.7c0-5.6,3.2-9.4,8.7-9.4c5.4,0,8,4,8.1,8.5V199.5z M386.2,197h10.5c-0.2-2.3-1.9-4.3-5-4.3
		C388.4,192.7,386.6,194.7,386.2,197z"/>
	<path class="st2" d="M415,193.4h-1.5c-3.6,0-5.8,2.2-5.8,6.2v9.1h-3.1v-18.1h3v2.2h0.8c0.9-1.1,2.6-2.2,5.3-2.2h1.4V193.4z"/>
	<path class="st2" d="M427.8,200v-2.7h9.8v2.7H427.8z"/>
	<path class="st2" d="M442.5,204.9l13.9-6v-0.8l-13.9-6.1v-2.7l18.1,8v2.5l-18.1,8V204.9z"/>
</g>
<g>
	<path class="st2" d="M912.8,199.6c0,5.4-3.3,9.5-8.9,9.5c-5.7,0-8.9-4.2-8.9-9.5s3.2-9.5,8.9-9.5
		C909.5,190,912.8,194.2,912.8,199.6z M909.8,199.6c0-3.6-1.9-6.9-5.9-6.9c-4,0-5.9,3.3-5.9,6.9s1.8,6.9,5.9,6.9
		C907.9,206.4,909.8,203.1,909.8,199.6z"/>
	<path class="st2" d="M928,193.4h-1.5c-3.6,0-5.8,2.2-5.8,6.2v9.1h-3.1v-18.1h3v2.2h0.8c0.9-1.1,2.6-2.2,5.3-2.2h1.4V193.4z"/>
	<path class="st2" d="M948.2,182.5v26.2h-3v-1.9h-0.8c-1,1.3-2.8,2.4-5.7,2.4c-5,0-8-4.2-8-9.5c0-5.5,3-9.5,8-9.5
		c2.9,0,4.5,1.1,5.5,2.4h0.8v-10H948.2z M945.2,199.6c0-3.6-1.7-6.9-5.7-6.9c-3.6,0-5.6,2.8-5.6,6.9c0,4,1.9,6.9,5.6,6.9
		C943.5,206.4,945.2,203.1,945.2,199.6z"/>
	<path class="st2" d="M969.8,199.5H956c0.1,4.3,2.1,6.9,5.8,6.9c2.6,0,4.1-1.1,4.6-2.8h3.1c-0.6,3.1-3.2,5.5-7.7,5.5
		c-5.7,0-8.8-4.1-8.8-9.7c0-5.6,3.2-9.4,8.7-9.4c5.4,0,8,4,8.1,8.5V199.5z M956.2,197h10.5c-0.2-2.3-1.9-4.3-5-4.3
		C958.4,192.7,956.6,194.7,956.2,197z"/>
	<path class="st2" d="M985,193.4h-1.5c-3.6,0-5.8,2.2-5.8,6.2v9.1h-3.1v-18.1h3v2.2h0.8c0.9-1.1,2.6-2.2,5.3-2.2h1.4V193.4z"/>
	<path class="st2" d="M997.8,200v-2.7h9.8v2.7H997.8z"/>
	<path class="st2" d="M1012.5,204.9l13.9-6v-0.8l-13.9-6.1v-2.7l18.1,8v2.5l-18.1,8V204.9z"/>
</g>
<g>
	<path class="st1" d="M1071.1,182.5v26.2h-3v-1.9h-0.8c-1,1.3-2.8,2.4-5.7,2.4c-5,0-8-4.2-8-9.5c0-5.5,3-9.5,8-9.5
		c2.9,0,4.5,1.1,5.5,2.4h0.8v-10H1071.1z M1068,199.6c0-3.6-1.7-6.9-5.7-6.9c-3.6,0-5.6,2.8-5.6,6.9c0,4,1.9,6.9,5.6,6.9
		C1066.4,206.4,1068,203.1,1068,199.6z"/>
	<path class="st1" d="M1092.7,199.5h-13.8c0.1,4.3,2.1,6.9,5.8,6.9c2.6,0,4.1-1.1,4.6-2.8h3.1c-0.6,3.1-3.2,5.5-7.7,5.5
		c-5.7,0-8.8-4.1-8.8-9.7c0-5.6,3.2-9.4,8.7-9.4c5.4,0,8,4,8.1,8.5V199.5z M1079.1,197h10.5c-0.2-2.3-1.9-4.3-5-4.3
		C1081.3,192.7,1079.5,194.7,1079.1,197z"/>
	<path class="st1" d="M1100.5,182.5v26.2h-3.1v-26.2H1100.5z"/>
	<path class="st1" d="M1106.4,185.8v-3.3h3.2v3.3H1106.4z M1109.5,208.6h-3.1v-18.1h3.1V208.6z"/>
	<path class="st1" d="M1113.4,190.5h3.2l5.1,15.3h1.5l4.9-15.3h3.2l-6.1,18.1h-5.7L1113.4,190.5z"/>
	<path class="st1" d="M1150.4,199.5h-13.8c0.1,4.3,2.1,6.9,5.8,6.9c2.6,0,4.1-1.1,4.6-2.8h3.1c-0.6,3.1-3.2,5.5-7.7,5.5
		c-5.7,0-8.8-4.1-8.8-9.7c0-5.6,3.2-9.4,8.7-9.4c5.4,0,8,4,8.1,8.5V199.5z M1136.8,197h10.5c-0.2-2.3-1.9-4.3-5-4.3
		C1138.9,192.7,1137.1,194.7,1136.8,197z"/>
	<path class="st1" d="M1165.5,193.4h-1.5c-3.6,0-5.8,2.2-5.8,6.2v9.1h-3.1v-18.1h3v2.2h0.8c0.9-1.1,2.6-2.2,5.3-2.2h1.4V193.4z"/>
	<path class="st1" d="M1172.6,215.8l3.7-8.9l-7.7-16.4h3.3l5.5,12h0.9l5-12h3.2l-10.9,25.3H1172.6z"/>
	<path class="st1" d="M1199,200v-2.7h9.8v2.7H1199z"/>
	<path class="st1" d="M1213.7,204.9l13.9-6v-0.8l-13.9-6.1v-2.7l18.1,8v2.5l-18.1,8V204.9z"/>
</g>
<g>
	<path class="st1" d="M501.1,182.5v26.2h-3v-1.9h-0.8c-1,1.3-2.8,2.4-5.7,2.4c-5,0-8-4.2-8-9.5c0-5.5,3-9.5,8-9.5
		c2.9,0,4.5,1.1,5.5,2.4h0.8v-10H501.1z M498,199.6c0-3.6-1.7-6.9-5.7-6.9c-3.6,0-5.6,2.8-5.6,6.9c0,4,1.9,6.9,5.6,6.9
		C496.4,206.4,498,203.1,498,199.6z"/>
	<path class="st1" d="M522.7,199.5h-13.8c0.1,4.3,2.1,6.9,5.8,6.9c2.6,0,4.1-1.1,4.6-2.8h3.1c-0.6,3.1-3.2,5.5-7.7,5.5
		c-5.7,0-8.8-4.1-8.8-9.7c0-5.6,3.2-9.4,8.7-9.4c5.4,0,8,4,8.1,8.5V199.5z M509.1,197h10.5c-0.2-2.3-1.9-4.3-5-4.3
		C511.3,192.7,509.5,194.7,509.1,197z"/>
	<path class="st1" d="M530.5,182.5v26.2h-3.1v-26.2H530.5z"/>
	<path class="st1" d="M536.4,185.8v-3.3h3.2v3.3H536.4z M539.5,208.6h-3.1v-18.1h3.1V208.6z"/>
	<path class="st1" d="M543.4,190.5h3.2l5.1,15.3h1.5l4.9-15.3h3.2l-6.1,18.1h-5.7L543.4,190.5z"/>
	<path class="st1" d="M580.4,199.5h-13.8c0.1,4.3,2.1,6.9,5.8,6.9c2.6,0,4.1-1.1,4.6-2.8h3.1c-0.6,3.1-3.2,5.5-7.7,5.5
		c-5.7,0-8.8-4.1-8.8-9.7c0-5.6,3.2-9.4,8.7-9.4c5.4,0,8,4,8.1,8.5V199.5z M566.8,197h10.5c-0.2-2.3-1.9-4.3-5-4.3
		C568.9,192.7,567.1,194.7,566.8,197z"/>
	<path class="st1" d="M595.5,193.4H594c-3.6,0-5.8,2.2-5.8,6.2v9.1h-3.1v-18.1h3v2.2h0.8c0.9-1.1,2.6-2.2,5.3-2.2h1.4V193.4z"/>
	<path class="st1" d="M602.6,215.8l3.7-8.9l-7.7-16.4h3.3l5.5,12h0.9l5-12h3.2l-10.9,25.3H602.6z"/>
	<path class="st1" d="M629,200v-2.7h9.8v2.7H629z"/>
	<path class="st1" d="M643.7,204.9l13.9-6v-0.8l-13.9-6.1v-2.7l18.1,8v2.5l-18.1,8V204.9z"/>
</g>
<g>
	<path class="st3" d="M675.3,190.5v1.9h0.8c1-1.3,2.8-2.4,5.7-2.4c5,0,8,4.2,8,9.5c0,5.5-3,9.5-8,9.5c-2.9,0-4.6-1.1-5.5-2.4h-0.8
		v9.1h-3.1v-25.3H675.3z M675.4,199.6c0,3.6,1.7,6.9,5.7,6.9c3.6,0,5.6-2.8,5.6-6.9c0-4-1.9-6.9-5.6-6.9
		C677.1,192.7,675.4,196,675.4,199.6z"/>
	<path class="st3" d="M706.1,206.7h-0.8c-1.1,1.4-3.1,2.4-5.7,2.4c-4.2,0-6.5-2.8-6.5-5.9c0-2.9,1.9-6,6.9-6h5.9v-0.7
		c0-2.2-1.3-3.8-4.4-3.8c-2.7,0-4.1,1-4.2,2.6h-3.1c0.3-3.3,3.1-5.3,7.2-5.3c4.6,0,7.5,2.2,7.5,6.3v12.3h-2.9V206.7z M706,201.3
		v-1.7h-5.4c-3,0-4.4,1.3-4.4,3.5c0,2.1,1.5,3.3,4.2,3.3C703.4,206.4,706,204.2,706,201.3z"/>
	<path class="st3" d="M716.4,215.8l3.7-8.9l-7.7-16.4h3.3l5.5,12h0.9l5-12h3.2l-10.9,25.3H716.4z"/>
	<path class="st3" d="M759,196.9v11.7h-3.1v-11.4c0-3-1.2-4.5-3.5-4.5c-2.8,0-4.4,2.2-4.4,5.3v10.6h-3.1v-11.3c0-3-1.2-4.5-3.5-4.5
		c-3,0-4.5,2.6-4.5,5.8v10h-3.1v-18.1h3v1.8h0.8c0.9-1.4,2.3-2.2,4.6-2.2c2.2,0,3.8,0.8,4.8,2.4h0.8c1.1-1.6,2.8-2.4,5.1-2.4
		C757.2,190,759,192.7,759,196.9z"/>
	<path class="st3" d="M780.3,199.5h-13.8c0.1,4.3,2.1,6.9,5.8,6.9c2.6,0,4.1-1.1,4.6-2.8h3.1c-0.6,3.1-3.2,5.5-7.7,5.5
		c-5.7,0-8.8-4.1-8.8-9.7c0-5.6,3.2-9.4,8.7-9.4c5.4,0,8,4,8.1,8.5V199.5z M766.7,197h10.5c-0.2-2.3-1.9-4.3-5-4.3
		C768.9,192.7,767.1,194.7,766.7,197z"/>
	<path class="st3" d="M798.1,208.6v-10.9c0-3.3-1.5-5-4.6-5c-3.2,0-5.4,2.8-5.4,6v9.8H785v-18.1h3v1.9h0.8c1-1.4,3-2.4,5.5-2.4
		c4.5,0,6.9,2.7,6.9,7.1v11.5H798.1z"/>
	<path class="st3" d="M815.6,190.5v2.7H811v10c0,1.8,0.8,2.8,3.2,2.8h1.3v2.7h-1.4c-3.9,0-6.2-1.2-6.2-5.1v-10.4h-3.1v-2.7h3.1V185
		h3.1v5.5H815.6z"/>
	<path class="st3" d="M829.4,200v-2.7h9.8v2.7H829.4z"/>
	<path class="st3" d="M844.1,204.9l13.9-6v-0.8l-13.9-6.1v-2.7l18.1,8v2.5l-18.1,8V204.9z"/>
</g>
<g>
	<path class="st3" d="M1248.6,190.5v1.9h0.8c1-1.3,2.8-2.4,5.7-2.4c5,0,8,4.2,8,9.5c0,5.5-3,9.5-8,9.5c-2.9,0-4.6-1.1-5.5-2.4h-0.8
		v9.1h-3.1v-25.3H1248.6z M1248.7,199.6c0,3.6,1.7,6.9,5.7,6.9c3.6,0,5.6-2.8,5.6-6.9c0-4-1.9-6.9-5.6-6.9
		C1250.4,192.7,1248.7,196,1248.7,199.6z"/>
	<path class="st3" d="M1279.4,206.7h-0.8c-1.1,1.4-3.1,2.4-5.7,2.4c-4.2,0-6.5-2.8-6.5-5.9c0-2.9,1.9-6,6.9-6h5.9v-0.7
		c0-2.2-1.3-3.8-4.4-3.8c-2.7,0-4.1,1-4.2,2.6h-3.1c0.3-3.3,3.1-5.3,7.2-5.3c4.6,0,7.5,2.2,7.5,6.3v12.3h-2.9V206.7z M1279.3,201.3
		v-1.7h-5.4c-3,0-4.4,1.3-4.4,3.5c0,2.1,1.5,3.3,4.2,3.3C1276.7,206.4,1279.3,204.2,1279.3,201.3z"/>
	<path class="st3" d="M1289.7,215.8l3.7-8.9l-7.7-16.4h3.3l5.5,12h0.9l5-12h3.2l-10.9,25.3H1289.7z"/>
	<path class="st3" d="M1332.2,196.9v11.7h-3.1v-11.4c0-3-1.2-4.5-3.5-4.5c-2.8,0-4.4,2.2-4.4,5.3v10.6h-3.1v-11.3
		c0-3-1.2-4.5-3.5-4.5c-3,0-4.5,2.6-4.5,5.8v10h-3.1v-18.1h3v1.8h0.8c0.9-1.4,2.3-2.2,4.6-2.2c2.2,0,3.8,0.8,4.8,2.4h0.8
		c1.1-1.6,2.8-2.4,5.1-2.4C1330.4,190,1332.2,192.7,1332.2,196.9z"/>
	<path class="st3" d="M1353.6,199.5h-13.8c0.1,4.3,2.1,6.9,5.8,6.9c2.6,0,4.1-1.1,4.6-2.8h3.1c-0.6,3.1-3.2,5.5-7.7,5.5
		c-5.7,0-8.8-4.1-8.8-9.7c0-5.6,3.2-9.4,8.7-9.4c5.4,0,8,4,8.1,8.5V199.5z M1339.9,197h10.5c-0.2-2.3-1.9-4.3-5-4.3
		C1342.1,192.7,1340.3,194.7,1339.9,197z"/>
	<path class="st3" d="M1371.4,208.6v-10.9c0-3.3-1.5-5-4.6-5c-3.2,0-5.4,2.8-5.4,6v9.8h-3.1v-18.1h3v1.9h0.8c1-1.4,3-2.4,5.5-2.4
		c4.5,0,6.9,2.7,6.9,7.1v11.5H1371.4z"/>
	<path class="st3" d="M1388.9,190.5v2.7h-4.6v10c0,1.8,0.8,2.8,3.2,2.8h1.3v2.7h-1.4c-3.9,0-6.2-1.2-6.2-5.1v-10.4h-3.1v-2.7h3.1
		V185h3.1v5.5H1388.9z"/>
</g>
<path class="st0" d="M1389.5,772.3H280.7c-4.3,0-7.7-3.4-7.7-7.7V720c0-4.3,3.4-7.7,7.7-7.7h1108.9c4.3,0,7.7,3.4,7.7,7.7v44.6
	C1397.2,768.9,1393.8,772.3,1389.5,772.3z"/>
<path class="st0" d="M1389.5,917.3H280.7c-4.3,0-7.7-3.4-7.7-7.7V865c0-4.3,3.4-7.7,7.7-7.7h1108.9c4.3,0,7.7,3.4,7.7,7.7v44.6
	C1397.2,913.9,1393.8,917.3,1389.5,917.3z"/>
<path class="st1" d="M441.1,772.3H280.8c-4.3,0-7.7-3.4-7.7-7.7V720c0-4.3,3.4-7.7,7.7-7.7h160.3V772.3z"/>
<path class="st1" d="M441.1,917.3H280.8c-4.3,0-7.7-3.4-7.7-7.7V865c0-4.3,3.4-7.7,7.7-7.7h160.3V917.3z"/>
<path class="st2" d="M1220.6,712.3h168.5c4.5,0,8.1,3.4,8.1,7.7v44.6c0,4.3-3.6,7.7-8.1,7.7h-168.5V712.3z"/>
<path class="st2" d="M1220.6,857.3h168.5c4.5,0,8.1,3.4,8.1,7.7v44.6c0,4.3-3.6,7.7-8.1,7.7h-168.5V857.3z"/>
<rect x="835.2" y="712.3" class="st1" width="183.6" height="60"/>
<rect x="642.6" y="712.3" class="st2" width="192.5" height="60"/>
<rect x="832.6" y="857.3" class="st1" width="183.6" height="60"/>
<rect x="640" y="857.3" class="st2" width="192.5" height="60"/>
<g>
	<path class="st2" d="M335,743.2c0,5.4-3.3,9.5-8.9,9.5c-5.7,0-8.9-4.2-8.9-9.5s3.2-9.5,8.9-9.5C331.7,733.6,335,737.8,335,743.2z
		 M331.9,743.2c0-3.6-1.9-6.9-5.9-6.9c-4,0-5.9,3.3-5.9,6.9s1.8,6.9,5.9,6.9C330.1,750,331.9,746.7,331.9,743.2z"/>
	<path class="st2" d="M350.1,737h-1.5c-3.6,0-5.8,2.2-5.8,6.2v9.1h-3.1v-18.1h3v2.2h0.8c0.9-1.1,2.6-2.2,5.3-2.2h1.4V737z"/>
	<path class="st2" d="M370.4,726.1v26.2h-3v-1.9h-0.8c-1,1.3-2.8,2.4-5.7,2.4c-5,0-8-4.2-8-9.5c0-5.5,3-9.5,8-9.5
		c2.9,0,4.5,1.1,5.5,2.4h0.8v-10H370.4z M367.3,743.2c0-3.6-1.7-6.9-5.7-6.9c-3.6,0-5.6,2.8-5.6,6.9c0,4,1.9,6.9,5.6,6.9
		C365.7,750,367.3,746.7,367.3,743.2z"/>
	<path class="st2" d="M392,743.1h-13.8c0.1,4.3,2.1,6.9,5.8,6.9c2.6,0,4.1-1.1,4.6-2.8h3.1c-0.6,3.1-3.2,5.5-7.7,5.5
		c-5.7,0-8.8-4.1-8.8-9.7c0-5.6,3.2-9.4,8.7-9.4c5.4,0,8,4,8.1,8.5V743.1z M378.4,740.6h10.5c-0.2-2.3-1.9-4.3-5-4.3
		C380.6,736.3,378.8,738.3,378.4,740.6z"/>
	<path class="st2" d="M407.1,737h-1.5c-3.6,0-5.8,2.2-5.8,6.2v9.1h-3.1v-18.1h3v2.2h0.8c0.9-1.1,2.6-2.2,5.3-2.2h1.4V737z"/>
	<path class="st2" d="M419.9,743.6v-2.7h9.8v2.7H419.9z"/>
	<path class="st2" d="M434.7,748.5l13.9-6v-0.8l-13.9-6.1v-2.7l18.1,8v2.5l-18.1,8V748.5z"/>
</g>
<g>
	<path class="st2" d="M905,743.2c0,5.4-3.3,9.5-8.9,9.5c-5.7,0-8.9-4.2-8.9-9.5s3.2-9.5,8.9-9.5C901.7,733.6,905,737.8,905,743.2z
		 M901.9,743.2c0-3.6-1.9-6.9-5.9-6.9c-4,0-5.9,3.3-5.9,6.9s1.8,6.9,5.9,6.9C900.1,750,901.9,746.7,901.9,743.2z"/>
	<path class="st2" d="M920.1,737h-1.5c-3.6,0-5.8,2.2-5.8,6.2v9.1h-3.1v-18.1h3v2.2h0.8c0.9-1.1,2.6-2.2,5.3-2.2h1.4V737z"/>
	<path class="st2" d="M940.4,726.1v26.2h-3v-1.9h-0.8c-1,1.3-2.8,2.4-5.7,2.4c-5,0-8-4.2-8-9.5c0-5.5,3-9.5,8-9.5
		c2.9,0,4.5,1.1,5.5,2.4h0.8v-10H940.4z M937.3,743.2c0-3.6-1.7-6.9-5.7-6.9c-3.6,0-5.6,2.8-5.6,6.9c0,4,1.9,6.9,5.6,6.9
		C935.7,750,937.3,746.7,937.3,743.2z"/>
	<path class="st2" d="M962,743.1h-13.8c0.1,4.3,2.1,6.9,5.8,6.9c2.6,0,4.1-1.1,4.6-2.8h3.1c-0.6,3.1-3.2,5.5-7.7,5.5
		c-5.7,0-8.8-4.1-8.8-9.7c0-5.6,3.2-9.4,8.7-9.4c5.4,0,8,4,8.1,8.5V743.1z M948.4,740.6h10.5c-0.2-2.3-1.9-4.3-5-4.3
		C950.6,736.3,948.8,738.3,948.4,740.6z"/>
	<path class="st2" d="M977.1,737h-1.5c-3.6,0-5.8,2.2-5.8,6.2v9.1h-3.1v-18.1h3v2.2h0.8c0.9-1.1,2.6-2.2,5.3-2.2h1.4V737z"/>
	<path class="st2" d="M989.9,743.6v-2.7h9.8v2.7H989.9z"/>
	<path class="st2" d="M1004.7,748.5l13.9-6v-0.8l-13.9-6.1v-2.7l18.1,8v2.5l-18.1,8V748.5z"/>
</g>
<g>
	<path class="st1" d="M1063.2,726.1v26.2h-3v-1.9h-0.8c-1,1.3-2.8,2.4-5.7,2.4c-5,0-8-4.2-8-9.5c0-5.5,3-9.5,8-9.5
		c2.9,0,4.5,1.1,5.5,2.4h0.8v-10H1063.2z M1060.2,743.2c0-3.6-1.7-6.9-5.7-6.9c-3.6,0-5.6,2.8-5.6,6.9c0,4,1.9,6.9,5.6,6.9
		C1058.6,750,1060.2,746.7,1060.2,743.2z"/>
	<path class="st1" d="M1084.9,743.1H1071c0.1,4.3,2.1,6.9,5.8,6.9c2.6,0,4.1-1.1,4.6-2.8h3.1c-0.6,3.1-3.2,5.5-7.7,5.5
		c-5.7,0-8.8-4.1-8.8-9.7c0-5.6,3.2-9.4,8.7-9.4c5.4,0,8,4,8.1,8.5V743.1z M1071.2,740.6h10.5c-0.2-2.3-1.9-4.3-5-4.3
		C1073.4,736.3,1071.6,738.3,1071.2,740.6z"/>
	<path class="st1" d="M1092.7,726.1v26.2h-3.1v-26.2H1092.7z"/>
	<path class="st1" d="M1098.6,729.4v-3.3h3.2v3.3H1098.6z M1101.7,752.2h-3.1v-18.1h3.1V752.2z"/>
	<path class="st1" d="M1105.6,734.1h3.2l5.1,15.3h1.5l4.9-15.3h3.2l-6.1,18.1h-5.7L1105.6,734.1z"/>
	<path class="st1" d="M1142.6,743.1h-13.8c0.1,4.3,2.1,6.9,5.8,6.9c2.6,0,4.1-1.1,4.6-2.8h3.1c-0.6,3.1-3.2,5.5-7.7,5.5
		c-5.7,0-8.8-4.1-8.8-9.7c0-5.6,3.2-9.4,8.7-9.4c5.4,0,8,4,8.1,8.5V743.1z M1128.9,740.6h10.5c-0.2-2.3-1.9-4.3-5-4.3
		C1131.1,736.3,1129.3,738.3,1128.9,740.6z"/>
	<path class="st1" d="M1157.7,737h-1.5c-3.6,0-5.8,2.2-5.8,6.2v9.1h-3.1v-18.1h3v2.2h0.8c0.9-1.1,2.6-2.2,5.3-2.2h1.4V737z"/>
	<path class="st1" d="M1164.8,759.4l3.7-8.9l-7.7-16.4h3.3l5.5,12h0.9l5-12h3.2l-10.9,25.3H1164.8z"/>
	<path class="st1" d="M1191.1,743.6v-2.7h9.8v2.7H1191.1z"/>
	<path class="st1" d="M1205.9,748.5l13.9-6v-0.8l-13.9-6.1v-2.7l18.1,8v2.5l-18.1,8V748.5z"/>
</g>
<g>
	<path class="st2" d="M1411.3,752.2v-4.2h3.7v4.2H1411.3z"/>
	<path class="st2" d="M1420.6,752.2v-4.2h3.7v4.2H1420.6z"/>
	<path class="st2" d="M1429.9,752.2v-4.2h3.7v4.2H1429.9z"/>
</g>
<g>
	<path class="st2" d="M1411.3,806.2v-4.2h3.7v4.2H1411.3z"/>
	<path class="st2" d="M1420.6,806.2v-4.2h3.7v4.2H1420.6z"/>
	<path class="st2" d="M1429.9,806.2v-4.2h3.7v4.2H1429.9z"/>
</g>
<g>
	<path class="st2" d="M1411.2,897.2V893h3.7v4.2H1411.2z"/>
	<path class="st2" d="M1420.5,897.2V893h3.7v4.2H1420.5z"/>
	<path class="st2" d="M1429.8,897.2V893h3.7v4.2H1429.8z"/>
</g>
<g>
	<path class="st1" d="M493.2,726.1v26.2h-3v-1.9h-0.8c-1,1.3-2.8,2.4-5.7,2.4c-5,0-8-4.2-8-9.5c0-5.5,3-9.5,8-9.5
		c2.9,0,4.5,1.1,5.5,2.4h0.8v-10H493.2z M490.2,743.2c0-3.6-1.7-6.9-5.7-6.9c-3.6,0-5.6,2.8-5.6,6.9c0,4,1.9,6.9,5.6,6.9
		C488.6,750,490.2,746.7,490.2,743.2z"/>
	<path class="st1" d="M514.9,743.1H501c0.1,4.3,2.1,6.9,5.8,6.9c2.6,0,4.1-1.1,4.6-2.8h3.1c-0.6,3.1-3.2,5.5-7.7,5.5
		c-5.7,0-8.8-4.1-8.8-9.7c0-5.6,3.2-9.4,8.7-9.4c5.4,0,8,4,8.1,8.5V743.1z M501.2,740.6h10.5c-0.2-2.3-1.9-4.3-5-4.3
		C503.4,736.3,501.6,738.3,501.2,740.6z"/>
	<path class="st1" d="M522.7,726.1v26.2h-3.1v-26.2H522.7z"/>
	<path class="st1" d="M528.6,729.4v-3.3h3.2v3.3H528.6z M531.7,752.2h-3.1v-18.1h3.1V752.2z"/>
	<path class="st1" d="M535.6,734.1h3.2l5.1,15.3h1.5l4.9-15.3h3.2l-6.1,18.1h-5.7L535.6,734.1z"/>
	<path class="st1" d="M572.6,743.1h-13.8c0.1,4.3,2.1,6.9,5.8,6.9c2.6,0,4.1-1.1,4.6-2.8h3.1c-0.6,3.1-3.2,5.5-7.7,5.5
		c-5.7,0-8.8-4.1-8.8-9.7c0-5.6,3.2-9.4,8.7-9.4c5.4,0,8,4,8.1,8.5V743.1z M558.9,740.6h10.5c-0.2-2.3-1.9-4.3-5-4.3
		C561.1,736.3,559.3,738.3,558.9,740.6z"/>
	<path class="st1" d="M587.7,737h-1.5c-3.6,0-5.8,2.2-5.8,6.2v9.1h-3.1v-18.1h3v2.2h0.8c0.9-1.1,2.6-2.2,5.3-2.2h1.4V737z"/>
	<path class="st1" d="M594.8,759.4l3.7-8.9l-7.7-16.4h3.3l5.5,12h0.9l5-12h3.2l-10.9,25.3H594.8z"/>
	<path class="st1" d="M621.1,743.6v-2.7h9.8v2.7H621.1z"/>
	<path class="st1" d="M635.9,748.5l13.9-6v-0.8l-13.9-6.1v-2.7l18.1,8v2.5l-18.1,8V748.5z"/>
</g>
<g>
	<path class="st3" d="M667.5,734.1v1.9h0.8c1-1.3,2.8-2.4,5.7-2.4c5,0,8,4.2,8,9.5c0,5.5-3,9.5-8,9.5c-2.9,0-4.6-1.1-5.5-2.4h-0.8
		v9.1h-3.1v-25.3H667.5z M667.6,743.2c0,3.6,1.7,6.9,5.7,6.9c3.6,0,5.6-2.8,5.6-6.9c0-4-1.9-6.9-5.6-6.9
		C669.2,736.3,667.6,739.6,667.6,743.2z"/>
	<path class="st3" d="M698.2,750.3h-0.8c-1.1,1.4-3.1,2.4-5.7,2.4c-4.2,0-6.5-2.8-6.5-5.9c0-2.9,1.9-6,6.9-6h5.9v-0.7
		c0-2.2-1.3-3.8-4.4-3.8c-2.7,0-4.1,1-4.2,2.6h-3.1c0.3-3.3,3.1-5.3,7.2-5.3c4.6,0,7.5,2.2,7.5,6.3v12.3h-2.9V750.3z M698.1,744.9
		v-1.7h-5.4c-3,0-4.4,1.3-4.4,3.5c0,2.1,1.5,3.3,4.2,3.3C695.6,750,698.1,747.8,698.1,744.9z"/>
	<path class="st3" d="M708.5,759.4l3.7-8.9l-7.7-16.4h3.3l5.5,12h0.9l5-12h3.2l-10.9,25.3H708.5z"/>
	<path class="st3" d="M751.1,740.5v11.7h-3.1v-11.4c0-3-1.2-4.5-3.5-4.5c-2.8,0-4.4,2.2-4.4,5.3v10.6h-3.1v-11.3
		c0-3-1.2-4.5-3.5-4.5c-3,0-4.5,2.6-4.5,5.8v10h-3.1v-18.1h3v1.8h0.8c0.9-1.4,2.3-2.2,4.6-2.2c2.2,0,3.8,0.8,4.8,2.4h0.8
		c1.1-1.6,2.8-2.4,5.1-2.4C749.3,733.6,751.1,736.3,751.1,740.5z"/>
	<path class="st3" d="M772.5,743.1h-13.8c0.1,4.3,2.1,6.9,5.8,6.9c2.6,0,4.1-1.1,4.6-2.8h3.1c-0.6,3.1-3.2,5.5-7.7,5.5
		c-5.7,0-8.8-4.1-8.8-9.7c0-5.6,3.2-9.4,8.7-9.4c5.4,0,8,4,8.1,8.5V743.1z M758.8,740.6h10.5c-0.2-2.3-1.9-4.3-5-4.3
		C761,736.3,759.2,738.3,758.8,740.6z"/>
	<path class="st3" d="M790.3,752.2v-10.9c0-3.3-1.5-5-4.6-5c-3.2,0-5.4,2.8-5.4,6v9.8h-3.1v-18.1h3v1.9h0.8c1-1.4,3-2.4,5.5-2.4
		c4.5,0,6.9,2.7,6.9,7.1v11.5H790.3z"/>
	<path class="st3" d="M807.7,734.1v2.7h-4.6v10c0,1.8,0.8,2.8,3.2,2.8h1.3v2.7h-1.4c-3.9,0-6.2-1.2-6.2-5.1v-10.4H797v-2.7h3.1v-5.5
		h3.1v5.5H807.7z"/>
	<path class="st3" d="M821.6,743.6v-2.7h9.8v2.7H821.6z"/>
	<path class="st3" d="M836.3,748.5l13.9-6v-0.8l-13.9-6.1v-2.7l18.1,8v2.5l-18.1,8V748.5z"/>
</g>
<g>
	<path class="st3" d="M1240.8,734.1v1.9h0.8c1-1.3,2.8-2.4,5.7-2.4c5,0,8,4.2,8,9.5c0,5.5-3,9.5-8,9.5c-2.9,0-4.6-1.1-5.5-2.4h-0.8
		v9.1h-3.1v-25.3H1240.8z M1240.9,743.2c0,3.6,1.7,6.9,5.7,6.9c3.6,0,5.6-2.8,5.6-6.9c0-4-1.9-6.9-5.6-6.9
		C1242.5,736.3,1240.9,739.6,1240.9,743.2z"/>
	<path class="st3" d="M1271.5,750.3h-0.8c-1.1,1.4-3.1,2.4-5.7,2.4c-4.2,0-6.5-2.8-6.5-5.9c0-2.9,1.9-6,6.9-6h5.9v-0.7
		c0-2.2-1.3-3.8-4.4-3.8c-2.7,0-4.1,1-4.2,2.6h-3.1c0.3-3.3,3.1-5.3,7.2-5.3c4.6,0,7.5,2.2,7.5,6.3v12.3h-2.9V750.3z M1271.4,744.9
		v-1.7h-5.4c-3,0-4.4,1.3-4.4,3.5c0,2.1,1.5,3.3,4.2,3.3C1268.9,750,1271.4,747.8,1271.4,744.9z"/>
	<path class="st3" d="M1281.8,759.4l3.7-8.9l-7.7-16.4h3.3l5.5,12h0.9l5-12h3.2l-10.9,25.3H1281.8z"/>
	<path class="st3" d="M1324.4,740.5v11.7h-3.1v-11.4c0-3-1.2-4.5-3.5-4.5c-2.8,0-4.4,2.2-4.4,5.3v10.6h-3.1v-11.3
		c0-3-1.2-4.5-3.5-4.5c-3,0-4.5,2.6-4.5,5.8v10h-3.1v-18.1h3v1.8h0.8c0.9-1.4,2.3-2.2,4.6-2.2c2.2,0,3.8,0.8,4.8,2.4h0.8
		c1.1-1.6,2.8-2.4,5.1-2.4C1322.6,733.6,1324.4,736.3,1324.4,740.5z"/>
	<path class="st3" d="M1345.7,743.1h-13.8c0.1,4.3,2.1,6.9,5.8,6.9c2.6,0,4.1-1.1,4.6-2.8h3.1c-0.6,3.1-3.2,5.5-7.7,5.5
		c-5.7,0-8.8-4.1-8.8-9.7c0-5.6,3.2-9.4,8.7-9.4c5.4,0,8,4,8.1,8.5V743.1z M1332.1,740.6h10.5c-0.2-2.3-1.9-4.3-5-4.3
		C1334.3,736.3,1332.5,738.3,1332.1,740.6z"/>
	<path class="st3" d="M1363.6,752.2v-10.9c0-3.3-1.5-5-4.6-5c-3.2,0-5.4,2.8-5.4,6v9.8h-3.1v-18.1h3v1.9h0.8c1-1.4,3-2.4,5.5-2.4
		c4.5,0,6.9,2.7,6.9,7.1v11.5H1363.6z"/>
	<path class="st3" d="M1381,734.1v2.7h-4.6v10c0,1.8,0.8,2.8,3.2,2.8h1.3v2.7h-1.4c-3.9,0-6.2-1.2-6.2-5.1v-10.4h-3.1v-2.7h3.1v-5.5
		h3.1v5.5H1381z"/>
</g>
<g>
	<path class="st2" d="M334.9,888.1c0,5.4-3.3,9.5-8.9,9.5c-5.7,0-8.9-4.2-8.9-9.5s3.2-9.5,8.9-9.5
		C331.6,878.6,334.9,882.7,334.9,888.1z M331.9,888.1c0-3.6-1.9-6.9-5.9-6.9c-4,0-5.9,3.3-5.9,6.9s1.8,6.9,5.9,6.9
		C330,895,331.9,891.7,331.9,888.1z"/>
	<path class="st2" d="M350.1,881.9h-1.5c-3.6,0-5.8,2.2-5.8,6.2v9.1h-3.1V879h3v2.2h0.8c0.9-1.1,2.6-2.2,5.3-2.2h1.4V881.9z"/>
	<path class="st2" d="M370.3,871v26.2h-3v-1.9h-0.8c-1,1.3-2.8,2.4-5.7,2.4c-5,0-8-4.2-8-9.5c0-5.5,3-9.5,8-9.5
		c2.9,0,4.5,1.1,5.5,2.4h0.8v-10H370.3z M367.3,888.1c0-3.6-1.7-6.9-5.7-6.9c-3.6,0-5.6,2.8-5.6,6.9c0,4,1.9,6.9,5.6,6.9
		C365.6,895,367.3,891.7,367.3,888.1z"/>
	<path class="st2" d="M391.9,888.1h-13.8c0.1,4.3,2.1,6.9,5.8,6.9c2.6,0,4.1-1.1,4.6-2.8h3.1c-0.6,3.1-3.2,5.5-7.7,5.5
		c-5.7,0-8.8-4.1-8.8-9.7c0-5.6,3.2-9.4,8.7-9.4c5.4,0,8,4,8.1,8.5V888.1z M378.3,885.5h10.5c-0.2-2.3-1.9-4.3-5-4.3
		C380.5,881.2,378.7,883.2,378.3,885.5z"/>
	<path class="st2" d="M407,881.9h-1.5c-3.6,0-5.8,2.2-5.8,6.2v9.1h-3.1V879h3v2.2h0.8c0.9-1.1,2.6-2.2,5.3-2.2h1.4V881.9z"/>
	<path class="st2" d="M419.9,888.5v-2.7h9.8v2.7H419.9z"/>
	<path class="st2" d="M434.6,893.4l13.9-6v-0.8l-13.9-6.1v-2.7l18.1,8v2.5l-18.1,8V893.4z"/>
</g>
<g>
	<path class="st2" d="M904.9,888.1c0,5.4-3.3,9.5-8.9,9.5c-5.7,0-8.9-4.2-8.9-9.5s3.2-9.5,8.9-9.5
		C901.6,878.6,904.9,882.7,904.9,888.1z M901.9,888.1c0-3.6-1.9-6.9-5.9-6.9c-4,0-5.9,3.3-5.9,6.9s1.8,6.9,5.9,6.9
		C900,895,901.9,891.7,901.9,888.1z"/>
	<path class="st2" d="M920.1,881.9h-1.5c-3.6,0-5.8,2.2-5.8,6.2v9.1h-3.1V879h3v2.2h0.8c0.9-1.1,2.6-2.2,5.3-2.2h1.4V881.9z"/>
	<path class="st2" d="M940.3,871v26.2h-3v-1.9h-0.8c-1,1.3-2.8,2.4-5.7,2.4c-5,0-8-4.2-8-9.5c0-5.5,3-9.5,8-9.5
		c2.9,0,4.5,1.1,5.5,2.4h0.8v-10H940.3z M937.3,888.1c0-3.6-1.7-6.9-5.7-6.9c-3.6,0-5.6,2.8-5.6,6.9c0,4,1.9,6.9,5.6,6.9
		C935.6,895,937.3,891.7,937.3,888.1z"/>
	<path class="st2" d="M961.9,888.1h-13.8c0.1,4.3,2.1,6.9,5.8,6.9c2.6,0,4.1-1.1,4.6-2.8h3.1c-0.6,3.1-3.2,5.5-7.7,5.5
		c-5.7,0-8.8-4.1-8.8-9.7c0-5.6,3.2-9.4,8.7-9.4c5.4,0,8,4,8.1,8.5V888.1z M948.3,885.5h10.5c-0.2-2.3-1.9-4.3-5-4.3
		C950.5,881.2,948.7,883.2,948.3,885.5z"/>
	<path class="st2" d="M977,881.9h-1.5c-3.6,0-5.8,2.2-5.8,6.2v9.1h-3.1V879h3v2.2h0.8c0.9-1.1,2.6-2.2,5.3-2.2h1.4V881.9z"/>
	<path class="st2" d="M989.9,888.5v-2.7h9.8v2.7H989.9z"/>
	<path class="st2" d="M1004.6,893.4l13.9-6v-0.8l-13.9-6.1v-2.7l18.1,8v2.5l-18.1,8V893.4z"/>
</g>
<g>
	<path class="st1" d="M1063.2,871v26.2h-3v-1.9h-0.8c-1,1.3-2.8,2.4-5.7,2.4c-5,0-8-4.2-8-9.5c0-5.5,3-9.5,8-9.5
		c2.9,0,4.5,1.1,5.5,2.4h0.8v-10H1063.2z M1060.1,888.1c0-3.6-1.7-6.9-5.7-6.9c-3.6,0-5.6,2.8-5.6,6.9c0,4,1.9,6.9,5.6,6.9
		C1058.5,895,1060.1,891.7,1060.1,888.1z"/>
	<path class="st1" d="M1084.8,888.1H1071c0.1,4.3,2.1,6.9,5.8,6.9c2.6,0,4.1-1.1,4.6-2.8h3.1c-0.6,3.1-3.2,5.5-7.7,5.5
		c-5.7,0-8.8-4.1-8.8-9.7c0-5.6,3.2-9.4,8.7-9.4c5.4,0,8,4,8.1,8.5V888.1z M1071.2,885.5h10.5c-0.2-2.3-1.9-4.3-5-4.3
		C1073.4,881.2,1071.6,883.2,1071.2,885.5z"/>
	<path class="st1" d="M1092.6,871v26.2h-3.1V871H1092.6z"/>
	<path class="st1" d="M1098.5,874.3V871h3.2v3.3H1098.5z M1101.6,897.2h-3.1V879h3.1V897.2z"/>
	<path class="st1" d="M1105.5,879h3.2l5.1,15.3h1.5l4.9-15.3h3.2l-6.1,18.1h-5.7L1105.5,879z"/>
	<path class="st1" d="M1142.5,888.1h-13.8c0.1,4.3,2.1,6.9,5.8,6.9c2.6,0,4.1-1.1,4.6-2.8h3.1c-0.6,3.1-3.2,5.5-7.7,5.5
		c-5.7,0-8.8-4.1-8.8-9.7c0-5.6,3.2-9.4,8.7-9.4c5.4,0,8,4,8.1,8.5V888.1z M1128.9,885.5h10.5c-0.2-2.3-1.9-4.3-5-4.3
		C1131,881.2,1129.2,883.2,1128.9,885.5z"/>
	<path class="st1" d="M1157.6,881.9h-1.5c-3.6,0-5.8,2.2-5.8,6.2v9.1h-3.1V879h3v2.2h0.8c0.9-1.1,2.6-2.2,5.3-2.2h1.4V881.9z"/>
	<path class="st1" d="M1164.7,904.4l3.7-8.9l-7.7-16.4h3.3l5.5,12h0.9l5-12h3.2l-10.9,25.3H1164.7z"/>
	<path class="st1" d="M1191.1,888.5v-2.7h9.8v2.7H1191.1z"/>
	<path class="st1" d="M1205.8,893.4l13.9-6v-0.8l-13.9-6.1v-2.7l18.1,8v2.5l-18.1,8V893.4z"/>
</g>
<g>
	<path class="st1" d="M493.2,871v26.2h-3v-1.9h-0.8c-1,1.3-2.8,2.4-5.7,2.4c-5,0-8-4.2-8-9.5c0-5.5,3-9.5,8-9.5
		c2.9,0,4.5,1.1,5.5,2.4h0.8v-10H493.2z M490.1,888.1c0-3.6-1.7-6.9-5.7-6.9c-3.6,0-5.6,2.8-5.6,6.9c0,4,1.9,6.9,5.6,6.9
		C488.5,895,490.1,891.7,490.1,888.1z"/>
	<path class="st1" d="M514.8,888.1H501c0.1,4.3,2.1,6.9,5.8,6.9c2.6,0,4.1-1.1,4.6-2.8h3.1c-0.6,3.1-3.2,5.5-7.7,5.5
		c-5.7,0-8.8-4.1-8.8-9.7c0-5.6,3.2-9.4,8.7-9.4c5.4,0,8,4,8.1,8.5V888.1z M501.2,885.5h10.5c-0.2-2.3-1.9-4.3-5-4.3
		C503.4,881.2,501.6,883.2,501.2,885.5z"/>
	<path class="st1" d="M522.6,871v26.2h-3.1V871H522.6z"/>
	<path class="st1" d="M528.5,874.3V871h3.2v3.3H528.5z M531.6,897.2h-3.1V879h3.1V897.2z"/>
	<path class="st1" d="M535.5,879h3.2l5.1,15.3h1.5l4.9-15.3h3.2l-6.1,18.1h-5.7L535.5,879z"/>
	<path class="st1" d="M572.5,888.1h-13.8c0.1,4.3,2.1,6.9,5.8,6.9c2.6,0,4.1-1.1,4.6-2.8h3.1c-0.6,3.1-3.2,5.5-7.7,5.5
		c-5.7,0-8.8-4.1-8.8-9.7c0-5.6,3.2-9.4,8.7-9.4c5.4,0,8,4,8.1,8.5V888.1z M558.9,885.5h10.5c-0.2-2.3-1.9-4.3-5-4.3
		C561,881.2,559.2,883.2,558.9,885.5z"/>
	<path class="st1" d="M587.6,881.9h-1.5c-3.6,0-5.8,2.2-5.8,6.2v9.1h-3.1V879h3v2.2h0.8c0.9-1.1,2.6-2.2,5.3-2.2h1.4V881.9z"/>
	<path class="st1" d="M594.7,904.4l3.7-8.9l-7.7-16.4h3.3l5.5,12h0.9l5-12h3.2l-10.9,25.3H594.7z"/>
	<path class="st1" d="M621.1,888.5v-2.7h9.8v2.7H621.1z"/>
	<path class="st1" d="M635.8,893.4l13.9-6v-0.8l-13.9-6.1v-2.7l18.1,8v2.5l-18.1,8V893.4z"/>
</g>
<g>
	<path class="st3" d="M667.4,879v1.9h0.8c1-1.3,2.8-2.4,5.7-2.4c5,0,8,4.2,8,9.5c0,5.5-3,9.5-8,9.5c-2.9,0-4.6-1.1-5.5-2.4h-0.8v9.1
		h-3.1V879H667.4z M667.5,888.1c0,3.6,1.7,6.9,5.7,6.9c3.6,0,5.6-2.8,5.6-6.9c0-4-1.9-6.9-5.6-6.9
		C669.2,881.2,667.5,884.5,667.5,888.1z"/>
	<path class="st3" d="M698.2,895.3h-0.8c-1.1,1.4-3.1,2.4-5.7,2.4c-4.2,0-6.5-2.8-6.5-5.9c0-2.9,1.9-6,6.9-6h5.9V885
		c0-2.2-1.3-3.8-4.4-3.8c-2.7,0-4.1,1-4.2,2.6h-3.1c0.3-3.3,3.1-5.3,7.2-5.3c4.6,0,7.5,2.2,7.5,6.3v12.3h-2.9V895.3z M698.1,889.8
		v-1.7h-5.4c-3,0-4.4,1.3-4.4,3.5c0,2.1,1.5,3.3,4.2,3.3C695.5,895,698.1,892.7,698.1,889.8z"/>
	<path class="st3" d="M708.5,904.4l3.7-8.9l-7.7-16.4h3.3l5.5,12h0.9l5-12h3.2l-10.9,25.3H708.5z"/>
	<path class="st3" d="M751.1,885.4v11.7H748v-11.4c0-3-1.2-4.5-3.5-4.5c-2.8,0-4.4,2.2-4.4,5.3v10.6H737v-11.3c0-3-1.2-4.5-3.5-4.5
		c-3,0-4.5,2.6-4.5,5.8v10H726V879h3v1.8h0.8c0.9-1.4,2.3-2.2,4.6-2.2c2.2,0,3.8,0.8,4.8,2.4h0.8c1.1-1.6,2.8-2.4,5.1-2.4
		C749.3,878.6,751.1,881.3,751.1,885.4z"/>
	<path class="st3" d="M772.4,888.1h-13.8c0.1,4.3,2.1,6.9,5.8,6.9c2.6,0,4.1-1.1,4.6-2.8h3.1c-0.6,3.1-3.2,5.5-7.7,5.5
		c-5.7,0-8.8-4.1-8.8-9.7c0-5.6,3.2-9.4,8.7-9.4c5.4,0,8,4,8.1,8.5V888.1z M758.8,885.5h10.5c-0.2-2.3-1.9-4.3-5-4.3
		C760.9,881.2,759.2,883.2,758.8,885.5z"/>
	<path class="st3" d="M790.2,897.2v-10.9c0-3.3-1.5-5-4.6-5c-3.2,0-5.4,2.8-5.4,6v9.8h-3.1V879h3v1.9h0.8c1-1.4,3-2.4,5.5-2.4
		c4.5,0,6.9,2.7,6.9,7.1v11.5H790.2z"/>
	<path class="st3" d="M807.7,879v2.7h-4.6v10c0,1.8,0.8,2.8,3.2,2.8h1.3v2.7h-1.4c-3.9,0-6.2-1.2-6.2-5.1v-10.4h-3.1V879h3.1v-5.5
		h3.1v5.5H807.7z"/>
	<path class="st3" d="M821.5,888.5v-2.7h9.8v2.7H821.5z"/>
	<path class="st3" d="M836.2,893.4l13.9-6v-0.8l-13.9-6.1v-2.7l18.1,8v2.5l-18.1,8V893.4z"/>
</g>
<g>
	<path class="st3" d="M1240.7,879v1.9h0.8c1-1.3,2.8-2.4,5.7-2.4c5,0,8,4.2,8,9.5c0,5.5-3,9.5-8,9.5c-2.9,0-4.6-1.1-5.5-2.4h-0.8
		v9.1h-3.1V879H1240.7z M1240.8,888.1c0,3.6,1.7,6.9,5.7,6.9c3.6,0,5.6-2.8,5.6-6.9c0-4-1.9-6.9-5.6-6.9
		C1242.5,881.2,1240.8,884.5,1240.8,888.1z"/>
	<path class="st3" d="M1271.5,895.3h-0.8c-1.1,1.4-3.1,2.4-5.7,2.4c-4.2,0-6.5-2.8-6.5-5.9c0-2.9,1.9-6,6.9-6h5.9V885
		c0-2.2-1.3-3.8-4.4-3.8c-2.7,0-4.1,1-4.2,2.6h-3.1c0.3-3.3,3.1-5.3,7.2-5.3c4.6,0,7.5,2.2,7.5,6.3v12.3h-2.9V895.3z M1271.4,889.8
		v-1.7h-5.4c-3,0-4.4,1.3-4.4,3.5c0,2.1,1.5,3.3,4.2,3.3C1268.8,895,1271.4,892.7,1271.4,889.8z"/>
	<path class="st3" d="M1281.8,904.4l3.7-8.9l-7.7-16.4h3.3l5.5,12h0.9l5-12h3.2l-10.9,25.3H1281.8z"/>
	<path class="st3" d="M1324.3,885.4v11.7h-3.1v-11.4c0-3-1.2-4.5-3.5-4.5c-2.8,0-4.4,2.2-4.4,5.3v10.6h-3.1v-11.3
		c0-3-1.2-4.5-3.5-4.5c-3,0-4.5,2.6-4.5,5.8v10h-3.1V879h3v1.8h0.8c0.9-1.4,2.3-2.2,4.6-2.2c2.2,0,3.8,0.8,4.8,2.4h0.8
		c1.1-1.6,2.8-2.4,5.1-2.4C1322.5,878.6,1324.3,881.3,1324.3,885.4z"/>
	<path class="st3" d="M1345.7,888.1h-13.8c0.1,4.3,2.1,6.9,5.8,6.9c2.6,0,4.1-1.1,4.6-2.8h3.1c-0.6,3.1-3.2,5.5-7.7,5.5
		c-5.7,0-8.8-4.1-8.8-9.7c0-5.6,3.2-9.4,8.7-9.4c5.4,0,8,4,8.1,8.5V888.1z M1332,885.5h10.5c-0.2-2.3-1.9-4.3-5-4.3
		C1334.2,881.2,1332.4,883.2,1332,885.5z"/>
	<path class="st3" d="M1363.5,897.2v-10.9c0-3.3-1.5-5-4.6-5c-3.2,0-5.4,2.8-5.4,6v9.8h-3.1V879h3v1.9h0.8c1-1.4,3-2.4,5.5-2.4
		c4.5,0,6.9,2.7,6.9,7.1v11.5H1363.5z"/>
	<path class="st3" d="M1381,879v2.7h-4.6v10c0,1.8,0.8,2.8,3.2,2.8h1.3v2.7h-1.4c-3.9,0-6.2-1.2-6.2-5.1v-10.4h-3.1V879h3.1v-5.5
		h3.1v5.5H1381z"/>
</g>
<path class="st0" d="M1395.6,371.4H286.7c-4.3,0-7.7-3.4-7.7-7.7v-44.6c0-4.3,3.4-7.7,7.7-7.7h1108.9c4.3,0,7.7,3.4,7.7,7.7v44.6
	C1403.3,368,1399.9,371.4,1395.6,371.4z"/>
<path class="st0" d="M1395.6,506.4H286.7c-4.3,0-7.7-3.4-7.7-7.7v-44.6c0-4.3,3.4-7.7,7.7-7.7h1108.9c4.3,0,7.7,3.4,7.7,7.7v44.6
	C1403.3,503,1399.9,506.4,1395.6,506.4z"/>
<path class="st1" d="M447.2,371.4H286.9c-4.3,0-7.7-3.4-7.7-7.7v-44.6c0-4.3,3.4-7.7,7.7-7.7h160.3V371.4z"/>
<path class="st1" d="M447.2,506.4H286.9c-4.3,0-7.7-3.4-7.7-7.7v-44.6c0-4.3,3.4-7.7,7.7-7.7h160.3V506.4z"/>
<path class="st2" d="M1226.7,311.4h168.5c4.5,0,8.1,3.4,8.1,7.7v44.6c0,4.3-3.6,7.7-8.1,7.7h-168.5V311.4z"/>
<path class="st2" d="M1226.7,446.4h168.5c4.5,0,8.1,3.4,8.1,7.7v44.6c0,4.3-3.6,7.7-8.1,7.7h-168.5V446.4z"/>
<rect x="841.3" y="311.4" class="st1" width="183.6" height="60"/>
<rect x="648.7" y="311.4" class="st2" width="192.5" height="60"/>
<rect x="838.7" y="446.4" class="st1" width="183.6" height="60"/>
<rect x="646.1" y="446.4" class="st2" width="192.5" height="60"/>
<g>
	<path class="st2" d="M341.1,342.3c0,5.4-3.3,9.5-8.9,9.5c-5.7,0-8.9-4.2-8.9-9.5s3.2-9.5,8.9-9.5
		C337.8,332.7,341.1,336.9,341.1,342.3z M338,342.3c0-3.6-1.9-6.9-5.9-6.9c-4,0-5.9,3.3-5.9,6.9s1.8,6.9,5.9,6.9
		C336.1,349.1,338,345.8,338,342.3z"/>
	<path class="st2" d="M356.2,336.1h-1.5c-3.6,0-5.8,2.2-5.8,6.2v9.1h-3.1v-18.1h3v2.2h0.8c0.9-1.1,2.6-2.2,5.3-2.2h1.4V336.1z"/>
	<path class="st2" d="M376.4,325.2v26.2h-3v-1.9h-0.8c-1,1.3-2.8,2.4-5.7,2.4c-5,0-8-4.2-8-9.5c0-5.5,3-9.5,8-9.5
		c2.9,0,4.5,1.1,5.5,2.4h0.8v-10H376.4z M373.4,342.3c0-3.6-1.7-6.9-5.7-6.9c-3.6,0-5.6,2.8-5.6,6.9c0,4,1.9,6.9,5.6,6.9
		C371.8,349.1,373.4,345.8,373.4,342.3z"/>
	<path class="st2" d="M398.1,342.2h-13.8c0.1,4.3,2.1,6.9,5.8,6.9c2.6,0,4.1-1.1,4.6-2.8h3.1c-0.6,3.1-3.2,5.5-7.7,5.5
		c-5.7,0-8.8-4.1-8.8-9.7c0-5.6,3.2-9.4,8.7-9.4c5.4,0,8,4,8.1,8.5V342.2z M384.4,339.7h10.5c-0.2-2.3-1.9-4.3-5-4.3
		C386.6,335.4,384.8,337.4,384.4,339.7z"/>
	<path class="st2" d="M413.2,336.1h-1.5c-3.6,0-5.8,2.2-5.8,6.2v9.1h-3.1v-18.1h3v2.2h0.8c0.9-1.1,2.6-2.2,5.3-2.2h1.4V336.1z"/>
	<path class="st2" d="M426,342.7V340h9.8v2.7H426z"/>
	<path class="st2" d="M440.7,347.6l13.9-6v-0.8l-13.9-6.1v-2.7l18.1,8v2.5l-18.1,8V347.6z"/>
</g>
<g>
	<path class="st2" d="M911.1,342.3c0,5.4-3.3,9.5-8.9,9.5c-5.7,0-8.9-4.2-8.9-9.5s3.2-9.5,8.9-9.5
		C907.8,332.7,911.1,336.9,911.1,342.3z M908,342.3c0-3.6-1.9-6.9-5.9-6.9c-4,0-5.9,3.3-5.9,6.9s1.8,6.9,5.9,6.9
		C906.1,349.1,908,345.8,908,342.3z"/>
	<path class="st2" d="M926.2,336.1h-1.5c-3.6,0-5.8,2.2-5.8,6.2v9.1h-3.1v-18.1h3v2.2h0.8c0.9-1.1,2.6-2.2,5.3-2.2h1.4V336.1z"/>
	<path class="st2" d="M946.4,325.2v26.2h-3v-1.9h-0.8c-1,1.3-2.8,2.4-5.7,2.4c-5,0-8-4.2-8-9.5c0-5.5,3-9.5,8-9.5
		c2.9,0,4.5,1.1,5.5,2.4h0.8v-10H946.4z M943.4,342.3c0-3.6-1.7-6.9-5.7-6.9c-3.6,0-5.6,2.8-5.6,6.9c0,4,1.9,6.9,5.6,6.9
		C941.8,349.1,943.4,345.8,943.4,342.3z"/>
	<path class="st2" d="M968.1,342.2h-13.8c0.1,4.3,2.1,6.9,5.8,6.9c2.6,0,4.1-1.1,4.6-2.8h3.1c-0.6,3.1-3.2,5.5-7.7,5.5
		c-5.7,0-8.8-4.1-8.8-9.7c0-5.6,3.2-9.4,8.7-9.4c5.4,0,8,4,8.1,8.5V342.2z M954.4,339.7h10.5c-0.2-2.3-1.9-4.3-5-4.3
		C956.6,335.4,954.8,337.4,954.4,339.7z"/>
	<path class="st2" d="M983.2,336.1h-1.5c-3.6,0-5.8,2.2-5.8,6.2v9.1h-3.1v-18.1h3v2.2h0.8c0.9-1.1,2.6-2.2,5.3-2.2h1.4V336.1z"/>
	<path class="st2" d="M996,342.7V340h9.8v2.7H996z"/>
	<path class="st2" d="M1010.7,347.6l13.9-6v-0.8l-13.9-6.1v-2.7l18.1,8v2.5l-18.1,8V347.6z"/>
</g>
<g>
	<path class="st1" d="M1069.3,325.2v26.2h-3v-1.9h-0.8c-1,1.3-2.8,2.4-5.7,2.4c-5,0-8-4.2-8-9.5c0-5.5,3-9.5,8-9.5
		c2.9,0,4.5,1.1,5.5,2.4h0.8v-10H1069.3z M1066.3,342.3c0-3.6-1.7-6.9-5.7-6.9c-3.6,0-5.6,2.8-5.6,6.9c0,4,1.9,6.9,5.6,6.9
		C1064.6,349.1,1066.3,345.8,1066.3,342.3z"/>
	<path class="st1" d="M1090.9,342.2h-13.8c0.1,4.3,2.1,6.9,5.8,6.9c2.6,0,4.1-1.1,4.6-2.8h3.1c-0.6,3.1-3.2,5.5-7.7,5.5
		c-5.7,0-8.8-4.1-8.8-9.7c0-5.6,3.2-9.4,8.7-9.4c5.4,0,8,4,8.1,8.5V342.2z M1077.3,339.7h10.5c-0.2-2.3-1.9-4.3-5-4.3
		C1079.5,335.4,1077.7,337.4,1077.3,339.7z"/>
	<path class="st1" d="M1098.7,325.2v26.2h-3.1v-26.2H1098.7z"/>
	<path class="st1" d="M1104.6,328.5v-3.3h3.2v3.3H1104.6z M1107.8,351.3h-3.1v-18.1h3.1V351.3z"/>
	<path class="st1" d="M1111.6,333.2h3.2l5.1,15.3h1.5l4.9-15.3h3.2l-6.1,18.1h-5.7L1111.6,333.2z"/>
	<path class="st1" d="M1148.6,342.2h-13.8c0.1,4.3,2.1,6.9,5.8,6.9c2.6,0,4.1-1.1,4.6-2.8h3.1c-0.6,3.1-3.2,5.5-7.7,5.5
		c-5.7,0-8.8-4.1-8.8-9.7c0-5.6,3.2-9.4,8.7-9.4c5.4,0,8,4,8.1,8.5V342.2z M1135,339.7h10.5c-0.2-2.3-1.9-4.3-5-4.3
		C1137.2,335.4,1135.4,337.4,1135,339.7z"/>
	<path class="st1" d="M1163.7,336.1h-1.5c-3.6,0-5.8,2.2-5.8,6.2v9.1h-3.1v-18.1h3v2.2h0.8c0.9-1.1,2.6-2.2,5.3-2.2h1.4V336.1z"/>
	<path class="st1" d="M1170.8,358.5l3.7-8.9l-7.7-16.4h3.3l5.5,12h0.9l5-12h3.2l-10.9,25.3H1170.8z"/>
	<path class="st1" d="M1197.2,342.7V340h9.8v2.7H1197.2z"/>
	<path class="st1" d="M1211.9,347.6l13.9-6v-0.8l-13.9-6.1v-2.7l18.1,8v2.5l-18.1,8V347.6z"/>
</g>
<g>
	<path class="st2" d="M1417.4,351.3v-4.2h3.7v4.2H1417.4z"/>
	<path class="st2" d="M1426.7,351.3v-4.2h3.7v4.2H1426.7z"/>
	<path class="st2" d="M1435.9,351.3v-4.2h3.7v4.2H1435.9z"/>
</g>
<g>
	<path class="st2" d="M1417.4,405.3v-4.2h3.7v4.2H1417.4z"/>
	<path class="st2" d="M1426.7,405.3v-4.2h3.7v4.2H1426.7z"/>
	<path class="st2" d="M1435.9,405.3v-4.2h3.7v4.2H1435.9z"/>
</g>
<g>
	<path class="st2" d="M1417.3,486.3v-4.2h3.7v4.2H1417.3z"/>
	<path class="st2" d="M1426.6,486.3v-4.2h3.7v4.2H1426.6z"/>
	<path class="st2" d="M1435.9,486.3v-4.2h3.7v4.2H1435.9z"/>
</g>
<g>
	<path class="st1" d="M499.3,325.2v26.2h-3v-1.9h-0.8c-1,1.3-2.8,2.4-5.7,2.4c-5,0-8-4.2-8-9.5c0-5.5,3-9.5,8-9.5
		c2.9,0,4.5,1.1,5.5,2.4h0.8v-10H499.3z M496.3,342.3c0-3.6-1.7-6.9-5.7-6.9c-3.6,0-5.6,2.8-5.6,6.9c0,4,1.9,6.9,5.6,6.9
		C494.6,349.1,496.3,345.8,496.3,342.3z"/>
	<path class="st1" d="M520.9,342.2h-13.8c0.1,4.3,2.1,6.9,5.8,6.9c2.6,0,4.1-1.1,4.6-2.8h3.1c-0.6,3.1-3.2,5.5-7.7,5.5
		c-5.7,0-8.8-4.1-8.8-9.7c0-5.6,3.2-9.4,8.7-9.4c5.4,0,8,4,8.1,8.5V342.2z M507.3,339.7h10.5c-0.2-2.3-1.9-4.3-5-4.3
		C509.5,335.4,507.7,337.4,507.3,339.7z"/>
	<path class="st1" d="M528.7,325.2v26.2h-3.1v-26.2H528.7z"/>
	<path class="st1" d="M534.6,328.5v-3.3h3.2v3.3H534.6z M537.8,351.3h-3.1v-18.1h3.1V351.3z"/>
	<path class="st1" d="M541.6,333.2h3.2l5.1,15.3h1.5l4.9-15.3h3.2l-6.1,18.1h-5.7L541.6,333.2z"/>
	<path class="st1" d="M578.6,342.2h-13.8c0.1,4.3,2.1,6.9,5.8,6.9c2.6,0,4.1-1.1,4.6-2.8h3.1c-0.6,3.1-3.2,5.5-7.7,5.5
		c-5.7,0-8.8-4.1-8.8-9.7c0-5.6,3.2-9.4,8.7-9.4c5.4,0,8,4,8.1,8.5V342.2z M565,339.7h10.5c-0.2-2.3-1.9-4.3-5-4.3
		C567.2,335.4,565.4,337.4,565,339.7z"/>
	<path class="st1" d="M593.7,336.1h-1.5c-3.6,0-5.8,2.2-5.8,6.2v9.1h-3.1v-18.1h3v2.2h0.8c0.9-1.1,2.6-2.2,5.3-2.2h1.4V336.1z"/>
	<path class="st1" d="M600.8,358.5l3.7-8.9l-7.7-16.4h3.3l5.5,12h0.9l5-12h3.2l-10.9,25.3H600.8z"/>
	<path class="st1" d="M627.2,342.7V340h9.8v2.7H627.2z"/>
	<path class="st1" d="M641.9,347.6l13.9-6v-0.8l-13.9-6.1v-2.7l18.1,8v2.5l-18.1,8V347.6z"/>
</g>
<g>
	<path class="st3" d="M673.6,333.2v1.9h0.8c1-1.3,2.8-2.4,5.7-2.4c5,0,8,4.2,8,9.5c0,5.5-3,9.5-8,9.5c-2.9,0-4.6-1.1-5.5-2.4h-0.8
		v9.1h-3.1v-25.3H673.6z M673.7,342.3c0,3.6,1.7,6.9,5.7,6.9c3.6,0,5.6-2.8,5.6-6.9c0-4-1.9-6.9-5.6-6.9
		C675.3,335.4,673.7,338.7,673.7,342.3z"/>
	<path class="st3" d="M704.3,349.4h-0.8c-1.1,1.4-3.1,2.4-5.7,2.4c-4.2,0-6.5-2.8-6.5-5.9c0-2.9,1.9-6,6.9-6h5.9v-0.7
		c0-2.2-1.3-3.8-4.4-3.8c-2.7,0-4.1,1-4.2,2.6h-3.1c0.3-3.3,3.1-5.3,7.2-5.3c4.6,0,7.5,2.2,7.5,6.3v12.3h-2.9V349.4z M704.2,344
		v-1.7h-5.4c-3,0-4.4,1.3-4.4,3.5c0,2.1,1.5,3.3,4.2,3.3C701.7,349.1,704.2,346.9,704.2,344z"/>
	<path class="st3" d="M714.6,358.5l3.7-8.9l-7.7-16.4h3.3l5.5,12h0.9l5-12h3.2l-10.9,25.3H714.6z"/>
	<path class="st3" d="M757.2,339.6v11.7h-3.1v-11.4c0-3-1.2-4.5-3.5-4.5c-2.8,0-4.4,2.2-4.4,5.3v10.6h-3.1V340c0-3-1.2-4.5-3.5-4.5
		c-3,0-4.5,2.6-4.5,5.8v10h-3.1v-18.1h3v1.8h0.8c0.9-1.4,2.3-2.2,4.6-2.2c2.2,0,3.8,0.8,4.8,2.4h0.8c1.1-1.6,2.8-2.4,5.1-2.4
		C755.4,332.7,757.2,335.4,757.2,339.6z"/>
	<path class="st3" d="M778.5,342.2h-13.8c0.1,4.3,2.1,6.9,5.8,6.9c2.6,0,4.1-1.1,4.6-2.8h3.1c-0.6,3.1-3.2,5.5-7.7,5.5
		c-5.7,0-8.8-4.1-8.8-9.7c0-5.6,3.2-9.4,8.7-9.4c5.4,0,8,4,8.1,8.5V342.2z M764.9,339.7h10.5c-0.2-2.3-1.9-4.3-5-4.3
		C767.1,335.4,765.3,337.4,764.9,339.7z"/>
	<path class="st3" d="M796.4,351.3v-10.9c0-3.3-1.5-5-4.6-5c-3.2,0-5.4,2.8-5.4,6v9.8h-3.1v-18.1h3v1.9h0.8c1-1.4,3-2.4,5.5-2.4
		c4.5,0,6.9,2.7,6.9,7.1v11.5H796.4z"/>
	<path class="st3" d="M813.8,333.2v2.7h-4.6v10c0,1.8,0.8,2.8,3.2,2.8h1.3v2.7h-1.4c-3.9,0-6.2-1.2-6.2-5.1v-10.4H803v-2.7h3.1v-5.5
		h3.1v5.5H813.8z"/>
	<path class="st3" d="M827.7,342.7V340h9.8v2.7H827.7z"/>
	<path class="st3" d="M842.4,347.6l13.9-6v-0.8l-13.9-6.1v-2.7l18.1,8v2.5l-18.1,8V347.6z"/>
</g>
<g>
	<path class="st3" d="M1246.9,333.2v1.9h0.8c1-1.3,2.8-2.4,5.7-2.4c5,0,8,4.2,8,9.5c0,5.5-3,9.5-8,9.5c-2.9,0-4.6-1.1-5.5-2.4h-0.8
		v9.1h-3.1v-25.3H1246.9z M1246.9,342.3c0,3.6,1.7,6.9,5.7,6.9c3.6,0,5.6-2.8,5.6-6.9c0-4-1.9-6.9-5.6-6.9
		C1248.6,335.4,1246.9,338.7,1246.9,342.3z"/>
	<path class="st3" d="M1277.6,349.4h-0.8c-1.1,1.4-3.1,2.4-5.7,2.4c-4.2,0-6.5-2.8-6.5-5.9c0-2.9,1.9-6,6.9-6h5.9v-0.7
		c0-2.2-1.3-3.8-4.4-3.8c-2.7,0-4.1,1-4.2,2.6h-3.1c0.3-3.3,3.1-5.3,7.2-5.3c4.6,0,7.5,2.2,7.5,6.3v12.3h-2.9V349.4z M1277.5,344
		v-1.7h-5.4c-3,0-4.4,1.3-4.4,3.5c0,2.1,1.5,3.3,4.2,3.3C1274.9,349.1,1277.5,346.9,1277.5,344z"/>
	<path class="st3" d="M1287.9,358.5l3.7-8.9l-7.7-16.4h3.3l5.5,12h0.9l5-12h3.2l-10.9,25.3H1287.9z"/>
	<path class="st3" d="M1330.5,339.6v11.7h-3.1v-11.4c0-3-1.2-4.5-3.5-4.5c-2.8,0-4.4,2.2-4.4,5.3v10.6h-3.1V340c0-3-1.2-4.5-3.5-4.5
		c-3,0-4.5,2.6-4.5,5.8v10h-3.1v-18.1h3v1.8h0.8c0.9-1.4,2.3-2.2,4.6-2.2c2.2,0,3.8,0.8,4.8,2.4h0.8c1.1-1.6,2.8-2.4,5.1-2.4
		C1328.7,332.7,1330.5,335.4,1330.5,339.6z"/>
	<path class="st3" d="M1351.8,342.2H1338c0.1,4.3,2.1,6.9,5.8,6.9c2.6,0,4.1-1.1,4.6-2.8h3.1c-0.6,3.1-3.2,5.5-7.7,5.5
		c-5.7,0-8.8-4.1-8.8-9.7c0-5.6,3.2-9.4,8.7-9.4c5.4,0,8,4,8.1,8.5V342.2z M1338.2,339.7h10.5c-0.2-2.3-1.9-4.3-5-4.3
		C1340.4,335.4,1338.6,337.4,1338.2,339.7z"/>
	<path class="st3" d="M1369.6,351.3v-10.9c0-3.3-1.5-5-4.6-5c-3.2,0-5.4,2.8-5.4,6v9.8h-3.1v-18.1h3v1.9h0.8c1-1.4,3-2.4,5.5-2.4
		c4.5,0,6.9,2.7,6.9,7.1v11.5H1369.6z"/>
	<path class="st3" d="M1387.1,333.2v2.7h-4.6v10c0,1.8,0.8,2.8,3.2,2.8h1.3v2.7h-1.4c-3.9,0-6.2-1.2-6.2-5.1v-10.4h-3.1v-2.7h3.1
		v-5.5h3.1v5.5H1387.1z"/>
</g>
<g>
	<path class="st2" d="M341,477.2c0,5.4-3.3,9.5-8.9,9.5c-5.7,0-8.9-4.2-8.9-9.5s3.2-9.5,8.9-9.5C337.7,467.7,341,471.8,341,477.2z
		 M337.9,477.2c0-3.6-1.9-6.9-5.9-6.9c-4,0-5.9,3.3-5.9,6.9s1.8,6.9,5.9,6.9C336.1,484.1,337.9,480.8,337.9,477.2z"/>
	<path class="st2" d="M356.1,471h-1.5c-3.6,0-5.8,2.2-5.8,6.2v9.1h-3.1v-18.1h3v2.2h0.8c0.9-1.1,2.6-2.2,5.3-2.2h1.4V471z"/>
	<path class="st2" d="M376.4,460.1v26.2h-3v-1.9h-0.8c-1,1.3-2.8,2.4-5.7,2.4c-5,0-8-4.2-8-9.5c0-5.5,3-9.5,8-9.5
		c2.9,0,4.5,1.1,5.5,2.4h0.8v-10H376.4z M373.3,477.2c0-3.6-1.7-6.9-5.7-6.9c-3.6,0-5.6,2.8-5.6,6.9c0,4,1.9,6.9,5.6,6.9
		C371.7,484.1,373.3,480.8,373.3,477.2z"/>
	<path class="st2" d="M398,477.2h-13.8c0.1,4.3,2.1,6.9,5.8,6.9c2.6,0,4.1-1.1,4.6-2.8h3.1c-0.6,3.1-3.2,5.5-7.7,5.5
		c-5.7,0-8.8-4.1-8.8-9.7c0-5.6,3.2-9.4,8.7-9.4c5.4,0,8,4,8.1,8.5V477.2z M384.4,474.6h10.5c-0.2-2.3-1.9-4.3-5-4.3
		C386.6,470.3,384.8,472.3,384.4,474.6z"/>
	<path class="st2" d="M413.1,471h-1.5c-3.6,0-5.8,2.2-5.8,6.2v9.1h-3.1v-18.1h3v2.2h0.8c0.9-1.1,2.6-2.2,5.3-2.2h1.4V471z"/>
	<path class="st2" d="M425.9,477.6v-2.7h9.8v2.7H425.9z"/>
	<path class="st2" d="M440.7,482.5l13.9-6v-0.8l-13.9-6.1v-2.7l18.1,8v2.5l-18.1,8V482.5z"/>
</g>
<g>
	<path class="st2" d="M911,477.2c0,5.4-3.3,9.5-8.9,9.5c-5.7,0-8.9-4.2-8.9-9.5s3.2-9.5,8.9-9.5C907.7,467.7,911,471.8,911,477.2z
		 M907.9,477.2c0-3.6-1.9-6.9-5.9-6.9c-4,0-5.9,3.3-5.9,6.9s1.8,6.9,5.9,6.9C906.1,484.1,907.9,480.8,907.9,477.2z"/>
	<path class="st2" d="M926.1,471h-1.5c-3.6,0-5.8,2.2-5.8,6.2v9.1h-3.1v-18.1h3v2.2h0.8c0.9-1.1,2.6-2.2,5.3-2.2h1.4V471z"/>
	<path class="st2" d="M946.4,460.1v26.2h-3v-1.9h-0.8c-1,1.3-2.8,2.4-5.7,2.4c-5,0-8-4.2-8-9.5c0-5.5,3-9.5,8-9.5
		c2.9,0,4.5,1.1,5.5,2.4h0.8v-10H946.4z M943.4,477.2c0-3.6-1.7-6.9-5.7-6.9c-3.6,0-5.6,2.8-5.6,6.9c0,4,1.9,6.9,5.6,6.9
		C941.7,484.1,943.4,480.8,943.4,477.2z"/>
	<path class="st2" d="M968,477.2h-13.8c0.1,4.3,2.1,6.9,5.8,6.9c2.6,0,4.1-1.1,4.6-2.8h3.1c-0.6,3.1-3.2,5.5-7.7,5.5
		c-5.7,0-8.8-4.1-8.8-9.7c0-5.6,3.2-9.4,8.7-9.4c5.4,0,8,4,8.1,8.5V477.2z M954.4,474.6h10.5c-0.2-2.3-1.9-4.3-5-4.3
		C956.6,470.3,954.8,472.3,954.4,474.6z"/>
	<path class="st2" d="M983.1,471h-1.5c-3.6,0-5.8,2.2-5.8,6.2v9.1h-3.1v-18.1h3v2.2h0.8c0.9-1.1,2.6-2.2,5.3-2.2h1.4V471z"/>
	<path class="st2" d="M995.9,477.6v-2.7h9.8v2.7H995.9z"/>
	<path class="st2" d="M1010.7,482.5l13.9-6v-0.8l-13.9-6.1v-2.7l18.1,8v2.5l-18.1,8V482.5z"/>
</g>
<g>
	<path class="st1" d="M1069.2,460.1v26.2h-3v-1.9h-0.8c-1,1.3-2.8,2.4-5.7,2.4c-5,0-8-4.2-8-9.5c0-5.5,3-9.5,8-9.5
		c2.9,0,4.5,1.1,5.5,2.4h0.8v-10H1069.2z M1066.2,477.2c0-3.6-1.7-6.9-5.7-6.9c-3.6,0-5.6,2.8-5.6,6.9c0,4,1.9,6.9,5.6,6.9
		C1064.6,484.1,1066.2,480.8,1066.2,477.2z"/>
	<path class="st1" d="M1090.9,477.2H1077c0.1,4.3,2.1,6.9,5.8,6.9c2.6,0,4.1-1.1,4.6-2.8h3.1c-0.6,3.1-3.2,5.5-7.7,5.5
		c-5.7,0-8.8-4.1-8.8-9.7c0-5.6,3.2-9.4,8.7-9.4c5.4,0,8,4,8.1,8.5V477.2z M1077.2,474.6h10.5c-0.2-2.3-1.9-4.3-5-4.3
		C1079.4,470.3,1077.6,472.3,1077.2,474.6z"/>
	<path class="st1" d="M1098.7,460.1v26.2h-3.1v-26.2H1098.7z"/>
	<path class="st1" d="M1104.6,463.4v-3.3h3.2v3.3H1104.6z M1107.7,486.3h-3.1v-18.1h3.1V486.3z"/>
	<path class="st1" d="M1111.6,468.1h3.2l5.1,15.3h1.5l4.9-15.3h3.2l-6.1,18.1h-5.7L1111.6,468.1z"/>
	<path class="st1" d="M1148.6,477.2h-13.8c0.1,4.3,2.1,6.9,5.8,6.9c2.6,0,4.1-1.1,4.6-2.8h3.1c-0.6,3.1-3.2,5.5-7.7,5.5
		c-5.7,0-8.8-4.1-8.8-9.7c0-5.6,3.2-9.4,8.7-9.4c5.4,0,8,4,8.1,8.5V477.2z M1134.9,474.6h10.5c-0.2-2.3-1.9-4.3-5-4.3
		C1137.1,470.3,1135.3,472.3,1134.9,474.6z"/>
	<path class="st1" d="M1163.7,471h-1.5c-3.6,0-5.8,2.2-5.8,6.2v9.1h-3.1v-18.1h3v2.2h0.8c0.9-1.1,2.6-2.2,5.3-2.2h1.4V471z"/>
	<path class="st1" d="M1170.8,493.5l3.7-8.9l-7.7-16.4h3.3l5.5,12h0.9l5-12h3.2l-10.9,25.3H1170.8z"/>
	<path class="st1" d="M1197.2,477.6v-2.7h9.8v2.7H1197.2z"/>
	<path class="st1" d="M1211.9,482.5l13.9-6v-0.8l-13.9-6.1v-2.7l18.1,8v2.5l-18.1,8V482.5z"/>
</g>
<g>
	<path class="st1" d="M499.2,460.1v26.2h-3v-1.9h-0.8c-1,1.3-2.8,2.4-5.7,2.4c-5,0-8-4.2-8-9.5c0-5.5,3-9.5,8-9.5
		c2.9,0,4.5,1.1,5.5,2.4h0.8v-10H499.2z M496.2,477.2c0-3.6-1.7-6.9-5.7-6.9c-3.6,0-5.6,2.8-5.6,6.9c0,4,1.9,6.9,5.6,6.9
		C494.6,484.1,496.2,480.8,496.2,477.2z"/>
	<path class="st1" d="M520.9,477.2H507c0.1,4.3,2.1,6.9,5.8,6.9c2.6,0,4.1-1.1,4.6-2.8h3.1c-0.6,3.1-3.2,5.5-7.7,5.5
		c-5.7,0-8.8-4.1-8.8-9.7c0-5.6,3.2-9.4,8.7-9.4c5.4,0,8,4,8.1,8.5V477.2z M507.2,474.6h10.5c-0.2-2.3-1.9-4.3-5-4.3
		C509.4,470.3,507.6,472.3,507.2,474.6z"/>
	<path class="st1" d="M528.7,460.1v26.2h-3.1v-26.2H528.7z"/>
	<path class="st1" d="M534.6,463.4v-3.3h3.2v3.3H534.6z M537.7,486.3h-3.1v-18.1h3.1V486.3z"/>
	<path class="st1" d="M541.6,468.1h3.2l5.1,15.3h1.5l4.9-15.3h3.2l-6.1,18.1h-5.7L541.6,468.1z"/>
	<path class="st1" d="M578.6,477.2h-13.8c0.1,4.3,2.1,6.9,5.8,6.9c2.6,0,4.1-1.1,4.6-2.8h3.1c-0.6,3.1-3.2,5.5-7.7,5.5
		c-5.7,0-8.8-4.1-8.8-9.7c0-5.6,3.2-9.4,8.7-9.4c5.4,0,8,4,8.1,8.5V477.2z M564.9,474.6h10.5c-0.2-2.3-1.9-4.3-5-4.3
		C567.1,470.3,565.3,472.3,564.9,474.6z"/>
	<path class="st1" d="M593.7,471h-1.5c-3.6,0-5.8,2.2-5.8,6.2v9.1h-3.1v-18.1h3v2.2h0.8c0.9-1.1,2.6-2.2,5.3-2.2h1.4V471z"/>
	<path class="st1" d="M600.8,493.5l3.7-8.9l-7.7-16.4h3.3l5.5,12h0.9l5-12h3.2l-10.9,25.3H600.8z"/>
	<path class="st1" d="M627.2,477.6v-2.7h9.8v2.7H627.2z"/>
	<path class="st1" d="M641.9,482.5l13.9-6v-0.8l-13.9-6.1v-2.7l18.1,8v2.5l-18.1,8V482.5z"/>
</g>
<g>
	<path class="st3" d="M673.5,468.1v1.9h0.8c1-1.3,2.8-2.4,5.7-2.4c5,0,8,4.2,8,9.5c0,5.5-3,9.5-8,9.5c-2.9,0-4.6-1.1-5.5-2.4h-0.8
		v9.1h-3.1v-25.3H673.5z M673.6,477.2c0,3.6,1.7,6.9,5.7,6.9c3.6,0,5.6-2.8,5.6-6.9c0-4-1.9-6.9-5.6-6.9
		C675.2,470.3,673.6,473.6,673.6,477.2z"/>
	<path class="st3" d="M704.3,484.4h-0.8c-1.1,1.4-3.1,2.4-5.7,2.4c-4.2,0-6.5-2.8-6.5-5.9c0-2.9,1.9-6,6.9-6h5.9v-0.7
		c0-2.2-1.3-3.8-4.4-3.8c-2.7,0-4.1,1-4.2,2.6h-3.1c0.3-3.3,3.1-5.3,7.2-5.3c4.6,0,7.5,2.2,7.5,6.3v12.3h-2.9V484.4z M704.1,478.9
		v-1.7h-5.4c-3,0-4.4,1.3-4.4,3.5c0,2.1,1.5,3.3,4.2,3.3C701.6,484.1,704.1,481.8,704.1,478.9z"/>
	<path class="st3" d="M714.5,493.5l3.7-8.9l-7.7-16.4h3.3l5.5,12h0.9l5-12h3.2l-10.9,25.3H714.5z"/>
	<path class="st3" d="M757.1,474.5v11.7h-3.1v-11.4c0-3-1.2-4.5-3.5-4.5c-2.8,0-4.4,2.2-4.4,5.3v10.6h-3.1v-11.3
		c0-3-1.2-4.5-3.5-4.5c-3,0-4.5,2.6-4.5,5.8v10h-3.1v-18.1h3v1.8h0.8c0.9-1.4,2.3-2.2,4.6-2.2c2.2,0,3.8,0.8,4.8,2.4h0.8
		c1.1-1.6,2.8-2.4,5.1-2.4C755.3,467.7,757.1,470.4,757.1,474.5z"/>
	<path class="st3" d="M778.5,477.2h-13.8c0.1,4.3,2.1,6.9,5.8,6.9c2.6,0,4.1-1.1,4.6-2.8h3.1c-0.6,3.1-3.2,5.5-7.7,5.5
		c-5.7,0-8.8-4.1-8.8-9.7c0-5.6,3.2-9.4,8.7-9.4c5.4,0,8,4,8.1,8.5V477.2z M764.8,474.6h10.5c-0.2-2.3-1.9-4.3-5-4.3
		C767,470.3,765.2,472.3,764.8,474.6z"/>
	<path class="st3" d="M796.3,486.3v-10.9c0-3.3-1.5-5-4.6-5c-3.2,0-5.4,2.8-5.4,6v9.8h-3.1v-18.1h3v1.9h0.8c1-1.4,3-2.4,5.5-2.4
		c4.5,0,6.9,2.7,6.9,7.1v11.5H796.3z"/>
	<path class="st3" d="M813.7,468.1v2.7h-4.6v10c0,1.8,0.8,2.8,3.2,2.8h1.3v2.7h-1.4c-3.9,0-6.2-1.2-6.2-5.1v-10.4H803v-2.7h3.1v-5.5
		h3.1v5.5H813.7z"/>
	<path class="st3" d="M827.6,477.6v-2.7h9.8v2.7H827.6z"/>
	<path class="st3" d="M842.3,482.5l13.9-6v-0.8l-13.9-6.1v-2.7l18.1,8v2.5l-18.1,8V482.5z"/>
</g>
<g>
	<path class="st3" d="M1246.8,468.1v1.9h0.8c1-1.3,2.8-2.4,5.7-2.4c5,0,8,4.2,8,9.5c0,5.5-3,9.5-8,9.5c-2.9,0-4.6-1.1-5.5-2.4h-0.8
		v9.1h-3.1v-25.3H1246.8z M1246.9,477.2c0,3.6,1.7,6.9,5.7,6.9c3.6,0,5.6-2.8,5.6-6.9c0-4-1.9-6.9-5.6-6.9
		C1248.5,470.3,1246.9,473.6,1246.9,477.2z"/>
	<path class="st3" d="M1277.5,484.4h-0.8c-1.1,1.4-3.1,2.4-5.7,2.4c-4.2,0-6.5-2.8-6.5-5.9c0-2.9,1.9-6,6.9-6h5.9v-0.7
		c0-2.2-1.3-3.8-4.4-3.8c-2.7,0-4.1,1-4.2,2.6h-3.1c0.3-3.3,3.1-5.3,7.2-5.3c4.6,0,7.5,2.2,7.5,6.3v12.3h-2.9V484.4z M1277.4,478.9
		v-1.7h-5.4c-3,0-4.4,1.3-4.4,3.5c0,2.1,1.5,3.3,4.2,3.3C1274.9,484.1,1277.4,481.8,1277.4,478.9z"/>
	<path class="st3" d="M1287.8,493.5l3.7-8.9l-7.7-16.4h3.3l5.5,12h0.9l5-12h3.2l-10.9,25.3H1287.8z"/>
	<path class="st3" d="M1330.4,474.5v11.7h-3.1v-11.4c0-3-1.2-4.5-3.5-4.5c-2.8,0-4.4,2.2-4.4,5.3v10.6h-3.1v-11.3
		c0-3-1.2-4.5-3.5-4.5c-3,0-4.5,2.6-4.5,5.8v10h-3.1v-18.1h3v1.8h0.8c0.9-1.4,2.3-2.2,4.6-2.2c2.2,0,3.8,0.8,4.8,2.4h0.8
		c1.1-1.6,2.8-2.4,5.1-2.4C1328.6,467.7,1330.4,470.4,1330.4,474.5z"/>
	<path class="st3" d="M1351.7,477.2h-13.8c0.1,4.3,2.1,6.9,5.8,6.9c2.6,0,4.1-1.1,4.6-2.8h3.1c-0.6,3.1-3.2,5.5-7.7,5.5
		c-5.7,0-8.8-4.1-8.8-9.7c0-5.6,3.2-9.4,8.7-9.4c5.4,0,8,4,8.1,8.5V477.2z M1338.1,474.6h10.5c-0.2-2.3-1.9-4.3-5-4.3
		C1340.3,470.3,1338.5,472.3,1338.1,474.6z"/>
	<path class="st3" d="M1369.6,486.3v-10.9c0-3.3-1.5-5-4.6-5c-3.2,0-5.4,2.8-5.4,6v9.8h-3.1v-18.1h3v1.9h0.8c1-1.4,3-2.4,5.5-2.4
		c4.5,0,6.9,2.7,6.9,7.1v11.5H1369.6z"/>
	<path class="st3" d="M1387,468.1v2.7h-4.6v10c0,1.8,0.8,2.8,3.2,2.8h1.3v2.7h-1.4c-3.9,0-6.2-1.2-6.2-5.1v-10.4h-3.1v-2.7h3.1v-5.5
		h3.1v5.5H1387z"/>
</g>
<g>
	<path class="st2" d="M98.2,55.2v26.5H95v-9.6h-0.8c-1.1,1.4-2.8,2.5-5.8,2.5c-5.2,0-8.3-4.3-8.3-10c0-5.6,3.1-10,8.3-10
		c3,0,4.9,1.2,5.9,2.5h0.8v-2H98.2z M83.3,64.7c0,4.2,2,7.2,5.8,7.2c4.2,0,6-3.5,6-7.2c0-3.7-1.7-7.2-6-7.2
		C85.3,57.5,83.3,60.5,83.3,64.7z"/>
	<path class="st2" d="M107.3,55.2v11.4c0,3.5,1.6,5.2,4.8,5.2c3.4,0,5.6-2.9,5.6-6.3V55.2h3.2v19h-3.1v-2h-0.8
		c-1.1,1.5-3.2,2.5-5.7,2.5c-4.7,0-7.2-2.9-7.2-7.4V55.2H107.3z"/>
	<path class="st2" d="M143.6,64.6h-14.5c0.1,4.5,2.1,7.2,6.1,7.2c2.7,0,4.3-1.1,4.8-2.9h3.2c-0.6,3.2-3.4,5.7-8.1,5.7
		c-5.9,0-9.2-4.3-9.2-10.2c0-5.8,3.4-9.8,9.2-9.8c5.6,0,8.4,4.2,8.5,8.9V64.6z M129.3,62h11c-0.2-2.4-2-4.5-5.2-4.5
		C131.6,57.5,129.8,59.6,129.3,62z"/>
	<path class="st2" d="M151.5,55.2v11.4c0,3.5,1.6,5.2,4.8,5.2c3.4,0,5.6-2.9,5.6-6.3V55.2h3.2v19h-3.1v-2h-0.8
		c-1.1,1.5-3.2,2.5-5.7,2.5c-4.7,0-7.2-2.9-7.2-7.4V55.2H151.5z"/>
	<path class="st2" d="M187.8,64.6h-14.5c0.1,4.5,2.1,7.2,6.1,7.2c2.7,0,4.3-1.1,4.8-2.9h3.2c-0.6,3.2-3.4,5.7-8.1,5.7
		c-5.9,0-9.2-4.3-9.2-10.2c0-5.8,3.4-9.8,9.2-9.8c5.6,0,8.4,4.2,8.5,8.9V64.6z M173.5,62h11c-0.2-2.4-2-4.5-5.2-4.5
		C175.8,57.5,173.9,59.6,173.5,62z"/>
	<path class="st2" d="M207,55.1l1.2-7.3h2.7l-1.2,7.3h5.1l1.2-7.3h2.7l-1.2,7.3h3.8v2.6h-4.2l-1,6.6h3.8v2.6h-4.2l-1.2,7.3h-2.7
		l1.2-7.3h-5.1l-1.2,7.3H204l1.2-7.3h-3.8v-2.6h4.2l1.1-6.6h-3.8v-2.6H207z M208.3,64.3h5.1l1.1-6.6h-5.1L208.3,64.3z"/>
	<path class="st2" d="M224.8,71.2h6.3v-20h-0.8l-5.5,3.7v-3.5l5.5-3.7h4.1v23.4h5.8v2.9h-15.3V71.2z"/>
</g>
<g>
	<path class="st2" d="M93.3,731.7v26.5h-3.2v-9.6h-0.8c-1.1,1.4-2.8,2.5-5.8,2.5c-5.2,0-8.3-4.3-8.3-10c0-5.6,3.1-10,8.3-10
		c3,0,4.9,1.2,5.9,2.5h0.8v-2H93.3z M78.3,741.2c0,4.2,2,7.2,5.8,7.2c4.2,0,6-3.5,6-7.2c0-3.7-1.7-7.2-6-7.2
		C80.4,734,78.3,736.9,78.3,741.2z"/>
	<path class="st2" d="M102.4,731.7V743c0,3.5,1.6,5.2,4.8,5.2c3.4,0,5.6-2.9,5.6-6.3v-10.3h3.2v19h-3.1v-2h-0.8
		c-1.1,1.5-3.2,2.5-5.7,2.5c-4.7,0-7.2-2.9-7.2-7.4v-12.1H102.4z"/>
	<path class="st2" d="M138.7,741.1h-14.5c0.1,4.5,2.1,7.2,6.1,7.2c2.7,0,4.3-1.1,4.8-2.9h3.2c-0.6,3.2-3.4,5.7-8.1,5.7
		c-5.9,0-9.2-4.3-9.2-10.2c0-5.8,3.4-9.8,9.2-9.8c5.6,0,8.4,4.2,8.5,8.9V741.1z M124.4,738.4h11c-0.2-2.4-2-4.5-5.2-4.5
		C126.7,734,124.8,736,124.4,738.4z"/>
	<path class="st2" d="M146.5,731.7V743c0,3.5,1.6,5.2,4.8,5.2c3.4,0,5.6-2.9,5.6-6.3v-10.3h3.2v19h-3.1v-2h-0.8
		c-1.1,1.5-3.2,2.5-5.7,2.5c-4.7,0-7.2-2.9-7.2-7.4v-12.1H146.5z"/>
	<path class="st2" d="M182.9,741.1h-14.5c0.1,4.5,2.1,7.2,6.1,7.2c2.7,0,4.3-1.1,4.8-2.9h3.2c-0.6,3.2-3.4,5.7-8.1,5.7
		c-5.9,0-9.2-4.3-9.2-10.2c0-5.8,3.4-9.8,9.2-9.8c5.6,0,8.4,4.2,8.5,8.9V741.1z M168.6,738.4h11c-0.2-2.4-2-4.5-5.2-4.5
		C170.9,734,169,736,168.6,738.4z"/>
	<path class="st2" d="M202.1,731.6l1.2-7.3h2.7l-1.2,7.3h5.1l1.2-7.3h2.7l-1.2,7.3h3.8v2.6h-4.2l-1,6.6h3.8v2.6h-4.2l-1.2,7.3h-2.7
		l1.2-7.3h-5.1l-1.2,7.3h-2.7l1.2-7.3h-3.8v-2.6h4.2l1.1-6.6h-3.8v-2.6H202.1z M203.3,740.8h5.1l1.1-6.6h-5.1L203.3,740.8z"/>
	<path class="st2" d="M234.4,750.6v-11.4c0-3.5-1.6-5.2-4.8-5.2c-3.4,0-5.6,3-5.6,6.3v10.3h-3.2v-19h3.1v2h0.8
		c1.1-1.5,3.2-2.5,5.7-2.5c4.7,0,7.2,2.9,7.2,7.4v12.1H234.4z"/>
</g>
<g>
	<path class="st2" d="M885.3,397.5c-0.7,3.7-3.6,6.2-8,6.2c-5.9,0-9.2-4.4-9.2-10c0-5.7,3.3-10,9.2-10c4.5,0,7.2,2.5,7.9,6H882
		c-0.6-1.9-2.1-3.2-4.7-3.2c-4.3,0-6,3.4-6,7.1c0,3.8,1.8,7.3,6,7.3c2.7,0,4.3-1.3,4.8-3.4H885.3z"/>
	<path class="st2" d="M893.3,375.9v27.4h-3.2v-27.4H893.3z"/>
	<path class="st2" d="M899.5,379.3v-3.5h3.4v3.5H899.5z M902.7,403.2h-3.2v-19h3.2V403.2z"/>
	<path class="st2" d="M925.5,393.7H911c0.1,4.5,2.1,7.2,6.1,7.2c2.7,0,4.3-1.1,4.8-2.9h3.2c-0.6,3.2-3.4,5.7-8.1,5.7
		c-5.9,0-9.2-4.3-9.2-10.2c0-5.8,3.4-9.8,9.2-9.8c5.6,0,8.4,4.2,8.5,8.9V393.7z M911.2,391h11c-0.2-2.4-2-4.5-5.2-4.5
		C913.5,386.6,911.6,388.6,911.2,391z"/>
	<path class="st2" d="M944.1,403.2v-11.4c0-3.5-1.6-5.2-4.8-5.2c-3.4,0-5.6,3-5.6,6.3v10.3h-3.2v-19h3.1v2h0.8
		c1.1-1.5,3.2-2.5,5.7-2.5c4.7,0,7.2,2.9,7.2,7.4v12.1H944.1z"/>
	<path class="st2" d="M962.4,384.3v2.8h-4.8v10.4c0,1.9,0.8,2.9,3.4,2.9h1.4v2.9h-1.5c-4.1,0-6.5-1.3-6.5-5.3v-10.9h-3.3v-2.8h3.3
		v-5.7h3.2v5.7H962.4z"/>
	<path class="st2" d="M982,384.2l1.2-7.3h2.7l-1.2,7.3h5.1l1.2-7.3h2.7l-1.2,7.3h3.8v2.6H992l-1,6.6h3.8v2.6h-4.2l-1.2,7.3h-2.7
		l1.2-7.3h-5.1l-1.2,7.3h-2.7l1.2-7.3h-3.8v-2.6h4.2l1.1-6.6h-3.8v-2.6H982z M983.2,393.4h5.1l1.1-6.6h-5.1L983.2,393.4z"/>
	<path class="st2" d="M1018.8,394.1v2.9h-3.6v6.2h-3.2v-6.2h-13v-3.8l11.6-16.4h4.6v17.2H1018.8z M1012,394.1v-13.5h-0.8l-8.8,12.7
		v0.8H1012z"/>
</g>
<g>
	<path class="st2" d="M317.9,400.2c-0.7,3.7-3.6,6.2-8,6.2c-5.9,0-9.2-4.4-9.2-10c0-5.7,3.3-10,9.2-10c4.5,0,7.2,2.5,7.9,6h-3.2
		c-0.6-1.9-2.1-3.2-4.7-3.2c-4.3,0-6,3.4-6,7.1c0,3.8,1.8,7.3,6,7.3c2.7,0,4.3-1.3,4.8-3.4H317.9z"/>
	<path class="st2" d="M325.9,378.6v27.4h-3.2v-27.4H325.9z"/>
	<path class="st2" d="M332.1,382v-3.5h3.4v3.5H332.1z M335.4,405.9h-3.2v-19h3.2V405.9z"/>
	<path class="st2" d="M358.1,396.4h-14.5c0.1,4.5,2.1,7.2,6.1,7.2c2.7,0,4.3-1.1,4.8-2.9h3.2c-0.6,3.2-3.4,5.7-8.1,5.7
		c-5.9,0-9.2-4.3-9.2-10.2s3.4-9.8,9.2-9.8c5.6,0,8.4,4.2,8.5,8.8V396.4z M343.9,393.7h11c-0.2-2.4-2-4.5-5.2-4.5
		C346.2,389.3,344.3,391.3,343.9,393.7z"/>
	<path class="st2" d="M376.8,405.9v-11.4c0-3.5-1.6-5.2-4.8-5.2c-3.4,0-5.6,3-5.6,6.3v10.3h-3.2v-19h3.1v2h0.8
		c1.1-1.5,3.2-2.5,5.7-2.5c4.7,0,7.2,2.9,7.2,7.4v12.1H376.8z"/>
	<path class="st2" d="M395,387v2.8h-4.8v10.4c0,1.9,0.8,2.9,3.4,2.9h1.4v2.9h-1.5c-4.1,0-6.5-1.3-6.5-5.3v-10.9h-3.3V387h3.3v-5.7
		h3.2v5.7H395z"/>
	<path class="st2" d="M414.6,386.9l1.2-7.3h2.7l-1.2,7.3h5.1l1.2-7.3h2.7l-1.2,7.3h3.8v2.6h-4.2l-1,6.6h3.8v2.6h-4.2l-1.2,7.3h-2.7
		l1.2-7.3h-5.1l-1.2,7.3h-2.7l1.2-7.3h-3.8v-2.6h4.2l1.1-6.6h-3.8v-2.6H414.6z M415.8,396.1h5.1l1.1-6.6h-5.1L415.8,396.1z"/>
	<path class="st2" d="M448.5,379.6v3.7l-6.6,5.6v0.8c4.5,0.1,7.8,2.9,7.8,8c0,5.5-3.9,8.7-9.3,8.7c-5.3,0-8.9-3.4-9.2-7.9h3.3
		c0.3,3,2.7,4.9,5.9,4.9c3.6,0,6-2.1,6-5.8c0-3.5-2.1-5.6-6-5.6c-0.9,0-1.7,0.1-2.3,0.2v-3.5l6.4-5.6v-0.8h-11.5v-2.9H448.5z"/>
</g>
<g>
	<path class="st2" d="M897.6,800.5c-0.7,3.7-3.6,6.2-8,6.2c-5.9,0-9.2-4.4-9.2-10c0-5.7,3.3-10,9.2-10c4.5,0,7.2,2.5,7.9,6h-3.2
		c-0.6-1.9-2.1-3.2-4.7-3.2c-4.3,0-6,3.4-6,7.1c0,3.8,1.8,7.3,6,7.3c2.7,0,4.3-1.3,4.8-3.4H897.6z"/>
	<path class="st2" d="M905.6,778.9v27.4h-3.2v-27.4H905.6z"/>
	<path class="st2" d="M911.8,782.3v-3.5h3.4v3.5H911.8z M915.1,806.2h-3.2v-19h3.2V806.2z"/>
	<path class="st2" d="M937.8,796.7h-14.5c0.1,4.5,2.1,7.2,6.1,7.2c2.7,0,4.3-1.1,4.8-2.9h3.2c-0.6,3.2-3.4,5.7-8.1,5.7
		c-5.9,0-9.2-4.3-9.2-10.2c0-5.8,3.4-9.8,9.2-9.8c5.6,0,8.4,4.2,8.5,8.9V796.7z M923.5,794h11c-0.2-2.4-2-4.5-5.2-4.5
		C925.8,789.5,923.9,791.6,923.5,794z"/>
	<path class="st2" d="M956.4,806.2v-11.4c0-3.5-1.6-5.2-4.8-5.2c-3.4,0-5.6,3-5.6,6.3v10.3h-3.2v-19h3.1v2h0.8
		c1.1-1.5,3.2-2.5,5.7-2.5c4.7,0,7.2,2.9,7.2,7.4v12.1H956.4z"/>
	<path class="st2" d="M974.7,787.3v2.8h-4.8v10.4c0,1.9,0.8,2.9,3.4,2.9h1.4v2.9h-1.5c-4.1,0-6.5-1.3-6.5-5.3V790h-3.3v-2.8h3.3
		v-5.7h3.2v5.7H974.7z"/>
	<path class="st2" d="M994.3,787.2l1.2-7.3h2.7l-1.2,7.3h5.1l1.2-7.3h2.7l-1.2,7.3h3.8v2.6h-4.2l-1,6.6h3.8v2.6h-4.2l-1.2,7.3H999
		l1.2-7.3h-5.1l-1.2,7.3h-2.7l1.2-7.3h-3.8v-2.6h4.2l1.1-6.6H990v-2.6H994.3z M995.5,796.4h5.1l1.1-6.6h-5.1L995.5,796.4z"/>
	<path class="st2" d="M1039,794v12.3h-3.2v-11.9c0-3.1-1.2-4.7-3.7-4.7c-3,0-4.6,2.3-4.6,5.5v11.1h-3.2v-11.9c0-3.1-1.2-4.7-3.6-4.7
		c-3.2,0-4.7,2.7-4.7,6.1v10.5h-3.2v-19h3.1v1.8h0.8c0.9-1.5,2.4-2.3,4.8-2.3c2.3,0,4,0.8,5,2.5h0.8c1.2-1.7,3-2.5,5.3-2.5
		C1037.2,786.8,1039,789.6,1039,794z"/>
	<path class="st2" d="M1053.3,786h2.7v8.2h8.2v2.7h-8.2v8.2h-2.7v-8.2h-8.2v-2.7h8.2V786z"/>
	<path class="st2" d="M1069.7,803.3h6.3v-20h-0.8l-5.5,3.7v-3.5l5.5-3.7h4.1v23.4h5.8v2.9h-15.3V803.3z"/>
</g>
<g>
	<path class="st2" d="M307,798.4c-0.7,3.7-3.6,6.2-8,6.2c-5.9,0-9.2-4.4-9.2-10c0-5.7,3.3-10,9.2-10c4.5,0,7.2,2.5,7.9,6h-3.2
		c-0.6-1.9-2.1-3.2-4.7-3.2c-4.3,0-6,3.4-6,7.1c0,3.8,1.8,7.3,6,7.3c2.7,0,4.3-1.3,4.8-3.4H307z"/>
	<path class="st2" d="M315,776.8v27.4h-3.2v-27.4H315z"/>
	<path class="st2" d="M321.1,780.2v-3.5h3.4v3.5H321.1z M324.4,804.1h-3.2v-19h3.2V804.1z"/>
	<path class="st2" d="M347.2,794.6h-14.5c0.1,4.5,2.1,7.2,6.1,7.2c2.7,0,4.3-1.1,4.8-2.9h3.2c-0.6,3.2-3.4,5.7-8.1,5.7
		c-5.9,0-9.2-4.3-9.2-10.2c0-5.8,3.4-9.8,9.2-9.8c5.6,0,8.4,4.2,8.5,8.9V794.6z M332.9,791.9h11c-0.2-2.4-2-4.5-5.2-4.5
		C335.2,787.5,333.3,789.5,332.9,791.9z"/>
	<path class="st2" d="M365.8,804.1v-11.4c0-3.5-1.6-5.2-4.8-5.2c-3.4,0-5.6,3-5.6,6.3v10.3h-3.2v-19h3.1v2h0.8
		c1.1-1.5,3.2-2.5,5.7-2.5c4.7,0,7.2,2.9,7.2,7.4v12.1H365.8z"/>
	<path class="st2" d="M384.1,785.2v2.8h-4.8v10.4c0,1.9,0.8,2.9,3.4,2.9h1.4v2.9h-1.5c-4.1,0-6.5-1.3-6.5-5.3v-10.9h-3.3v-2.8h3.3
		v-5.7h3.2v5.7H384.1z"/>
	<path class="st2" d="M403.6,785.1l1.2-7.3h2.7l-1.2,7.3h5.1l1.2-7.3h2.7l-1.2,7.3h3.8v2.6h-4.2l-1,6.6h3.8v2.6h-4.2l-1.2,7.3h-2.7
		l1.2-7.3h-5.1l-1.2,7.3h-2.7l1.2-7.3H398v-2.6h4.2l1.1-6.6h-3.8v-2.6H403.6z M404.9,794.3h5.1l1.1-6.6h-5.1L404.9,794.3z"/>
	<path class="st2" d="M448.4,791.9v12.3h-3.2v-11.9c0-3.1-1.2-4.7-3.7-4.7c-3,0-4.6,2.3-4.6,5.5v11.1h-3.2v-11.9
		c0-3.1-1.2-4.7-3.6-4.7c-3.2,0-4.7,2.7-4.7,6.1v10.5h-3.2v-19h3.1v1.8h0.8c0.9-1.5,2.4-2.3,4.8-2.3c2.3,0,4,0.8,5,2.5h0.8
		c1.2-1.7,3-2.5,5.3-2.5C446.5,784.7,448.4,787.5,448.4,791.9z"/>
</g>
<g>
	<path class="st2" d="M89.5,333.3v26.5h-3.2v-9.6h-0.8c-1.1,1.4-2.8,2.5-5.8,2.5c-5.2,0-8.3-4.3-8.3-10c0-5.6,3.1-10,8.3-10
		c3,0,4.9,1.2,5.9,2.5h0.8v-2H89.5z M74.5,342.8c0,4.2,2,7.2,5.8,7.2c4.2,0,6-3.5,6-7.2c0-3.7-1.7-7.2-6-7.2
		C76.6,335.6,74.5,338.6,74.5,342.8z"/>
	<path class="st2" d="M98.6,333.3v11.4c0,3.5,1.6,5.2,4.8,5.2c3.4,0,5.6-2.9,5.6-6.3v-10.3h3.2v19h-3.1v-2h-0.8
		c-1.1,1.5-3.2,2.5-5.7,2.5c-4.7,0-7.2-2.9-7.2-7.4v-12.1H98.6z"/>
	<path class="st2" d="M134.9,342.7h-14.5c0.1,4.5,2.1,7.2,6.1,7.2c2.7,0,4.3-1.1,4.8-2.9h3.2c-0.6,3.2-3.4,5.7-8.1,5.7
		c-5.9,0-9.2-4.3-9.2-10.2c0-5.8,3.4-9.8,9.2-9.8c5.6,0,8.4,4.2,8.5,8.9V342.7z M120.6,340.1h11c-0.2-2.4-2-4.5-5.2-4.5
		C122.9,335.6,121,337.7,120.6,340.1z"/>
	<path class="st2" d="M142.8,333.3v11.4c0,3.5,1.6,5.2,4.8,5.2c3.4,0,5.6-2.9,5.6-6.3v-10.3h3.2v19h-3.1v-2h-0.8
		c-1.1,1.5-3.2,2.5-5.7,2.5c-4.7,0-7.2-2.9-7.2-7.4v-12.1H142.8z"/>
	<path class="st2" d="M179.1,342.7h-14.5c0.1,4.5,2.1,7.2,6.1,7.2c2.7,0,4.3-1.1,4.8-2.9h3.2c-0.6,3.2-3.4,5.7-8.1,5.7
		c-5.9,0-9.2-4.3-9.2-10.2c0-5.8,3.4-9.8,9.2-9.8c5.6,0,8.4,4.2,8.5,8.9V342.7z M164.8,340.1h11c-0.2-2.4-2-4.5-5.2-4.5
		C167.1,335.6,165.2,337.7,164.8,340.1z"/>
	<path class="st2" d="M198.3,333.2l1.2-7.3h2.7l-1.2,7.3h5.1l1.2-7.3h2.7l-1.2,7.3h3.8v2.6h-4.2l-1,6.6h3.8v2.6h-4.2l-1.2,7.3h-2.7
		l1.2-7.3h-5.1l-1.2,7.3h-2.7l1.2-7.3h-3.8v-2.6h4.2l1.1-6.6h-3.8v-2.6H198.3z M199.5,342.4h5.1l1.1-6.6h-5.1L199.5,342.4z"/>
	<path class="st2" d="M215.8,333.2c0.3-5.3,4.1-7.8,8.8-7.8c4.9,0,8.5,2.7,8.5,8c0,3.6-2.7,6.9-5.8,9.5l-6.6,5.6v0.8H234v2.9h-18.1
		v-3.7l3.9-3.2c2.1-1.7,4.6-3.8,6-5.1c1.8-1.6,4.1-3.8,4.1-6.9c0-3.3-2.1-5.1-5.3-5.1c-3,0-5,1.5-5.4,4.9H215.8z"/>
</g>
<g>
	<path class="st2" d="M39.7,474.2l2.1,0.3c3.3,0.6,5.4,2.3,5.4,5.7c0,3.1-2.7,6-7.8,6c-5.4,0-8-2.4-8.4-6h3.2c0.3,2.1,2.2,3.2,5,3.2
		c2.9,0,4.7-1,4.7-3.1c0-1.7-1.1-2.6-3.5-3l-4.3-0.7c-2.7-0.5-4.6-1.9-4.6-4.8c0-3.2,2.4-5.6,7.5-5.6c4.5,0,7.1,2.1,7.5,5.4h-3.2
		c-0.3-1.8-2.1-2.6-4.4-2.6c-2.4,0-4.1,0.9-4.1,2.5c0,1.5,0.9,2,2.9,2.3L39.7,474.2z"/>
	<path class="st2" d="M64.1,483.8h-0.8c-1.2,1.5-3.2,2.5-5.9,2.5c-4.4,0-6.8-2.9-6.8-6.2c0-3.1,2-6.3,7.3-6.3H64V473
		c0-2.3-1.3-4-4.6-4c-2.8,0-4.3,1.1-4.4,2.7h-3.2c0.3-3.5,3.3-5.5,7.5-5.5c4.8,0,7.8,2.3,7.8,6.6v12.9h-3V483.8z M64,478.1v-1.7
		h-5.7c-3.1,0-4.6,1.4-4.6,3.6c0,2.1,1.6,3.5,4.4,3.5C61.3,483.5,64,481.1,64,478.1z"/>
	<path class="st2" d="M76.2,458.4v27.4H73v-27.4H76.2z"/>
	<path class="st2" d="M98.8,476.2H84.3c0.1,4.5,2.1,7.2,6.1,7.2c2.7,0,4.3-1.1,4.8-2.9h3.2c-0.6,3.2-3.4,5.7-8.1,5.7
		c-5.9,0-9.2-4.3-9.2-10.2c0-5.8,3.4-9.8,9.2-9.8c5.6,0,8.4,4.2,8.5,8.9V476.2z M84.5,473.6h11c-0.2-2.4-2-4.5-5.2-4.5
		C86.8,469.1,84.9,471.1,84.5,473.6z"/>
	<path class="st2" d="M110.8,474.2l2.1,0.3c3.3,0.6,5.4,2.3,5.4,5.7c0,3.1-2.7,6-7.8,6c-5.4,0-8-2.4-8.4-6h3.2
		c0.3,2.1,2.2,3.2,5,3.2c2.9,0,4.7-1,4.7-3.1c0-1.7-1.1-2.6-3.5-3l-4.3-0.7c-2.7-0.5-4.6-1.9-4.6-4.8c0-3.2,2.4-5.6,7.5-5.6
		c4.5,0,7.1,2.1,7.5,5.4h-3.2c-0.3-1.8-2.1-2.6-4.4-2.6c-2.4,0-4.1,0.9-4.1,2.5c0,1.5,0.9,2,2.9,2.3L110.8,474.2z"/>
	<path class="st2" d="M149.3,473.5v12.3h-3.2v-11.9c0-3.1-1.2-4.7-3.7-4.7c-3,0-4.6,2.3-4.6,5.5v11.1h-3.2v-11.9
		c0-3.1-1.2-4.7-3.6-4.7c-3.2,0-4.7,2.7-4.7,6.1v10.5h-3.2v-19h3.1v1.8h0.8c0.9-1.5,2.4-2.3,4.8-2.3c2.3,0,4,0.8,5,2.5h0.8
		c1.2-1.7,3-2.5,5.3-2.5C147.4,466.3,149.3,469.1,149.3,473.5z"/>
	<path class="st2" d="M167.3,483.8h-0.8c-1.2,1.5-3.2,2.5-5.9,2.5c-4.4,0-6.8-2.9-6.8-6.2c0-3.1,2-6.3,7.3-6.3h6.2V473
		c0-2.3-1.3-4-4.6-4c-2.8,0-4.3,1.1-4.4,2.7h-3.2c0.3-3.5,3.3-5.5,7.5-5.5c4.8,0,7.8,2.3,7.8,6.6v12.9h-3V483.8z M167.2,478.1v-1.7
		h-5.7c-3.1,0-4.6,1.4-4.6,3.6c0,2.1,1.6,3.5,4.4,3.5C164.5,483.5,167.2,481.1,167.2,478.1z"/>
	<path class="st2" d="M189.8,485.8v-11.4c0-3.5-1.6-5.2-4.8-5.2c-3.4,0-5.6,3-5.6,6.3v10.3h-3.2v-19h3.1v2h0.8
		c1.1-1.5,3.2-2.5,5.7-2.5c4.7,0,7.2,2.9,7.2,7.4v12.1H189.8z"/>
	<path class="st2" d="M213.2,466.7l1.2-7.3h2.7l-1.2,7.3h5.1l1.2-7.3h2.7l-1.2,7.3h3.8v2.6h-4.2l-1,6.6h3.8v2.6h-4.2l-1.2,7.3h-2.7
		l1.2-7.3H214l-1.2,7.3h-2.7l1.2-7.3h-3.8v-2.6h4.2l1.1-6.6h-3.8v-2.6H213.2z M214.4,475.9h5.1l1.1-6.6h-5.1L214.4,475.9z"/>
	<path class="st2" d="M230.7,466.7c0.3-5.3,4.1-7.8,8.8-7.8c4.9,0,8.5,2.7,8.5,8c0,3.6-2.7,6.9-5.8,9.5l-6.6,5.6v0.8h13.3v2.9h-18.1
		V482l3.9-3.2c2.1-1.7,4.6-3.8,6-5.1c1.8-1.6,4.1-3.8,4.1-6.9c0-3.3-2.1-5.1-5.3-5.1c-3,0-5,1.5-5.4,4.9H230.7z"/>
</g>
<g>
	<path class="st2" d="M740,569.8v-4.4h3.9v4.4H740z"/>
	<path class="st2" d="M749.7,569.8v-4.4h3.9v4.4H749.7z"/>
	<path class="st2" d="M759.4,569.8v-4.4h3.9v4.4H759.4z"/>
	<path class="st2" d="M779.6,569.8v-4.4h3.9v4.4H779.6z"/>
	<path class="st2" d="M789.3,569.8v-4.4h3.9v4.4H789.3z"/>
	<path class="st2" d="M799,569.8v-4.4h3.9v4.4H799z"/>
	<path class="st2" d="M819.2,569.8v-4.4h3.9v4.4H819.2z"/>
	<path class="st2" d="M828.9,569.8v-4.4h3.9v4.4H828.9z"/>
	<path class="st2" d="M838.7,569.8v-4.4h3.9v4.4H838.7z"/>
	<path class="st2" d="M740,601.8v-4.4h3.9v4.4H740z"/>
	<path class="st2" d="M749.7,601.8v-4.4h3.9v4.4H749.7z"/>
	<path class="st2" d="M759.4,601.8v-4.4h3.9v4.4H759.4z"/>
	<path class="st2" d="M779.6,601.8v-4.4h3.9v4.4H779.6z"/>
	<path class="st2" d="M789.3,601.8v-4.4h3.9v4.4H789.3z"/>
	<path class="st2" d="M799,601.8v-4.4h3.9v4.4H799z"/>
	<path class="st2" d="M819.2,601.8v-4.4h3.9v4.4H819.2z"/>
	<path class="st2" d="M828.9,601.8v-4.4h3.9v4.4H828.9z"/>
	<path class="st2" d="M838.7,601.8v-4.4h3.9v4.4H838.7z"/>
	<path class="st2" d="M740,633.8v-4.4h3.9v4.4H740z"/>
	<path class="st2" d="M749.7,633.8v-4.4h3.9v4.4H749.7z"/>
	<path class="st2" d="M759.4,633.8v-4.4h3.9v4.4H759.4z"/>
	<path class="st2" d="M779.6,633.8v-4.4h3.9v4.4H779.6z"/>
	<path class="st2" d="M789.3,633.8v-4.4h3.9v4.4H789.3z"/>
	<path class="st2" d="M799,633.8v-4.4h3.9v4.4H799z"/>
	<path class="st2" d="M819.2,633.8v-4.4h3.9v4.4H819.2z"/>
	<path class="st2" d="M828.9,633.8v-4.4h3.9v4.4H828.9z"/>
	<path class="st2" d="M838.7,633.8v-4.4h3.9v4.4H838.7z"/>
</g>
<g>
	<path class="st2" d="M26.8,883.7l2.1,0.3c3.3,0.6,5.4,2.3,5.4,5.7c0,3.1-2.7,6-7.8,6c-5.4,0-8-2.4-8.4-6h3.2c0.3,2.1,2.2,3.2,5,3.2
		c2.9,0,4.7-1,4.7-3.1c0-1.7-1.1-2.6-3.5-3l-4.3-0.7c-2.7-0.5-4.6-1.9-4.6-4.8c0-3.2,2.4-5.6,7.5-5.6c4.5,0,7.1,2.1,7.5,5.4h-3.2
		c-0.3-1.8-2.1-2.6-4.4-2.6c-2.4,0-4.1,0.9-4.1,2.5c0,1.5,0.9,2,2.9,2.3L26.8,883.7z"/>
	<path class="st2" d="M51.1,893.2h-0.8c-1.2,1.5-3.2,2.5-5.9,2.5c-4.4,0-6.8-2.9-6.8-6.2c0-3.1,2-6.3,7.3-6.3H51v-0.8
		c0-2.3-1.3-4-4.6-4c-2.8,0-4.3,1.1-4.4,2.7h-3.2c0.3-3.5,3.3-5.5,7.5-5.5c4.8,0,7.8,2.3,7.8,6.6v12.9h-3V893.2z M51,887.6v-1.7
		h-5.7c-3.1,0-4.6,1.4-4.6,3.6c0,2.1,1.6,3.5,4.4,3.5C48.4,892.9,51,890.6,51,887.6z"/>
	<path class="st2" d="M63.2,867.9v27.4H60v-27.4H63.2z"/>
	<path class="st2" d="M85.9,885.7H71.4c0.1,4.5,2.1,7.2,6.1,7.2c2.7,0,4.3-1.1,4.8-2.9h3.2c-0.6,3.2-3.4,5.7-8.1,5.7
		c-5.9,0-9.2-4.3-9.2-10.2c0-5.8,3.4-9.8,9.2-9.8c5.6,0,8.4,4.2,8.5,8.9V885.7z M71.6,883h11c-0.2-2.4-2-4.5-5.2-4.5
		C73.9,878.6,72,880.6,71.6,883z"/>
	<path class="st2" d="M97.9,883.7l2.1,0.3c3.3,0.6,5.4,2.3,5.4,5.7c0,3.1-2.7,6-7.8,6c-5.4,0-8-2.4-8.4-6h3.2c0.3,2.1,2.2,3.2,5,3.2
		c2.9,0,4.7-1,4.7-3.1c0-1.7-1.1-2.6-3.5-3l-4.3-0.7c-2.7-0.5-4.6-1.9-4.6-4.8c0-3.2,2.4-5.6,7.5-5.6c4.5,0,7.1,2.1,7.5,5.4h-3.2
		c-0.3-1.8-2.1-2.6-4.4-2.6c-2.4,0-4.1,0.9-4.1,2.5c0,1.5,0.9,2,2.9,2.3L97.9,883.7z"/>
	<path class="st2" d="M136.4,883v12.3h-3.2v-11.9c0-3.1-1.2-4.7-3.7-4.7c-3,0-4.6,2.3-4.6,5.5v11.1h-3.2v-11.9
		c0-3.1-1.2-4.7-3.6-4.7c-3.2,0-4.7,2.7-4.7,6.1v10.5h-3.2v-19h3.1v1.8h0.8c0.9-1.5,2.4-2.3,4.8-2.3c2.3,0,4,0.8,5,2.5h0.8
		c1.2-1.7,3-2.5,5.3-2.5C134.5,875.8,136.4,878.6,136.4,883z"/>
	<path class="st2" d="M154.3,893.2h-0.8c-1.2,1.5-3.2,2.5-5.9,2.5c-4.4,0-6.8-2.9-6.8-6.2c0-3.1,2-6.3,7.3-6.3h6.2v-0.8
		c0-2.3-1.3-4-4.6-4c-2.8,0-4.3,1.1-4.4,2.7H142c0.3-3.5,3.3-5.5,7.5-5.5c4.8,0,7.8,2.3,7.8,6.6v12.9h-3V893.2z M154.2,887.6v-1.7
		h-5.7c-3.1,0-4.6,1.4-4.6,3.6c0,2.1,1.6,3.5,4.4,3.5C151.6,892.9,154.2,890.6,154.2,887.6z"/>
	<path class="st2" d="M176.9,895.2v-11.4c0-3.5-1.6-5.2-4.8-5.2c-3.4,0-5.6,3-5.6,6.3v10.3h-3.2v-19h3.1v2h0.8
		c1.1-1.5,3.2-2.5,5.7-2.5c4.7,0,7.2,2.9,7.2,7.4v12.1H176.9z"/>
	<path class="st2" d="M200.3,876.2l1.2-7.3h2.7l-1.2,7.3h5.1l1.2-7.3h2.7l-1.2,7.3h3.8v2.6h-4.2l-1,6.6h3.8v2.6h-4.2l-1.2,7.3H205
		l1.2-7.3h-5.1l-1.2,7.3h-2.7l1.2-7.3h-3.8v-2.6h4.2l1.1-6.6H196v-2.6H200.3z M201.5,885.4h5.1l1.1-6.6h-5.1L201.5,885.4z"/>
	<path class="st2" d="M232.5,895.2v-11.4c0-3.5-1.6-5.2-4.8-5.2c-3.4,0-5.6,3-5.6,6.3v10.3h-3.2v-19h3.1v2h0.8
		c1.1-1.5,3.2-2.5,5.7-2.5c4.7,0,7.2,2.9,7.2,7.4v12.1H232.5z"/>
</g>
</svg>
