<?xml version="1.0" encoding="utf-8"?>
<!-- Generator: Adobe Illustrator 20.1.0, SVG Export Plug-In . SVG Version: 6.00 Build 0)  -->
<svg version="1.1" id="Layer_1" xmlns="http://www.w3.org/2000/svg" xmlns:xlink="http://www.w3.org/1999/xlink" x="0px" y="0px"
	 viewBox="0 0 1474 263" style="enable-background:new 0 0 1474 263;" xml:space="preserve">
<style type="text/css">
	.st0{fill:none;stroke:#007BFF;stroke-miterlimit:10;}
	.st1{fill:#007BFF;}
	.st2{fill:#082E51;}
	.st3{fill:#FFFFFF;}
</style>
<path d="M1296.6,3728.3c6.2,0.8,12.5,1.7,18.7,2.5c-0.1,0.6-0.1,1.1-0.2,1.7c-6.3-0.6-12.5-1.3-18.8-1.9
	C1296.5,3729.7,1296.6,3729,1296.6,3728.3z"/>
<path class="st0" d="M1405.1,89.3H296.3c-4.3,0-7.7-3.4-7.7-7.7V37c0-4.3,3.4-7.7,7.7-7.7h1108.9c4.3,0,7.7,3.4,7.7,7.7v44.6
	C1412.8,85.9,1409.4,89.3,1405.1,89.3z"/>
<path class="st0" d="M1405.1,234.3H296.3c-4.3,0-7.7-3.4-7.7-7.7V182c0-4.3,3.4-7.7,7.7-7.7h1108.9c4.3,0,7.7,3.4,7.7,7.7v44.6
	C1412.8,230.9,1409.4,234.3,1405.1,234.3z"/>
<path class="st1" d="M456.7,89.3H296.4c-4.3,0-7.7-3.4-7.7-7.7V37c0-4.3,3.4-7.7,7.7-7.7h160.3V89.3z"/>
<path class="st1" d="M456.7,234.3H296.4c-4.3,0-7.7-3.4-7.7-7.7V182c0-4.3,3.4-7.7,7.7-7.7h160.3V234.3z"/>
<path class="st2" d="M1236.2,29.3h168.5c4.5,0,8.1,3.4,8.1,7.7v44.6c0,4.3-3.6,7.7-8.1,7.7h-168.5V29.3z"/>
<path class="st2" d="M1236.2,174.3h168.5c4.5,0,8.1,3.4,8.1,7.7v44.6c0,4.3-3.6,7.7-8.1,7.7h-168.5V174.3z"/>
<rect x="850.8" y="29.3" class="st1" width="183.6" height="60"/>
<rect x="658.2" y="29.3" class="st2" width="192.5" height="60"/>
<rect x="848.2" y="174.3" class="st1" width="183.6" height="60"/>
<rect x="655.6" y="174.3" class="st2" width="192.5" height="60"/>
<g>
	<path class="st2" d="M163.7,51.1v25.3h-3.1v-9.1h-0.8c-1,1.3-2.7,2.4-5.5,2.4c-5,0-8-4.1-8-9.5c0-5.4,3-9.5,8-9.5
		c2.9,0,4.6,1.2,5.7,2.4h0.8v-1.9H163.7z M149.4,60.2c0,4,1.9,6.9,5.6,6.9c4,0,5.7-3.3,5.7-6.9s-1.7-6.9-5.7-6.9
		C151.3,53.3,149.4,56.2,149.4,60.2z"/>
	<path class="st2" d="M172.4,51.1V62c0,3.3,1.5,5,4.6,5c3.2,0,5.4-2.8,5.4-6v-9.8h3.1v18.1h-3v-1.9h-0.8c-1,1.4-3,2.4-5.5,2.4
		c-4.5,0-6.9-2.7-6.9-7.1V51.1H172.4z"/>
	<path class="st2" d="M207.1,60.2h-13.8c0.1,4.3,2.1,6.9,5.8,6.9c2.6,0,4.1-1.1,4.6-2.8h3.1c-0.6,3.1-3.2,5.5-7.7,5.5
		c-5.7,0-8.8-4.1-8.8-9.7c0-5.6,3.2-9.4,8.7-9.4c5.4,0,8,4,8.1,8.5V60.2z M193.4,57.6h10.5c-0.2-2.3-1.9-4.3-5-4.3
		C195.6,53.3,193.8,55.3,193.4,57.6z"/>
	<path class="st2" d="M214.6,51.1V62c0,3.3,1.5,5,4.6,5c3.2,0,5.4-2.8,5.4-6v-9.8h3.1v18.1h-3v-1.9h-0.8c-1,1.4-3,2.4-5.5,2.4
		c-4.5,0-6.9-2.7-6.9-7.1V51.1H214.6z"/>
	<path class="st2" d="M249.3,60.2h-13.8c0.1,4.3,2.1,6.9,5.8,6.9c2.6,0,4.1-1.1,4.6-2.8h3.1c-0.6,3.1-3.2,5.5-7.7,5.5
		c-5.7,0-8.8-4.1-8.8-9.7c0-5.6,3.2-9.4,8.7-9.4c5.4,0,8,4,8.1,8.5V60.2z M235.6,57.6h10.5c-0.2-2.3-1.9-4.3-5-4.3
		C237.8,53.3,236,55.3,235.6,57.6z"/>
</g>
<g>
	<path class="st2" d="M55.6,203.2l2.1,0.3c3.2,0.5,5.2,2.2,5.2,5.5c0,3-2.6,5.7-7.5,5.7c-5.1,0-7.7-2.3-8.1-5.7h3.1
		c0.3,2.1,2.1,3.1,4.8,3.1c2.7,0,4.5-1,4.5-3c0-1.6-1-2.4-3.3-2.8l-4.1-0.7c-2.6-0.5-4.4-1.8-4.4-4.6c0-3,2.3-5.4,7.2-5.4
		c4.3,0,6.8,2,7.2,5.2h-3.1c-0.3-1.7-2-2.5-4.2-2.5c-2.3,0-3.9,0.9-3.9,2.4c0,1.4,0.9,1.9,2.7,2.2L55.6,203.2z"/>
	<path class="st2" d="M78.8,212.3H78c-1.1,1.4-3.1,2.4-5.7,2.4c-4.2,0-6.5-2.8-6.5-5.9c0-2.9,1.9-6,6.9-6h5.9V202
		c0-2.2-1.3-3.8-4.4-3.8c-2.7,0-4.1,1-4.2,2.6H67c0.3-3.3,3.1-5.3,7.2-5.3c4.6,0,7.5,2.2,7.5,6.3v12.3h-2.9V212.3z M78.7,206.8v-1.7
		h-5.4c-3,0-4.4,1.3-4.4,3.5c0,2.1,1.5,3.3,4.2,3.3C76.2,212,78.7,209.7,78.7,206.8z"/>
	<path class="st2" d="M90.4,188v26.2h-3.1V188H90.4z"/>
	<path class="st2" d="M112,205.1H98.2c0.1,4.3,2.1,6.9,5.8,6.9c2.6,0,4.1-1.1,4.6-2.8h3.1c-0.6,3.1-3.2,5.5-7.7,5.5
		c-5.7,0-8.8-4.1-8.8-9.7c0-5.6,3.2-9.4,8.7-9.4c5.4,0,8,4,8.1,8.5V205.1z M98.4,202.5h10.5c-0.2-2.3-1.9-4.3-5-4.3
		C100.6,198.2,98.8,200.2,98.4,202.5z"/>
	<path class="st2" d="M123.5,203.2l2.1,0.3c3.2,0.5,5.2,2.2,5.2,5.5c0,3-2.6,5.7-7.5,5.7c-5.1,0-7.7-2.3-8.1-5.7h3.1
		c0.3,2.1,2.1,3.1,4.8,3.1s4.5-1,4.5-3c0-1.6-1-2.4-3.3-2.8l-4.1-0.7c-2.6-0.5-4.4-1.8-4.4-4.6c0-3,2.3-5.4,7.2-5.4
		c4.3,0,6.8,2,7.2,5.2h-3.1c-0.3-1.7-2-2.5-4.2-2.5c-2.3,0-3.9,0.9-3.9,2.4c0,1.4,0.9,1.9,2.7,2.2L123.5,203.2z"/>
	<path class="st2" d="M160.3,202.5v11.7h-3.1v-11.4c0-3-1.2-4.5-3.5-4.5c-2.8,0-4.4,2.2-4.4,5.3v10.6h-3.1v-11.3
		c0-3-1.2-4.5-3.5-4.5c-3,0-4.5,2.6-4.5,5.8v10h-3.1V196h3v1.8h0.8c0.9-1.4,2.3-2.2,4.6-2.2c2.2,0,3.8,0.8,4.8,2.4h0.8
		c1.1-1.6,2.8-2.4,5.1-2.4C158.5,195.6,160.3,198.3,160.3,202.5z"/>
	<path class="st2" d="M177.5,212.3h-0.8c-1.1,1.4-3.1,2.4-5.7,2.4c-4.2,0-6.5-2.8-6.5-5.9c0-2.9,1.9-6,6.9-6h5.9V202
		c0-2.2-1.3-3.8-4.4-3.8c-2.7,0-4.1,1-4.2,2.6h-3.1c0.3-3.3,3.1-5.3,7.2-5.3c4.6,0,7.5,2.2,7.5,6.3v12.3h-2.9V212.3z M177.4,206.8
		v-1.7h-5.4c-3,0-4.4,1.3-4.4,3.5c0,2.1,1.5,3.3,4.2,3.3C174.8,212,177.4,209.7,177.4,206.8z"/>
	<path class="st2" d="M199,214.2v-10.9c0-3.3-1.5-5-4.6-5c-3.2,0-5.4,2.8-5.4,6v9.8H186V196h3v1.9h0.8c1-1.4,3-2.4,5.5-2.4
		c4.5,0,6.9,2.7,6.9,7.1v11.5H199z"/>
	<path class="st2" d="M221.3,196l1.1-7h2.6l-1.1,7h4.9l1.1-7h2.6l-1.1,7h3.6v2.4h-4l-1,6.3h3.6v2.4h-4l-1.1,7h-2.6l1.1-7h-4.9
		l-1.1,7h-2.6l1.1-7h-3.6v-2.4h4l1-6.3h-3.7V196H221.3z M222.5,204.8h4.9l1-6.3h-4.9L222.5,204.8z"/>
	<path class="st2" d="M238.3,211.4h6v-19.1h-0.7l-5.3,3.6v-3.3l5.3-3.6h3.9v22.4h5.5v2.8h-14.7V211.4z"/>
</g>
<g>
	<path class="st2" d="M327.7,117.8c-0.7,3.6-3.4,5.9-7.6,5.9c-5.7,0-8.8-4.2-8.8-9.5c0-5.5,3.2-9.5,8.8-9.5c4.3,0,6.9,2.4,7.5,5.7
		h-3.1c-0.6-1.8-2-3.1-4.5-3.1c-4.1,0-5.8,3.2-5.8,6.8c0,3.6,1.7,6.9,5.8,6.9c2.6,0,4.1-1.3,4.6-3.3H327.7z"/>
	<path class="st2" d="M335.3,97.1v26.2h-3.1V97.1H335.3z"/>
	<path class="st2" d="M341.2,100.4v-3.3h3.2v3.3H341.2z M344.4,123.3h-3.1v-18.1h3.1V123.3z"/>
	<path class="st2" d="M366.1,114.2h-13.8c0.1,4.3,2.1,6.9,5.8,6.9c2.6,0,4.1-1.1,4.6-2.8h3.1c-0.6,3.1-3.2,5.5-7.7,5.5
		c-5.7,0-8.8-4.1-8.8-9.7c0-5.6,3.2-9.4,8.7-9.4c5.4,0,8,4,8.1,8.5V114.2z M352.5,111.6h10.5c-0.2-2.3-1.9-4.3-5-4.3
		C354.7,107.3,352.9,109.3,352.5,111.6z"/>
	<path class="st2" d="M383.9,123.3v-10.9c0-3.3-1.5-5-4.6-5c-3.2,0-5.4,2.8-5.4,6v9.8h-3.1v-18.1h3v1.9h0.8c1-1.4,3-2.4,5.5-2.4
		c4.5,0,6.9,2.7,6.9,7.1v11.5H383.9z"/>
	<path class="st2" d="M401.4,105.1v2.7h-4.6v10c0,1.8,0.8,2.8,3.2,2.8h1.3v2.7H400c-3.9,0-6.2-1.2-6.2-5.1v-10.4h-3.1v-2.7h3.1v-5.5
		h3.1v5.5H401.4z"/>
	<path class="st2" d="M420.1,105l1.1-7h2.6l-1.1,7h4.9l1.1-7h2.6l-1.1,7h3.6v2.4h-4l-1,6.3h3.6v2.4h-4l-1.1,7h-2.6l1.1-7h-4.9
		l-1.1,7h-2.6l1.1-7h-3.6v-2.4h4l1-6.3H416V105H420.1z M421.2,113.8h4.9l1-6.3h-4.9L421.2,113.8z"/>
	<path class="st2" d="M437,120.5h6v-19.1h-0.7l-5.3,3.6v-3.3l5.3-3.6h3.9v22.4h5.5v2.8H437V120.5z"/>
</g>
<g>
	<path class="st2" d="M350.6,60.2c0,5.4-3.3,9.5-8.9,9.5c-5.7,0-8.9-4.2-8.9-9.5s3.2-9.5,8.9-9.5C347.3,50.6,350.6,54.8,350.6,60.2z
		 M347.5,60.2c0-3.6-1.9-6.9-5.9-6.9c-4,0-5.9,3.3-5.9,6.9s1.8,6.9,5.9,6.9C345.7,67.1,347.5,63.8,347.5,60.2z"/>
	<path class="st2" d="M365.8,54h-1.5c-3.6,0-5.8,2.2-5.8,6.2v9.1h-3.1V51.1h3v2.2h0.8c0.9-1.1,2.6-2.2,5.3-2.2h1.4V54z"/>
	<path class="st2" d="M386,43.1v26.2h-3v-1.9h-0.8c-1,1.3-2.8,2.4-5.7,2.4c-5,0-8-4.2-8-9.5c0-5.5,3-9.5,8-9.5
		c2.9,0,4.5,1.1,5.5,2.4h0.8v-10H386z M383,60.2c0-3.6-1.7-6.9-5.7-6.9c-3.6,0-5.6,2.8-5.6,6.9c0,4,1.9,6.9,5.6,6.9
		C381.3,67.1,383,63.8,383,60.2z"/>
	<path class="st2" d="M407.6,60.2h-13.8c0.1,4.3,2.1,6.9,5.8,6.9c2.6,0,4.1-1.1,4.6-2.8h3.1c-0.6,3.1-3.2,5.5-7.7,5.5
		c-5.7,0-8.8-4.1-8.8-9.7c0-5.6,3.2-9.4,8.7-9.4c5.4,0,8,4,8.1,8.5V60.2z M394,57.6h10.5c-0.2-2.3-1.9-4.3-5-4.3
		C396.2,53.3,394.4,55.3,394,57.6z"/>
	<path class="st2" d="M422.7,54h-1.5c-3.6,0-5.8,2.2-5.8,6.2v9.1h-3.1V51.1h3v2.2h0.8c0.9-1.1,2.6-2.2,5.3-2.2h1.4V54z"/>
	<path class="st2" d="M435.5,60.6v-2.7h9.8v2.7H435.5z"/>
	<path class="st2" d="M450.3,65.5l13.9-6v-0.8l-13.9-6.1v-2.7l18.1,8v2.5l-18.1,8V65.5z"/>
</g>
<g>
	<path class="st2" d="M920.6,60.2c0,5.4-3.3,9.5-8.9,9.5c-5.7,0-8.9-4.2-8.9-9.5s3.2-9.5,8.9-9.5C917.3,50.6,920.6,54.8,920.6,60.2z
		 M917.5,60.2c0-3.6-1.9-6.9-5.9-6.9c-4,0-5.9,3.3-5.9,6.9s1.8,6.9,5.9,6.9C915.7,67.1,917.5,63.8,917.5,60.2z"/>
	<path class="st2" d="M935.8,54h-1.5c-3.6,0-5.8,2.2-5.8,6.2v9.1h-3.1V51.1h3v2.2h0.8c0.9-1.1,2.6-2.2,5.3-2.2h1.4V54z"/>
	<path class="st2" d="M956,43.1v26.2h-3v-1.9h-0.8c-1,1.3-2.8,2.4-5.7,2.4c-5,0-8-4.2-8-9.5c0-5.5,3-9.5,8-9.5
		c2.9,0,4.5,1.1,5.5,2.4h0.8v-10H956z M953,60.2c0-3.6-1.7-6.9-5.7-6.9c-3.6,0-5.6,2.8-5.6,6.9c0,4,1.9,6.9,5.6,6.9
		C951.3,67.1,953,63.8,953,60.2z"/>
	<path class="st2" d="M977.6,60.2h-13.8c0.1,4.3,2.1,6.9,5.8,6.9c2.6,0,4.1-1.1,4.6-2.8h3.1c-0.6,3.1-3.2,5.5-7.7,5.5
		c-5.7,0-8.8-4.1-8.8-9.7c0-5.6,3.2-9.4,8.7-9.4c5.4,0,8,4,8.1,8.5V60.2z M964,57.6h10.5c-0.2-2.3-1.9-4.3-5-4.3
		C966.2,53.3,964.4,55.3,964,57.6z"/>
	<path class="st2" d="M992.7,54h-1.5c-3.6,0-5.8,2.2-5.8,6.2v9.1h-3.1V51.1h3v2.2h0.8c0.9-1.1,2.6-2.2,5.3-2.2h1.4V54z"/>
	<path class="st2" d="M1005.5,60.6v-2.7h9.8v2.7H1005.5z"/>
	<path class="st2" d="M1020.3,65.5l13.9-6v-0.8l-13.9-6.1v-2.7l18.1,8v2.5l-18.1,8V65.5z"/>
</g>
<g>
	<path class="st2" d="M903.2,117.8c-0.7,3.6-3.4,5.9-7.6,5.9c-5.7,0-8.8-4.2-8.8-9.5c0-5.5,3.2-9.5,8.8-9.5c4.3,0,6.9,2.4,7.5,5.7
		h-3.1c-0.6-1.8-2-3.1-4.5-3.1c-4.1,0-5.8,3.2-5.8,6.8c0,3.6,1.7,6.9,5.8,6.9c2.6,0,4.1-1.3,4.6-3.3H903.2z"/>
	<path class="st2" d="M910.9,97.1v26.2h-3.1V97.1H910.9z"/>
	<path class="st2" d="M916.8,100.4v-3.3h3.2v3.3H916.8z M919.9,123.3h-3.1v-18.1h3.1V123.3z"/>
	<path class="st2" d="M941.7,114.2h-13.8c0.1,4.3,2.1,6.9,5.8,6.9c2.6,0,4.1-1.1,4.6-2.8h3.1c-0.6,3.1-3.2,5.5-7.7,5.5
		c-5.7,0-8.8-4.1-8.8-9.7c0-5.6,3.2-9.4,8.7-9.4c5.4,0,8,4,8.1,8.5V114.2z M928,111.6h10.5c-0.2-2.3-1.9-4.3-5-4.3
		C930.2,107.3,928.4,109.3,928,111.6z"/>
	<path class="st2" d="M959.5,123.3v-10.9c0-3.3-1.5-5-4.6-5c-3.2,0-5.4,2.8-5.4,6v9.8h-3.1v-18.1h3v1.9h0.8c1-1.4,3-2.4,5.5-2.4
		c4.5,0,6.9,2.7,6.9,7.1v11.5H959.5z"/>
	<path class="st2" d="M976.9,105.1v2.7h-4.6v10c0,1.8,0.8,2.8,3.2,2.8h1.3v2.7h-1.4c-3.9,0-6.2-1.2-6.2-5.1v-10.4h-3.1v-2.7h3.1
		v-5.5h3.1v5.5H976.9z"/>
	<path class="st2" d="M995.6,105l1.1-7h2.6l-1.1,7h4.9l1.1-7h2.6l-1.1,7h3.6v2.4h-4l-1,6.3h3.6v2.4h-4l-1.1,7h-2.6l1.1-7h-4.9
		l-1.1,7h-2.6l1.1-7h-3.6v-2.4h4l1-6.3h-3.7V105H995.6z M996.8,113.8h4.9l1-6.3h-4.9L996.8,113.8z"/>
	<path class="st2" d="M1012.3,105c0.3-5,3.9-7.5,8.4-7.5c4.7,0,8.2,2.6,8.2,7.7c0,3.4-2.6,6.6-5.6,9.1l-6.3,5.3v0.8h12.7v2.8h-17.3
		v-3.6l3.7-3c2-1.6,4.4-3.6,5.7-4.9c1.7-1.5,3.9-3.6,3.9-6.6c0-3.2-2-4.9-5.1-4.9c-2.8,0-4.8,1.5-5.1,4.6H1012.3z"/>
</g>
<g>
	<path class="st1" d="M1078.8,43.1v26.2h-3v-1.9h-0.8c-1,1.3-2.8,2.4-5.7,2.4c-5,0-8-4.2-8-9.5c0-5.5,3-9.5,8-9.5
		c2.9,0,4.5,1.1,5.5,2.4h0.8v-10H1078.8z M1075.8,60.2c0-3.6-1.7-6.9-5.7-6.9c-3.6,0-5.6,2.8-5.6,6.9c0,4,1.9,6.9,5.6,6.9
		C1074.2,67.1,1075.8,63.8,1075.8,60.2z"/>
	<path class="st1" d="M1100.5,60.2h-13.8c0.1,4.3,2.1,6.9,5.8,6.9c2.6,0,4.1-1.1,4.6-2.8h3.1c-0.6,3.1-3.2,5.5-7.7,5.5
		c-5.7,0-8.8-4.1-8.8-9.7c0-5.6,3.2-9.4,8.7-9.4c5.4,0,8,4,8.1,8.5V60.2z M1086.8,57.6h10.5c-0.2-2.3-1.9-4.3-5-4.3
		C1089,53.3,1087.2,55.3,1086.8,57.6z"/>
	<path class="st1" d="M1108.3,43.1v26.2h-3.1V43.1H1108.3z"/>
	<path class="st1" d="M1114.2,46.4v-3.3h3.2v3.3H1114.2z M1117.3,69.3h-3.1V51.1h3.1V69.3z"/>
	<path class="st1" d="M1121.2,51.1h3.2l5.1,15.3h1.5l4.9-15.3h3.2l-6.1,18.1h-5.7L1121.2,51.1z"/>
	<path class="st1" d="M1158.2,60.2h-13.8c0.1,4.3,2.1,6.9,5.8,6.9c2.6,0,4.1-1.1,4.6-2.8h3.1c-0.6,3.1-3.2,5.5-7.7,5.5
		c-5.7,0-8.8-4.1-8.8-9.7c0-5.6,3.2-9.4,8.7-9.4c5.4,0,8,4,8.1,8.5V60.2z M1144.5,57.6h10.5c-0.2-2.3-1.9-4.3-5-4.3
		C1146.7,53.3,1144.9,55.3,1144.5,57.6z"/>
	<path class="st1" d="M1173.3,54h-1.5c-3.6,0-5.8,2.2-5.8,6.2v9.1h-3.1V51.1h3v2.2h0.8c0.9-1.1,2.6-2.2,5.3-2.2h1.4V54z"/>
	<path class="st1" d="M1180.4,76.5l3.7-8.9l-7.7-16.4h3.3l5.5,12h0.9l5-12h3.2l-10.9,25.3H1180.4z"/>
	<path class="st1" d="M1206.8,60.6v-2.7h9.8v2.7H1206.8z"/>
	<path class="st1" d="M1221.5,65.5l13.9-6v-0.8l-13.9-6.1v-2.7l18.1,8v2.5l-18.1,8V65.5z"/>
</g>
<g>
	<path class="st2" d="M1426.9,69.3v-4.2h3.7v4.2H1426.9z"/>
	<path class="st2" d="M1436.2,69.3v-4.2h3.7v4.2H1436.2z"/>
	<path class="st2" d="M1445.5,69.3v-4.2h3.7v4.2H1445.5z"/>
</g>
<g>
	<path class="st2" d="M1426.9,123.3v-4.2h3.7v4.2H1426.9z"/>
	<path class="st2" d="M1436.2,123.3v-4.2h3.7v4.2H1436.2z"/>
	<path class="st2" d="M1445.5,123.3v-4.2h3.7v4.2H1445.5z"/>
</g>
<g>
	<path class="st2" d="M1426.8,214.2V210h3.7v4.2H1426.8z"/>
	<path class="st2" d="M1436.1,214.2V210h3.7v4.2H1436.1z"/>
	<path class="st2" d="M1445.4,214.2V210h3.7v4.2H1445.4z"/>
</g>
<g>
	<path class="st1" d="M508.8,43.1v26.2h-3v-1.9h-0.8c-1,1.3-2.8,2.4-5.7,2.4c-5,0-8-4.2-8-9.5c0-5.5,3-9.5,8-9.5
		c2.9,0,4.5,1.1,5.5,2.4h0.8v-10H508.8z M505.8,60.2c0-3.6-1.7-6.9-5.7-6.9c-3.6,0-5.6,2.8-5.6,6.9c0,4,1.9,6.9,5.6,6.9
		C504.2,67.1,505.8,63.8,505.8,60.2z"/>
	<path class="st1" d="M530.5,60.2h-13.8c0.1,4.3,2.1,6.9,5.8,6.9c2.6,0,4.1-1.1,4.6-2.8h3.1c-0.6,3.1-3.2,5.5-7.7,5.5
		c-5.7,0-8.8-4.1-8.8-9.7c0-5.6,3.2-9.4,8.7-9.4c5.4,0,8,4,8.1,8.5V60.2z M516.8,57.6h10.5c-0.2-2.3-1.9-4.3-5-4.3
		C519,53.3,517.2,55.3,516.8,57.6z"/>
	<path class="st1" d="M538.3,43.1v26.2h-3.1V43.1H538.3z"/>
	<path class="st1" d="M544.2,46.4v-3.3h3.2v3.3H544.2z M547.3,69.3h-3.1V51.1h3.1V69.3z"/>
	<path class="st1" d="M551.2,51.1h3.2l5.1,15.3h1.5l4.9-15.3h3.2l-6.1,18.1h-5.7L551.2,51.1z"/>
	<path class="st1" d="M588.2,60.2h-13.8c0.1,4.3,2.1,6.9,5.8,6.9c2.6,0,4.1-1.1,4.6-2.8h3.1c-0.6,3.1-3.2,5.5-7.7,5.5
		c-5.7,0-8.8-4.1-8.8-9.7c0-5.6,3.2-9.4,8.7-9.4c5.4,0,8,4,8.1,8.5V60.2z M574.5,57.6H585c-0.2-2.3-1.9-4.3-5-4.3
		C576.7,53.3,574.9,55.3,574.5,57.6z"/>
	<path class="st1" d="M603.3,54h-1.5c-3.6,0-5.8,2.2-5.8,6.2v9.1h-3.1V51.1h3v2.2h0.8c0.9-1.1,2.6-2.2,5.3-2.2h1.4V54z"/>
	<path class="st1" d="M610.4,76.5l3.7-8.9l-7.7-16.4h3.3l5.5,12h0.9l5-12h3.2l-10.9,25.3H610.4z"/>
	<path class="st1" d="M636.8,60.6v-2.7h9.8v2.7H636.8z"/>
	<path class="st1" d="M651.5,65.5l13.9-6v-0.8l-13.9-6.1v-2.7l18.1,8v2.5l-18.1,8V65.5z"/>
</g>
<g>
	<path class="st3" d="M683.1,51.1v1.9h0.8c1-1.3,2.8-2.4,5.7-2.4c5,0,8,4.2,8,9.5c0,5.5-3,9.5-8,9.5c-2.9,0-4.6-1.1-5.5-2.4h-0.8
		v9.1h-3.1V51.1H683.1z M683.2,60.2c0,3.6,1.7,6.9,5.7,6.9c3.6,0,5.6-2.8,5.6-6.9c0-4-1.9-6.9-5.6-6.9
		C684.8,53.3,683.2,56.6,683.2,60.2z"/>
	<path class="st3" d="M713.9,67.4h-0.8c-1.1,1.4-3.1,2.4-5.7,2.4c-4.2,0-6.5-2.8-6.5-5.9c0-2.9,1.9-6,6.9-6h5.9v-0.7
		c0-2.2-1.3-3.8-4.4-3.8c-2.7,0-4.1,1-4.2,2.6H702c0.3-3.3,3.1-5.3,7.2-5.3c4.6,0,7.5,2.2,7.5,6.3v12.3h-2.9V67.4z M713.7,61.9v-1.7
		h-5.4c-3,0-4.4,1.3-4.4,3.5c0,2.1,1.5,3.3,4.2,3.3C711.2,67.1,713.7,64.8,713.7,61.9z"/>
	<path class="st3" d="M724.1,76.5l3.7-8.9l-7.7-16.4h3.3l5.5,12h0.9l5-12h3.2l-10.9,25.3H724.1z"/>
	<path class="st3" d="M766.7,57.5v11.7h-3.1V57.8c0-3-1.2-4.5-3.5-4.5c-2.8,0-4.4,2.2-4.4,5.3v10.6h-3.1V57.9c0-3-1.2-4.5-3.5-4.5
		c-3,0-4.5,2.6-4.5,5.8v10h-3.1V51.1h3v1.8h0.8c0.9-1.4,2.3-2.2,4.6-2.2c2.2,0,3.8,0.8,4.8,2.4h0.8c1.1-1.6,2.8-2.4,5.1-2.4
		C764.9,50.6,766.7,53.3,766.7,57.5z"/>
	<path class="st3" d="M788.1,60.2h-13.8c0.1,4.3,2.1,6.9,5.8,6.9c2.6,0,4.1-1.1,4.6-2.8h3.1c-0.6,3.1-3.2,5.5-7.7,5.5
		c-5.7,0-8.8-4.1-8.8-9.7c0-5.6,3.2-9.4,8.7-9.4c5.4,0,8,4,8.1,8.5V60.2z M774.4,57.6h10.5c-0.2-2.3-1.9-4.3-5-4.3
		C776.6,53.3,774.8,55.3,774.4,57.6z"/>
	<path class="st3" d="M805.9,69.3V58.4c0-3.3-1.5-5-4.6-5c-3.2,0-5.4,2.8-5.4,6v9.8h-3.1V51.1h3v1.9h0.8c1-1.4,3-2.4,5.5-2.4
		c4.5,0,6.9,2.7,6.9,7.1v11.5H805.9z"/>
	<path class="st3" d="M823.3,51.1v2.7h-4.6v10c0,1.8,0.8,2.8,3.2,2.8h1.3v2.7h-1.4c-3.9,0-6.2-1.2-6.2-5.1V53.8h-3.1v-2.7h3.1v-5.5
		h3.1v5.5H823.3z"/>
	<path class="st3" d="M837.2,60.6v-2.7h9.8v2.7H837.2z"/>
	<path class="st3" d="M851.9,65.5l13.9-6v-0.8l-13.9-6.1v-2.7l18.1,8v2.5l-18.1,8V65.5z"/>
</g>
<g>
	<path class="st3" d="M1256.4,51.1v1.9h0.8c1-1.3,2.8-2.4,5.7-2.4c5,0,8,4.2,8,9.5c0,5.5-3,9.5-8,9.5c-2.9,0-4.6-1.1-5.5-2.4h-0.8
		v9.1h-3.1V51.1H1256.4z M1256.5,60.2c0,3.6,1.7,6.9,5.7,6.9c3.6,0,5.6-2.8,5.6-6.9c0-4-1.9-6.9-5.6-6.9
		C1258.1,53.3,1256.5,56.6,1256.5,60.2z"/>
	<path class="st3" d="M1287.1,67.4h-0.8c-1.1,1.4-3.1,2.4-5.7,2.4c-4.2,0-6.5-2.8-6.5-5.9c0-2.9,1.9-6,6.9-6h5.9v-0.7
		c0-2.2-1.3-3.8-4.4-3.8c-2.7,0-4.1,1-4.2,2.6h-3.1c0.3-3.3,3.1-5.3,7.2-5.3c4.6,0,7.5,2.2,7.5,6.3v12.3h-2.9V67.4z M1287,61.9v-1.7
		h-5.4c-3,0-4.4,1.3-4.4,3.5c0,2.1,1.5,3.3,4.2,3.3C1284.5,67.1,1287,64.8,1287,61.9z"/>
	<path class="st3" d="M1297.4,76.5l3.7-8.9l-7.7-16.4h3.3l5.5,12h0.9l5-12h3.2l-10.9,25.3H1297.4z"/>
	<path class="st3" d="M1340,57.5v11.7h-3.1V57.8c0-3-1.2-4.5-3.5-4.5c-2.8,0-4.4,2.2-4.4,5.3v10.6h-3.1V57.9c0-3-1.2-4.5-3.5-4.5
		c-3,0-4.5,2.6-4.5,5.8v10h-3.1V51.1h3v1.8h0.8c0.9-1.4,2.3-2.2,4.6-2.2c2.2,0,3.8,0.8,4.8,2.4h0.8c1.1-1.6,2.8-2.4,5.1-2.4
		C1338.2,50.6,1340,53.3,1340,57.5z"/>
	<path class="st3" d="M1361.4,60.2h-13.8c0.1,4.3,2.1,6.9,5.8,6.9c2.6,0,4.1-1.1,4.6-2.8h3.1c-0.6,3.1-3.2,5.5-7.7,5.5
		c-5.7,0-8.8-4.1-8.8-9.7c0-5.6,3.2-9.4,8.7-9.4c5.4,0,8,4,8.1,8.5V60.2z M1347.7,57.6h10.5c-0.2-2.3-1.9-4.3-5-4.3
		C1349.9,53.3,1348.1,55.3,1347.7,57.6z"/>
	<path class="st3" d="M1379.2,69.3V58.4c0-3.3-1.5-5-4.6-5c-3.2,0-5.4,2.8-5.4,6v9.8h-3.1V51.1h3v1.9h0.8c1-1.4,3-2.4,5.5-2.4
		c4.5,0,6.9,2.7,6.9,7.1v11.5H1379.2z"/>
	<path class="st3" d="M1396.6,51.1v2.7h-4.6v10c0,1.8,0.8,2.8,3.2,2.8h1.3v2.7h-1.4c-3.9,0-6.2-1.2-6.2-5.1V53.8h-3.1v-2.7h3.1v-5.5
		h3.1v5.5H1396.6z"/>
</g>
<g>
	<path class="st2" d="M350.5,205.1c0,5.4-3.3,9.5-8.9,9.5c-5.7,0-8.9-4.2-8.9-9.5s3.2-9.5,8.9-9.5
		C347.3,195.6,350.5,199.8,350.5,205.1z M347.5,205.1c0-3.6-1.9-6.9-5.9-6.9c-4,0-5.9,3.3-5.9,6.9s1.8,6.9,5.9,6.9
		C345.6,212,347.5,208.7,347.5,205.1z"/>
	<path class="st2" d="M365.7,198.9h-1.5c-3.6,0-5.8,2.2-5.8,6.2v9.1h-3.1V196h3v2.2h0.8c0.9-1.1,2.6-2.2,5.3-2.2h1.4V198.9z"/>
	<path class="st2" d="M385.9,188v26.2h-3v-1.9h-0.8c-1,1.3-2.8,2.4-5.7,2.4c-5,0-8-4.2-8-9.5c0-5.5,3-9.5,8-9.5
		c2.9,0,4.5,1.1,5.5,2.4h0.8v-10H385.9z M382.9,205.1c0-3.6-1.7-6.9-5.7-6.9c-3.6,0-5.6,2.8-5.6,6.9c0,4,1.9,6.9,5.6,6.9
		C381.2,212,382.9,208.7,382.9,205.1z"/>
	<path class="st2" d="M407.5,205.1h-13.8c0.1,4.3,2.1,6.9,5.8,6.9c2.6,0,4.1-1.1,4.6-2.8h3.1c-0.6,3.1-3.2,5.5-7.7,5.5
		c-5.7,0-8.8-4.1-8.8-9.7c0-5.6,3.2-9.4,8.7-9.4c5.4,0,8,4,8.1,8.5V205.1z M393.9,202.5h10.5c-0.2-2.3-1.9-4.3-5-4.3
		C396.1,198.2,394.3,200.2,393.9,202.5z"/>
	<path class="st2" d="M422.7,198.9h-1.5c-3.6,0-5.8,2.2-5.8,6.2v9.1h-3.1V196h3v2.2h0.8c0.9-1.1,2.6-2.2,5.3-2.2h1.4V198.9z"/>
	<path class="st2" d="M435.5,205.6v-2.7h9.8v2.7H435.5z"/>
	<path class="st2" d="M450.2,210.4l13.9-6v-0.8l-13.9-6.1v-2.7l18.1,8v2.5l-18.1,8V210.4z"/>
</g>
<g>
	<path class="st2" d="M920.5,205.1c0,5.4-3.3,9.5-8.9,9.5c-5.7,0-8.9-4.2-8.9-9.5s3.2-9.5,8.9-9.5
		C917.3,195.6,920.5,199.8,920.5,205.1z M917.5,205.1c0-3.6-1.9-6.9-5.9-6.9c-4,0-5.9,3.3-5.9,6.9s1.8,6.9,5.9,6.9
		C915.6,212,917.5,208.7,917.5,205.1z"/>
	<path class="st2" d="M935.7,198.9h-1.5c-3.6,0-5.8,2.2-5.8,6.2v9.1h-3.1V196h3v2.2h0.8c0.9-1.1,2.6-2.2,5.3-2.2h1.4V198.9z"/>
	<path class="st2" d="M955.9,188v26.2h-3v-1.9h-0.8c-1,1.3-2.8,2.4-5.7,2.4c-5,0-8-4.2-8-9.5c0-5.5,3-9.5,8-9.5
		c2.9,0,4.5,1.1,5.5,2.4h0.8v-10H955.9z M952.9,205.1c0-3.6-1.7-6.9-5.7-6.9c-3.6,0-5.6,2.8-5.6,6.9c0,4,1.9,6.9,5.6,6.9
		C951.2,212,952.9,208.7,952.9,205.1z"/>
	<path class="st2" d="M977.5,205.1h-13.8c0.1,4.3,2.1,6.9,5.8,6.9c2.6,0,4.1-1.1,4.6-2.8h3.1c-0.6,3.1-3.2,5.5-7.7,5.5
		c-5.7,0-8.8-4.1-8.8-9.7c0-5.6,3.2-9.4,8.7-9.4c5.4,0,8,4,8.1,8.5V205.1z M963.9,202.5h10.5c-0.2-2.3-1.9-4.3-5-4.3
		C966.1,198.2,964.3,200.2,963.9,202.5z"/>
	<path class="st2" d="M992.7,198.9h-1.5c-3.6,0-5.8,2.2-5.8,6.2v9.1h-3.1V196h3v2.2h0.8c0.9-1.1,2.6-2.2,5.3-2.2h1.4V198.9z"/>
	<path class="st2" d="M1005.5,205.6v-2.7h9.8v2.7H1005.5z"/>
	<path class="st2" d="M1020.2,210.4l13.9-6v-0.8l-13.9-6.1v-2.7l18.1,8v2.5l-18.1,8V210.4z"/>
</g>
<g>
	<path class="st1" d="M1078.8,188v26.2h-3v-1.9h-0.8c-1,1.3-2.8,2.4-5.7,2.4c-5,0-8-4.2-8-9.5c0-5.5,3-9.5,8-9.5
		c2.9,0,4.5,1.1,5.5,2.4h0.8v-10H1078.8z M1075.8,205.1c0-3.6-1.7-6.9-5.7-6.9c-3.6,0-5.6,2.8-5.6,6.9c0,4,1.9,6.9,5.6,6.9
		C1074.1,212,1075.8,208.7,1075.8,205.1z"/>
	<path class="st1" d="M1100.4,205.1h-13.8c0.1,4.3,2.1,6.9,5.8,6.9c2.6,0,4.1-1.1,4.6-2.8h3.1c-0.6,3.1-3.2,5.5-7.7,5.5
		c-5.7,0-8.8-4.1-8.8-9.7c0-5.6,3.2-9.4,8.7-9.4c5.4,0,8,4,8.1,8.5V205.1z M1086.8,202.5h10.5c-0.2-2.3-1.9-4.3-5-4.3
		C1089,198.2,1087.2,200.2,1086.8,202.5z"/>
	<path class="st1" d="M1108.2,188v26.2h-3.1V188H1108.2z"/>
	<path class="st1" d="M1114.1,191.3V188h3.2v3.3H1114.1z M1117.2,214.2h-3.1V196h3.1V214.2z"/>
	<path class="st1" d="M1121.1,196h3.2l5.1,15.3h1.5l4.9-15.3h3.2l-6.1,18.1h-5.7L1121.1,196z"/>
	<path class="st1" d="M1158.1,205.1h-13.8c0.1,4.3,2.1,6.9,5.8,6.9c2.6,0,4.1-1.1,4.6-2.8h3.1c-0.6,3.1-3.2,5.5-7.7,5.5
		c-5.7,0-8.8-4.1-8.8-9.7c0-5.6,3.2-9.4,8.7-9.4c5.4,0,8,4,8.1,8.5V205.1z M1144.5,202.5h10.5c-0.2-2.3-1.9-4.3-5-4.3
		C1146.7,198.2,1144.9,200.2,1144.5,202.5z"/>
	<path class="st1" d="M1173.2,198.9h-1.5c-3.6,0-5.8,2.2-5.8,6.2v9.1h-3.1V196h3v2.2h0.8c0.9-1.1,2.6-2.2,5.3-2.2h1.4V198.9z"/>
	<path class="st1" d="M1180.3,221.4l3.7-8.9l-7.7-16.4h3.3l5.5,12h0.9l5-12h3.2l-10.9,25.3H1180.3z"/>
	<path class="st1" d="M1206.7,205.6v-2.7h9.8v2.7H1206.7z"/>
	<path class="st1" d="M1221.4,210.4l13.9-6v-0.8l-13.9-6.1v-2.7l18.1,8v2.5l-18.1,8V210.4z"/>
</g>
<g>
	<path class="st1" d="M508.8,188v26.2h-3v-1.9H505c-1,1.3-2.8,2.4-5.7,2.4c-5,0-8-4.2-8-9.5c0-5.5,3-9.5,8-9.5
		c2.9,0,4.5,1.1,5.5,2.4h0.8v-10H508.8z M505.8,205.1c0-3.6-1.7-6.9-5.7-6.9c-3.6,0-5.6,2.8-5.6,6.9c0,4,1.9,6.9,5.6,6.9
		C504.1,212,505.8,208.7,505.8,205.1z"/>
	<path class="st1" d="M530.4,205.1h-13.8c0.1,4.3,2.1,6.9,5.8,6.9c2.6,0,4.1-1.1,4.6-2.8h3.1c-0.6,3.1-3.2,5.5-7.7,5.5
		c-5.7,0-8.8-4.1-8.8-9.7c0-5.6,3.2-9.4,8.7-9.4c5.4,0,8,4,8.1,8.5V205.1z M516.8,202.5h10.5c-0.2-2.3-1.9-4.3-5-4.3
		C519,198.2,517.2,200.2,516.8,202.5z"/>
	<path class="st1" d="M538.2,188v26.2h-3.1V188H538.2z"/>
	<path class="st1" d="M544.1,191.3V188h3.2v3.3H544.1z M547.2,214.2h-3.1V196h3.1V214.2z"/>
	<path class="st1" d="M551.1,196h3.2l5.1,15.3h1.5l4.9-15.3h3.2l-6.1,18.1h-5.7L551.1,196z"/>
	<path class="st1" d="M588.1,205.1h-13.8c0.1,4.3,2.1,6.9,5.8,6.9c2.6,0,4.1-1.1,4.6-2.8h3.1c-0.6,3.1-3.2,5.5-7.7,5.5
		c-5.7,0-8.8-4.1-8.8-9.7c0-5.6,3.2-9.4,8.7-9.4c5.4,0,8,4,8.1,8.5V205.1z M574.5,202.5h10.5c-0.2-2.3-1.9-4.3-5-4.3
		C576.7,198.2,574.9,200.2,574.5,202.5z"/>
	<path class="st1" d="M603.2,198.9h-1.5c-3.6,0-5.8,2.2-5.8,6.2v9.1h-3.1V196h3v2.2h0.8c0.9-1.1,2.6-2.2,5.3-2.2h1.4V198.9z"/>
	<path class="st1" d="M610.3,221.4l3.7-8.9l-7.7-16.4h3.3l5.5,12h0.9l5-12h3.2l-10.9,25.3H610.3z"/>
	<path class="st1" d="M636.7,205.6v-2.7h9.8v2.7H636.7z"/>
	<path class="st1" d="M651.4,210.4l13.9-6v-0.8l-13.9-6.1v-2.7l18.1,8v2.5l-18.1,8V210.4z"/>
</g>
<g>
	<path class="st3" d="M683,196v1.9h0.8c1-1.3,2.8-2.4,5.7-2.4c5,0,8,4.2,8,9.5c0,5.5-3,9.5-8,9.5c-2.9,0-4.6-1.1-5.5-2.4h-0.8v9.1
		h-3.1V196H683z M683.1,205.1c0,3.6,1.7,6.9,5.7,6.9c3.6,0,5.6-2.8,5.6-6.9c0-4-1.9-6.9-5.6-6.9
		C684.8,198.2,683.1,201.6,683.1,205.1z"/>
	<path class="st3" d="M713.8,212.3H713c-1.1,1.4-3.1,2.4-5.7,2.4c-4.2,0-6.5-2.8-6.5-5.9c0-2.9,1.9-6,6.9-6h5.9V202
		c0-2.2-1.3-3.8-4.4-3.8c-2.7,0-4.1,1-4.2,2.6H702c0.3-3.3,3.1-5.3,7.2-5.3c4.6,0,7.5,2.2,7.5,6.3v12.3h-2.9V212.3z M713.7,206.8
		v-1.7h-5.4c-3,0-4.4,1.3-4.4,3.5c0,2.1,1.5,3.3,4.2,3.3C711.1,212,713.7,209.7,713.7,206.8z"/>
	<path class="st3" d="M724.1,221.4l3.7-8.9l-7.7-16.4h3.3l5.5,12h0.9l5-12h3.2l-10.9,25.3H724.1z"/>
	<path class="st3" d="M766.7,202.5v11.7h-3.1v-11.4c0-3-1.2-4.5-3.5-4.5c-2.8,0-4.4,2.2-4.4,5.3v10.6h-3.1v-11.3
		c0-3-1.2-4.5-3.5-4.5c-3,0-4.5,2.6-4.5,5.8v10h-3.1V196h3v1.8h0.8c0.9-1.4,2.3-2.2,4.6-2.2c2.2,0,3.8,0.8,4.8,2.4h0.8
		c1.1-1.6,2.8-2.4,5.1-2.4C764.9,195.6,766.7,198.3,766.7,202.5z"/>
	<path class="st3" d="M788,205.1h-13.8c0.1,4.3,2.1,6.9,5.8,6.9c2.6,0,4.1-1.1,4.6-2.8h3.1c-0.6,3.1-3.2,5.5-7.7,5.5
		c-5.7,0-8.8-4.1-8.8-9.7c0-5.6,3.2-9.4,8.7-9.4c5.4,0,8,4,8.1,8.5V205.1z M774.4,202.5h10.5c-0.2-2.3-1.9-4.3-5-4.3
		C776.6,198.2,774.8,200.2,774.4,202.5z"/>
	<path class="st3" d="M805.8,214.2v-10.9c0-3.3-1.5-5-4.6-5c-3.2,0-5.4,2.8-5.4,6v9.8h-3.1V196h3v1.9h0.8c1-1.4,3-2.4,5.5-2.4
		c4.5,0,6.9,2.7,6.9,7.1v11.5H805.8z"/>
	<path class="st3" d="M823.3,196v2.7h-4.6v10c0,1.8,0.8,2.8,3.2,2.8h1.3v2.7h-1.4c-3.9,0-6.2-1.2-6.2-5.1v-10.4h-3.1V196h3.1v-5.5
		h3.1v5.5H823.3z"/>
	<path class="st3" d="M837.1,205.6v-2.7h9.8v2.7H837.1z"/>
	<path class="st3" d="M851.9,210.4l13.9-6v-0.8l-13.9-6.1v-2.7l18.1,8v2.5l-18.1,8V210.4z"/>
</g>
<g>
	<path class="st3" d="M1256.3,196v1.9h0.8c1-1.3,2.8-2.4,5.7-2.4c5,0,8,4.2,8,9.5c0,5.5-3,9.5-8,9.5c-2.9,0-4.6-1.1-5.5-2.4h-0.8
		v9.1h-3.1V196H1256.3z M1256.4,205.1c0,3.6,1.7,6.9,5.7,6.9c3.6,0,5.6-2.8,5.6-6.9c0-4-1.9-6.9-5.6-6.9
		C1258.1,198.2,1256.4,201.6,1256.4,205.1z"/>
	<path class="st3" d="M1287.1,212.3h-0.8c-1.1,1.4-3.1,2.4-5.7,2.4c-4.2,0-6.5-2.8-6.5-5.9c0-2.9,1.9-6,6.9-6h5.9V202
		c0-2.2-1.3-3.8-4.4-3.8c-2.7,0-4.1,1-4.2,2.6h-3.1c0.3-3.3,3.1-5.3,7.2-5.3c4.6,0,7.5,2.2,7.5,6.3v12.3h-2.9V212.3z M1287,206.8
		v-1.7h-5.4c-3,0-4.4,1.3-4.4,3.5c0,2.1,1.5,3.3,4.2,3.3C1284.4,212,1287,209.7,1287,206.8z"/>
	<path class="st3" d="M1297.4,221.4l3.7-8.9l-7.7-16.4h3.3l5.5,12h0.9l5-12h3.2l-10.9,25.3H1297.4z"/>
	<path class="st3" d="M1339.9,202.5v11.7h-3.1v-11.4c0-3-1.2-4.5-3.5-4.5c-2.8,0-4.4,2.2-4.4,5.3v10.6h-3.1v-11.3
		c0-3-1.2-4.5-3.5-4.5c-3,0-4.5,2.6-4.5,5.8v10h-3.1V196h3v1.8h0.8c0.9-1.4,2.3-2.2,4.6-2.2c2.2,0,3.8,0.8,4.8,2.4h0.8
		c1.1-1.6,2.8-2.4,5.1-2.4C1338.1,195.6,1339.9,198.3,1339.9,202.5z"/>
	<path class="st3" d="M1361.3,205.1h-13.8c0.1,4.3,2.1,6.9,5.8,6.9c2.6,0,4.1-1.1,4.6-2.8h3.1c-0.6,3.1-3.2,5.5-7.7,5.5
		c-5.7,0-8.8-4.1-8.8-9.7c0-5.6,3.2-9.4,8.7-9.4c5.4,0,8,4,8.1,8.5V205.1z M1347.6,202.5h10.5c-0.2-2.3-1.9-4.3-5-4.3
		C1349.8,198.2,1348,200.2,1347.6,202.5z"/>
	<path class="st3" d="M1379.1,214.2v-10.9c0-3.3-1.5-5-4.6-5c-3.2,0-5.4,2.8-5.4,6v9.8h-3.1V196h3v1.9h0.8c1-1.4,3-2.4,5.5-2.4
		c4.5,0,6.9,2.7,6.9,7.1v11.5H1379.1z"/>
	<path class="st3" d="M1396.6,196v2.7h-4.6v10c0,1.8,0.8,2.8,3.2,2.8h1.3v2.7h-1.4c-3.9,0-6.2-1.2-6.2-5.1v-10.4h-3.1V196h3.1v-5.5
		h3.1v5.5H1396.6z"/>
</g>
</svg>
